<?xml version="1.0" encoding="UTF-8" standalone="no"?>
<svg
   xmlns:dc="http://purl.org/dc/elements/1.1/"
   xmlns:cc="http://creativecommons.org/ns#"
   xmlns:rdf="http://www.w3.org/1999/02/22-rdf-syntax-ns#"
   xmlns:svg="http://www.w3.org/2000/svg"
   xmlns="http://www.w3.org/2000/svg"
   viewBox="0 0 166.66667 146.66667"
   height="146.66667"
   width="166.66667"
   id="svg941"
   version="1.1">
  <metadata
     id="metadata947">
    <rdf:RDF>
      <cc:Work
         rdf:about="">
        <dc:format>image/svg+xml</dc:format>
        <dc:type
           rdf:resource="http://purl.org/dc/dcmitype/StillImage" />
        <dc:title></dc:title>
      </cc:Work>
    </rdf:RDF>
  </metadata>
  <defs
     id="defs945">
    <filter
       id="filter953"
       style="color-interpolation-filters:sRGB;">
      <feConvolveMatrix
         id="feConvolveMatrix951"
         targetY="1"
         targetX="1"
         in="SourceGraphic"
         divisor="1"
         kernelMatrix="0 -0.15 0 -0.15 1.6 -0.15 0 -0.15 0"
         order="3 3" />
    </filter>
  </defs>
  <path
     id="path955"
     d="m 121.11959,142.596 c 0,-1.13011 -1.03032,-1.45004 -3,-0.93155 -1.65,0.43435 -6.15447,0.42119 -10.00993,-0.0292 -5.714,-0.66754 -6.73143,-1.15454 -5.50341,-2.63421 1.88864,-2.27567 -0.41658,-2.48176 -4.330387,-0.38716 -3.772067,2.01875 -8.727347,-1.53247 -11.905378,-8.53204 -3.510473,-7.73176 -3.218794,-11.64649 1.544866,-20.73423 3.044593,-5.80823 4.115648,-9.612526 4.077909,-14.484419 -0.04897,-6.323174 0.174796,-6.734282 5.204244,-9.56099 5.536946,-3.111941 5.901756,-3.698943 4.082536,-6.569126 -0.91695,-1.446709 -2.179764,-1.251556 -6.646242,1.027072 -3.032813,1.547224 -5.514203,2.200941 -5.514203,1.452704 0,-1.971355 -3.41719,-1.669245 -5.182816,0.458205 -2.194111,2.643743 -12.07767,0.562291 -15.109657,-3.182054 -2.067644,-2.553432 -2.686641,-2.705124 -4.598553,-1.126927 -1.723963,1.423055 -2.332527,1.457547 -2.770248,0.157011 -0.594708,-1.766972 -5.683564,-2.366828 -5.655631,-0.666667 0.0091,0.55 4.214008,2.699252 9.34438,4.776116 5.130372,2.076863 8.98757,4.326863 8.571548,5 -0.416021,0.673136 0.443598,1.223884 1.910264,1.223884 1.466667,0 3.037487,0.6 3.490713,1.333334 0.453225,0.733333 -0.411366,1.333333 -1.921311,1.333333 -1.509946,0 -2.745356,0.6 -2.745356,1.333333 0,0.733334 1.164589,1.333334 2.587977,1.333334 1.423388,0 3.021815,0.701962 3.55206,1.559918 0.627763,1.015742 0.264184,1.291342 -1.042222,0.790027 -1.103468,-0.42344 -2.837451,-0.256215 -3.853298,0.371612 -1.426709,0.881756 -1.095797,1.441252 1.454246,2.458792 l 3.301237,1.317287 -3.666667,0.08452 c -3.954661,0.09116 -5.197528,2.711721 -1.333333,2.811311 1.426868,0.0368 0.779392,0.72506 -1.666667,1.77171 l -4,1.71156 4,1.45637 4,1.45637 -3.587977,0.10526 c -5.021959,0.14734 -5.803463,2.28558 -1.420331,3.88613 l 3.674975,1.34195 -4.333334,0.10526 c -5.247825,0.12748 -5.845953,2.72232 -0.666666,2.89218 3.43356,0.11262 3.369985,0.20702 -1,1.485 l -4.666667,1.36474 3.333333,1.36202 3.333334,1.36202 -3.333334,0.92697 c -3.205009,0.89128 -3.153678,0.97097 1.333334,2.06996 l 4.666666,1.143 -3.890002,0.74969 c -5.886754,1.1345 -5.801566,3.8229 0.140696,4.44013 4.611281,0.47899 4.464381,0.55538 -1.584027,0.82379 l -6.666667,0.29584 7.354806,2.35418 c 4.045142,1.2948 8.545143,3.10784 10,4.02897 2.628327,1.66411 2.628189,1.66862 -0.02147,0.70739 -4.413229,-1.60103 -28.539659,-2.32589 -30.342739,-0.91164 -1.757921,1.37883 -5.52484,1.19773 -16.323928,-0.78477 l -6.666667,-1.22388 6.921311,-0.15683 c 3.806721,-0.0863 7.31741,-0.79773 7.801534,-1.58106 0.484123,-0.78333 1.783786,-1.0775 2.888139,-0.65372 3.338843,1.28123 11.970568,-1.75067 14.04783,-4.93431 1.072185,-1.64326 2.243472,-5.98774 2.602856,-9.65441 0.359384,-3.66666 2.310293,-10.56667 4.335353,-15.33334 5.613223,-13.212623 5.682351,-14.966903 0.753219,-19.114493 -4.644215,-3.90785 -10.68358,-4.785283 -10.68358,-1.552171 0,2.651516 -3.850748,2.548372 -6.870003,-0.184016 -1.990883,-1.801724 -2.775064,-1.883787 -4.479995,-0.46882 -1.718719,1.426409 -2.369021,1.301725 -3.862361,-0.740539 -1.701432,-2.326847 -1.916595,-2.334815 -4.099587,-0.151823 -1.70294,1.702941 -2.757795,1.927221 -4.043945,0.85981 -1.206356,-1.001187 -2.005048,-1.015303 -2.604095,-0.04603 -1.270624,2.055915 -3.373348,1.701494 -3.373348,-0.568585 0,-1.452376 -0.996539,-1.767359 -3.810803,-1.204507 -3.094261,0.618853 -3.948259,0.236527 -4.54184,-2.033333 -0.448611,-1.71549 -1.809496,-2.795494 -3.522531,-2.795494 -2.088704,0 -2.791493,-0.839204 -2.791493,-3.333333 0,-2.074075 -0.755556,-3.333333 -2.0000003,-3.333333 -2.562258,0 -2.562258,-1.873515 0,-4.000001 2.4327003,-2.018962 2.6004433,-4.89412 0.3333333,-5.71342 -1.1108613,-0.401448 -0.4040413,-1.949524 2.119504,-4.642137 3.154115,-3.365428 3.543636,-4.49301 2.333334,-6.754482 -2.083624,-3.893285 -1.951325,-4.151084 3.244341,-6.321972 4.159696,-1.738032 4.529371,-2.276161 3.230663,-4.702819 -2.135023,-3.989326 -0.771216,-6.076844 4.632373,-7.090562 3.751598,-0.703804 4.777488,-1.524559 4.793536,-3.835026 0.03464,-4.986777 1.966695,-6.74216 6.436754,-5.848148 3.297474,0.659495 4.219894,0.309617 4.909158,-1.862063 0.570076,-1.796148 1.615526,-2.430777 3.184166,-1.93291 1.391356,0.4416 3.324763,-0.351972 4.782839,-1.963128 1.602828,-1.771106 3.347908,-2.418558 5.056834,-1.876166 1.435182,0.455509 3.034295,0.140738 3.553584,-0.699491 0.677384,-1.09603 1.960193,-1.141396 4.540002,-0.160554 3.200492,1.216825 3.734428,1.002615 4.856375,-1.948327 1.413258,-3.7171515 2.22667,-3.9210959 7.556624,-1.8946506 3.222497,1.2251916 4.068036,1.0120226 6.141229,-1.5482636 l 2.404212,-2.9690751 5.334795,2.9983221 c 5.063688,2.8459522 5.506823,2.8856052 8.719954,0.78028 4.373453,-2.8655978 6.694323,-1.8818748 7.837263,3.3219022 0.70899,3.228017 1.42327,3.971141 3.12573,3.251965 4.63615,-1.958462 8.20673,-2.217911 8.20673,-0.596321 0,1.148905 1.39175,1.376063 4.66667,0.761685 4.51975,-0.84791 4.66667,-0.74507 4.66667,3.266643 v 4.142115 l 6.213,-0.931697 c 6.59888,-0.989563 6.37944,-1.300528 3.71158,5.25974 -0.45362,1.115495 0.37023,2.115644 2.11955,2.573103 2.1818,0.570553 2.65351,1.40407 1.98556,3.508562 -0.7742,2.43931 -0.32304,2.760231 3.88045,2.760231 5.36344,0 5.75123,0.6909 2.4409,4.348771 -2.20247,2.433689 -2.19323,2.648257 0.18908,4.390236 1.37759,1.00732 3.16963,2.090901 3.9823,2.407959 0.82967,0.323686 0.11933,1.577152 -1.61975,2.858536 l -3.09735,2.282068 2.80843,2.989428 c 2.49367,2.654389 2.5793,3.179587 0.764,4.686141 -2.85394,2.368556 -2.60302,3.042622 2.13696,5.740771 3.91839,2.230472 4.03462,2.514121 1.96654,4.799326 -1.98616,2.194674 -2.00362,2.801465 -0.18116,6.296089 2.88826,5.538375 2.67458,5.867343 -3.81124,5.867343 -4.72316,0 -5.97829,0.511633 -6.54185,2.666667 -0.87278,3.33749 -5.16219,3.473572 -10.50695,0.333333 -3.80375,-2.23484 -4.04749,-2.229736 -5.77447,0.120928 -1.25501,1.708264 -2.67317,2.178107 -4.66558,1.545739 -1.96081,-0.622336 -3.39756,-0.176799 -4.56106,1.414392 -1.23802,1.693084 -1.96669,1.889076 -2.68746,0.72285 -0.76682,-1.240738 -1.43085,-1.233272 -2.95692,0.03325 -2.14043,1.776396 -8.32355,2.540196 -10.46123,1.292276 -0.73333,-0.4281 -2.734802,-0.810956 -4.447712,-0.850792 -2.80298,-0.06519 -3.053158,0.400536 -2.50209,4.657796 0.431092,3.33039 -0.565251,7.460795 -3.366777,13.957175 -3.083093,7.14932 -3.831172,10.53907 -3.32226,15.05412 0.854166,7.57814 4.323667,11.51531 9.274869,10.52507 2.033517,-0.40671 3.6973,-0.16931 3.6973,0.52754 0,0.78245 1.21004,0.80694 3.16404,0.064 1.89984,-0.72233 3.65358,-0.71343 4.38927,0.0223 0.67388,0.67388 7.20007,1.5537 14.50263,1.95515 7.30257,0.40147 16.5774,1.52079 20.61073,2.48739 l 7.33334,1.75745 -11.66667,-0.0529 c -6.79173,-0.0308 -11.66667,-0.60564 -11.66667,-1.37573 0,-0.72758 -1.5,0.0863 -3.33333,1.80865 -1.99478,1.874 -3.33334,2.44031 -3.33334,1.41024 z m -8.26666,-57.676914 c 1.7729,-1.772907 2.22113,-5.607926 0.53353,-4.564934 -0.58655,0.362511 -1.75071,-0.436532 -2.587,-1.775652 -1.28503,-2.057654 -1.14829,-2.337417 0.88285,-1.806264 1.67066,0.43689 2.64648,-0.301125 3.20078,-2.420765 0.94511,-3.614103 1.30873,-3.24492 -4.23749,-4.302329 -3.4909,-0.665556 -4.31851,-0.447823 -3.76642,0.9909 0.49558,1.291468 -0.0615,1.642778 -1.85935,1.172622 -1.4118,-0.369194 -2.5669,-0.02951 -2.5669,0.754843 0,3.669891 5.78976,13.551579 7.93998,13.551579 0.47301,0 1.58002,-0.72 2.46002,-1.6 z m 26.93333,-5.733334 c 0,-3.3 -0.55093,-6 -1.22428,-6 -0.67336,0 -2.06093,-0.321049 -3.08349,-0.713442 -2.67914,-1.028083 -2.38962,9.704162 0.30777,11.408739 3.42559,2.164744 4,1.490476 4,-4.695297 z m -14.66667,2.438322 c 0,-2.762392 -3.79353,-7.104988 -6.20665,-7.104988 -2.87253,0 -2.06817,4.98963 1.16999,7.257728 3.79536,2.658369 5.03666,2.620725 5.03666,-0.15274 z M 42.414036,73.25842 c 0.652386,-1.218994 0.775866,-2.880218 0.274398,-3.691609 -1.335147,-2.160314 -8.235507,4.195608 -8.235507,7.585724 0,2.650752 0.135685,2.672453 3.387476,0.541799 1.863112,-1.220758 3.921247,-3.216919 4.573633,-4.435914 z m 33.329821,-2.406001 c 0.04472,-4.569883 -1.046369,-5.377894 -3.690929,-2.733334 -1.688996,1.688997 -2.206898,9.348659 -0.731836,10.823721 1.546092,1.54609 4.379178,-3.636364 4.422765,-8.090387 z m 10.709071,2.138709 c 0,-0.689613 -1.174641,-0.603884 -2.666667,0.194624 -1.466666,0.784936 -2.646705,2.756047 -2.622308,4.380246 l 0.04436,2.953088 2.622307,-3.147712 c 1.442269,-1.731242 2.622308,-3.702352 2.622308,-4.380246 z m 65.290942,5.861291 c -0.0904,-2.131379 -3.69092,-5.666667 -5.77126,-5.666667 -2.56942,0 -2.99919,4.783122 -0.51968,5.783626 2.61409,1.054805 6.33769,0.985577 6.29094,-0.116959 z M 27.852474,76.484846 c 3.018481,-1.560918 3.933786,-2.956986 3.933786,-6 0,-2.227579 -0.730494,-4.011897 -1.666666,-4.071023 -1.333334,-0.08421 -1.333334,-0.239767 0,-0.777779 2.868072,-1.157292 1.82022,-3.116959 -1.666667,-3.116959 -1.833333,0 -3.342522,0.75 -3.353751,1.666667 -0.01503,1.226133 -0.323448,1.18842 -1.166872,-0.142683 -1.456735,-2.299037 -5.65144,-1.034565 -8.970199,2.704019 -2.487212,2.801847 -2.479996,2.820294 0.824155,2.107116 9.635115,-2.079672 12.526462,-2.453333 11.199606,-1.447375 -3.106891,2.355498 -6.101441,11.112257 -3.800059,11.112257 0.403084,0 2.503084,-0.915408 4.666667,-2.03424 z m 23.933787,-0.632427 c 1.095933,-2.047771 1.013986,-2.666667 -0.353088,-2.666667 -1.959783,0 -4.980246,2.587686 -4.980246,4.266667 0,2.165903 3.952474,0.98016 5.333334,-1.6 z M 94.20205,74.17044 c 0.308132,-1.6 -0.409891,-2.318021 -2.318023,-2.318021 -1.908132,0 -2.764432,0.8563 -2.764432,2.764432 0,3.416857 4.413105,3.029239 5.082455,-0.446411 z m 37.58421,1.066704 c 0,-1.8476 -10.19139,-5.637776 -11.53814,-4.29103 -1.05551,1.055508 6.46465,6.239638 9.05128,6.239638 1.36777,0 2.48686,-0.876873 2.48686,-1.948608 z M 21.119593,72.42132 c 0,-1.241652 -0.90716,-1.92183 -2.222845,-1.666666 -3.345025,0.648734 -3.804325,3.764432 -0.554932,3.764432 1.637783,0 2.777777,-0.860919 2.777777,-2.097766 z m 46.666668,-3.490408 c 0,-1.624683 -2.375769,-1.294531 -3.47422,0.482799 -0.635941,1.028975 -1.341305,0.54386 -2.068837,-1.422847 -0.84204,-2.276251 -1.976038,-2.883833 -4.780425,-2.561292 -2.919972,0.335835 -3.676518,1.108773 -3.676518,3.75618 0,2.99 0.515,3.31767 5,3.18125 2.854669,-0.08683 5.018195,0.485258 5.042404,1.333333 0.04718,1.652596 3.957596,-3.059972 3.957596,-4.769423 z m 33.165369,3.790563 c 1.13449,-1.366983 0.89999,-2.333264 -0.9789,-4.033639 -2.099339,-1.899875 -2.703426,-1.955707 -4.018296,-0.371387 -1.811978,2.183301 -0.638299,6.202637 1.81122,6.202637 0.931749,0 2.365436,-0.808926 3.185976,-1.797611 z M 51.013321,68.932862 c 1.124716,-1.605757 1.810125,-3.154369 1.523133,-3.441361 -1.083883,-1.083884 -6.083527,2.538616 -6.083527,4.40783 0,2.854617 2.21241,2.385748 4.560394,-0.966469 z m 30.106274,0.998246 c 0,-1.056721 -0.6,-2.292131 -1.333334,-2.745356 -0.733333,-0.453225 -1.333333,0.411365 -1.333333,1.921311 0,1.509945 0.6,2.745356 1.333333,2.745356 0.733334,0 1.333334,-0.864589 1.333334,-1.921311 z M 146.2005,68.275967 c 0.54811,-3.850058 -3.98404,-6.43773 -7.74757,-4.423548 -1.46667,0.784936 -2.66667,2.186046 -2.66667,3.113578 0,5.335523 9.66803,6.551629 10.41424,1.30997 z m -13.08091,1.15924 c 0,-0.596133 -1.80866,-2.816687 -4.01925,-4.934564 l -4.01925,-3.850687 3.68592,-3.033919 c 3.11212,-2.56162 3.37457,-3.243209 1.68592,-4.378352 -2.80567,-1.886017 -3.15905,-1.785627 -6.59732,1.87425 -2.4331,2.58991 -2.84677,4.027926 -2.01371,7 0.57666,2.057266 0.91836,4.2855 0.75936,4.951629 -0.159,0.666131 0.49257,1.706943 1.44795,2.312916 2.24694,1.425186 9.07038,1.469364 9.07038,0.05873 z M 41.119594,63.13884 c 0,-1.857343 -0.776622,-3.286421 -1.78598,-3.286421 -2.06946,0 -5.281734,6.272402 -4.150042,8.10352 1.406476,2.275725 5.936022,-1.400014 5.936022,-4.817099 z m 52.026954,3.329881 c 2.293807,-4.286016 0.418183,-7.949636 -4.069892,-7.949636 -4.793325,0 -7.434436,3.993822 -5.290395,8 1.880998,3.514677 7.468426,3.484614 9.360287,-0.05036 z m 25.039712,1.117031 c 0.88,-0.88 1.6,-2.358889 1.6,-3.286421 0,-2.28958 -4.65179,-4.624754 -7.23675,-3.632812 -2.08745,0.801033 -2.90045,5.937592 -1.2077,7.630344 1.41511,1.415107 5.1012,1.032136 6.84445,-0.711111 z m -11.96511,-2.847849 c 0.58508,-3.038079 -3.3847,-7.552151 -6.641539,-7.552151 -3.164913,0 -3.287827,4.875304 -0.208692,8.277711 2.703421,2.987249 6.206671,2.616194 6.850231,-0.72556 z M 67.786261,61.13884 c 0,-1.440865 -0.565977,-2.619755 -1.257728,-2.619755 -1.754191,0 -5.448307,5.52428 -4.605751,6.887563 1.179431,1.908359 5.863479,-1.500985 5.863479,-4.267808 z m 6,-0.619755 c 0,-2.077777 -0.75,-4.027777 -1.666667,-4.333333 -1.131313,-0.377104 -1.666666,1.014815 -1.666666,4.333333 0,3.318519 0.535353,4.710438 1.666666,4.333334 0.916667,-0.305556 1.666667,-2.255556 1.666667,-4.333334 z m -24.579012,1.953088 c 3.663544,-1.960668 3.361321,-5.582996 -0.420988,-5.045822 -1.927943,0.273812 -3.152256,1.498125 -3.426068,3.426068 -0.477243,3.360329 0.122746,3.612946 3.847056,1.619754 z m 86.579011,-1.350384 c 0,-1.802456 -2.6315,-2.901501 -4.88068,-2.03841 -1.6454,0.631398 -1.7522,1.203188 -0.50534,2.705562 1.5803,1.904142 5.38602,1.432738 5.38602,-0.667152 z m -77.333333,0.06396 c 0,-0.733333 -1.2,-1.333333 -2.666666,-1.333333 -1.466667,0 -2.666667,0.6 -2.666667,1.333333 0,0.733333 1.2,1.333333 2.666667,1.333333 1.466666,0 2.666666,-0.6 2.666666,-1.333333 z M 21.322552,57.152885 c -0.606071,-4.313752 -0.811251,-4.448987 -4.088764,-2.694916 -4.725014,2.528752 -2.895417,7.024242 2.552472,6.271664 1.315829,-0.18177 1.841372,-1.405324 1.536292,-3.576748 z m 10.247031,2.861663 c 0.980828,-0.621703 1.580828,-2.562516 1.333333,-4.312916 -0.359642,-2.543575 -1.249418,-3.182547 -4.431729,-3.182547 -4.424879,0 -6.080534,3.378495 -3.298435,6.730719 1.813748,2.185432 3.783902,2.420965 6.396831,0.764744 z m 49.314444,-1.939284 c 0.249425,-1.286097 -0.419778,-2.222845 -1.587978,-2.222845 -2.476981,0 -3.971943,2.173529 -2.799622,4.070381 1.206041,1.951417 3.868237,0.830416 4.3876,-1.847536 z m 62.126513,2.301169 c 3.28195,-1.2594 2.50261,-3.153932 -2.09212,-5.085872 l -4.20117,-1.766461 3.76938,-1.83584 c 5.25886,-2.561275 5.50434,-4.765908 0.6494,-5.832231 -2.82064,-0.619516 -5.16161,-0.226627 -7.40396,1.242619 -4.01669,2.631838 -4.16271,4.211696 -0.47832,5.175185 1.75867,0.459904 2.4315,1.330012 1.80824,2.338462 -0.59314,0.959712 0.29188,2.593624 2.19918,4.060096 3.75746,2.889022 3.13902,2.705726 5.74937,1.704042 z m -28.55761,-3.249416 c 0,-0.594578 -1.65,-2.385021 -3.66667,-3.978761 l -3.66667,-2.897708 -0.4401,3.65626 c -0.24206,2.010943 0.27436,4.097823 1.1476,4.637512 1.87232,1.157161 6.62584,0.14036 6.62584,-1.417303 z M 65.119594,55.852419 c 0,-0.733334 -0.664193,-1.333334 -1.475985,-1.333334 -0.811792,0 -1.111792,-0.9 -0.666667,-2 0.445126,-1.1 1.173512,-2.9 1.618638,-4 0.505049,-1.248085 0.05812,-2 -1.18879,-2 -1.09896,0 -2.360593,1.44426 -2.803632,3.209465 -0.443038,1.765207 -1.172277,4.165207 -1.620529,5.333334 -0.617136,1.608229 0.02891,2.123868 2.66098,2.123868 1.911792,0 3.475985,-0.6 3.475985,-1.333333 z M 47.043807,52.852418 c -0.507184,-1.65 -1.102401,-3.204784 -1.322702,-3.455074 -0.997866,-1.133703 -6.074186,1.557413 -7.316505,3.878708 -1.258574,2.351668 -0.901753,2.576367 4.091266,2.576367 5.057033,0 5.400461,-0.226539 4.547941,-3.000001 z m 47.409121,0.333334 c -1.615805,-3.019159 -4.042979,-3.423688 -6.4,-1.066667 -2.68796,2.68796 -1.816124,3.733334 3.113579,3.733334 4.300408,0 4.58848,-0.233748 3.286421,-2.666667 z m 28.257722,0.198552 c 0.95825,-1.357464 3.61957,-3.435272 5.91403,-4.617354 6.33119,-3.261746 7.97459,-8.914532 2.59169,-8.914532 -3.39873,0 -8.76344,5.504847 -8.76344,8.992354 0,1.461813 -1.1969,1.826332 -4.66667,1.421256 -4.82134,-0.562866 -6.03643,1.016633 -3.06667,3.986391 2.34819,2.348188 6.00074,1.95139 7.99106,-0.868115 z m -48.4744,-0.03643 c 0.980828,-0.621703 1.580828,-2.562516 1.333334,-4.312916 -0.336586,-2.380491 -1.28544,-3.182543 -3.765063,-3.182543 -3.770024,0 -5.194429,3.642902 -2.631768,6.730719 1.843839,2.221691 2.587708,2.334038 5.063497,0.764744 z m 29.55001,-2.828792 c 0,-3.615615 -0.41642,-4.003896 -4.333332,-4.040545 -3.767282,-0.03525 -4.00764,-0.229767 -1.84003,-1.489111 3.409302,-1.980744 0.518817,-3.755988 -6.15997,-3.78326 -6.025241,-0.0246 -6.455256,1.778577 -1,4.193308 2.2,0.973815 4,2.490083 4,3.369484 0,1.867008 5.152622,5.750124 7.630002,5.750124 1.0037,0 1.70333,-1.642976 1.70333,-4 z M 57.833449,50.370409 c 1.793965,-5.652284 -6.106292,-8.723345 -8.226598,-3.197919 -1.001818,2.610698 1.78184,6.013262 4.919486,6.013262 1.327456,0 2.815656,-1.266904 3.307112,-2.815343 z m 29.144952,-1.535336 c 1.517442,-2.405645 -0.990389,-6.315988 -4.050652,-6.315988 -2.347169,0 -5.087722,5.812959 -4.034516,8.557572 0.946142,2.465604 5.999735,1.064515 8.085168,-2.241584 z m -57.493969,0.445369 c 0.567328,-0.526734 -0.13276,-2.011345 -1.55575,-3.299134 -2.163222,-1.957688 -3.097115,-2.075892 -5.698173,-0.721223 -4.123362,2.147509 -3.959262,1.900784 -2.973244,4.470305 0.669926,1.7458 1.81407,2.060456 5.031384,1.3837 2.290354,-0.48177 4.628455,-1.306912 5.195783,-1.833648 z m 11.274124,-2.343044 c 0.838902,-2.519681 -5.72779,-6.114745 -9.172236,-5.021521 l -2.997176,0.951267 3.752175,3.227485 c 3.837984,3.301295 7.477376,3.665685 8.417237,0.842769 z m 82.173754,-2.41106 c 1.0381,-2.705245 -3.32828,-3.729873 -5.71611,-1.34136 -1.77942,1.779935 -1.81233,2.272967 -0.21752,3.258966 2.26933,1.403025 4.99775,0.521268 5.93363,-1.917606 z m -75.47876,-1.67392 c 0.34842,-1.046434 -0.726881,-1.666666 -2.889512,-1.666666 -3.365132,0 -4.384358,1.282308 -2.509463,3.157204 1.3717,1.3717 4.757167,0.437046 5.398975,-1.490538 z m 67.09213,0.22157 c 2.3633,-2.847604 0.0692,-6.423151 -4.47089,-6.968146 -4.29037,-0.515023 -7.43276,4.094627 -4.88446,7.165139 2.11028,2.54274 7.17,2.436199 9.35535,-0.196993 z M 62.98132,41.972874 c -0.437034,-1.138889 0.39746,-2.234609 2.117673,-2.780584 4.010127,-1.272765 2.869087,-5.239307 -1.657467,-5.761768 -3.350758,-0.386751 -3.655265,-0.04427 -3.655265,4.111111 0,4.512825 0.811131,6.310785 2.847043,6.310785 0.588096,0 0.744702,-0.845794 0.348016,-1.879544 z m 11.471608,-2.120456 c -1.5916,-2.973932 -3.377974,-3.418484 -4.758798,-1.184263 -0.974144,1.576198 1.618214,3.796506 4.472376,3.830513 1.30094,0.0155 1.369912,-0.62173 0.286422,-2.64625 z m 65.666662,0.810606 c 3.19388,-2.424502 2.92696,-3.747435 -0.65304,-3.236674 -1.64252,0.234337 -3.1865,1.476068 -3.4311,2.759402 -0.5258,2.758766 0.86461,2.921249 4.08414,0.477272 z M 55.786261,38.519085 c -0.784936,-1.466667 -2.006047,-2.666667 -2.713579,-2.666667 -1.884471,0 -1.571516,3.66274 0.380245,4.450292 3.19566,1.289478 3.750871,0.865068 2.333334,-1.783625 z M 34.452927,37.275602 c 0,-2.939097 -4.056416,-4.674829 -8,-3.423184 -2.62877,0.834339 -3.512842,3.376047 -1.777778,5.111111 0.488888,0.488889 2.888889,0.888889 5.333334,0.888889 3.503897,0 4.444444,-0.545313 4.444444,-2.576816 z m 14.666667,1.96209 c 0,-1.577675 -6.100361,-6.051941 -8.251415,-6.051941 -1.68738,0 -2.415252,1.00455 -2.415252,3.333334 0,3 0.533333,3.333333 5.333334,3.333333 2.933333,0 5.333333,-0.276626 5.333333,-0.614726 z m 32.458447,-2.769694 c -0.190537,-2.393453 -0.03519,-2.360807 1.829296,0.38442 2.036859,2.999034 6.255799,4.023267 7.601746,1.845479 0.392442,-0.634986 2.227853,-0.86504 4.078689,-0.51123 3.015752,0.576498 3.365156,0.211831 3.365156,-3.512146 0,-4.817231 -2.053365,-5.521594 -3.432178,-1.177334 l -0.945214,2.978102 -1.101672,-2.978102 c -1.170772,-3.1649 -6.934261,-4.212061 -8.574616,-1.557912 -0.573351,0.927699 -1.770959,0.611827 -3.453527,-0.910877 -2.395968,-2.168321 -2.729736,-2.177132 -4.780662,-0.1262 -1.924541,1.92454 -1.972023,2.639925 -0.373475,5.626839 2.096472,3.917293 6.099801,3.875068 5.786457,-0.06103 z m 43.541549,-2.61558 c 0,-5.887036 -3.44056,-6.416167 -4.28552,-0.659079 -0.64172,4.372323 -0.19278,5.325746 2.50775,5.325746 1.14285,0 1.77777,-1.666667 1.77777,-4.666667 z m 9.86383,1.588575 c 1.13349,-1.86004 1.00984,-2.774662 -0.5408,-4 -1.10566,-0.873716 -1.81393,-2.938575 -1.57393,-4.588575 0.32889,-2.261045 -0.22394,-3 -2.24434,-3 -3.26277,0 -4.9818,2.389627 -3.08414,4.287284 0.96213,0.962129 0.94373,2.100073 -0.0599,3.707203 -0.79651,1.275416 -1.0562,3.3405 -0.57707,4.589074 1.10697,2.884722 6.08987,2.271135 8.08021,-0.994986 z m -30.13049,0.144758 c 1.77157,-1.771578 2.23436,-15.733333 0.5215,-15.733333 -0.59317,0 -2.08828,0.75 -3.32247,1.666666 -1.81816,1.3504 -2.084286,2.994986 -1.40245,8.666667 0.87407,7.270755 1.5125,8.090918 4.20342,5.4 z M 58.452927,32.59469 c 0,-1.855437 -4.836797,-6.075605 -6.963341,-6.075605 -2.176375,0 -0.989084,6.483568 1.296675,7.080898 4.385273,1.145992 5.666666,0.918667 5.666666,-1.005293 z M 118.1991,32.185751 c -0.50078,-2.600329 -5.23173,-3.209996 -6.04218,-0.778642 -0.44902,1.347045 1.48292,2.406293 5.39377,2.957308 0.60377,0.08507 0.89556,-0.895332 0.64841,-2.178666 z m -44.532622,-0.13952 c 1.019322,-1.649297 -5.414686,-7.305573 -7.114846,-6.254816 -2.178607,1.346454 -1.711483,4.4324 0.901296,5.954204 2.889008,1.682694 5.287656,1.79874 6.21355,0.300612 z M 44.643941,29.835438 c 1.009224,-2.629995 -1.82808,-5.98302 -5.062787,-5.98302 -2.846272,0 -4.479803,2.958645 -3.312726,6 0.99956,2.604809 7.374398,2.591885 8.375513,-0.01697 z m 41.436151,-2.864512 c 0.253273,-0.759821 -0.677088,-2.786352 -2.067472,-4.503403 l -2.527968,-3.121909 -1.621257,3.029345 c -1.371359,2.562408 -1.245355,3.31382 0.817472,4.874931 2.647768,2.003784 4.673192,1.899135 5.399225,-0.278964 z m 9.663766,-1.451841 c -0.03991,-3.451001 -2.612515,-8.333334 -4.391009,-8.333334 -0.443353,0 -1.478614,1.256609 -2.30058,2.792465 -1.236428,2.310287 -0.974166,3.346315 1.51884,6.000001 3.914098,4.166365 5.224895,4.05002 5.172749,-0.459132 z m 19.287862,-2.173262 c -1.09645,-5.123308 -1.29541,-5.348699 -3.85462,-4.366636 -1.1919,0.457373 -2.05751,2.396483 -2.05751,4.609163 0,4.688335 0.73355,5.504596 4.14509,4.612457 2.20319,-0.576144 2.50519,-1.405905 1.76704,-4.854984 z m 9.84684,-0.700917 c 0.37965,-3.867188 0.0916,-4.288152 -2.66667,-3.897318 -3.55431,0.503628 -5.11129,6.094751 -2.20895,7.932369 2.90083,1.836662 4.42283,0.577058 4.87562,-4.035051 z m -59.66621,0.429081 c 2.368594,-2.853981 -0.01393,-6.554903 -4.21981,-6.554903 -3.264547,0 -4.781135,3.043452 -3.36089,6.744551 0.981669,2.558192 5.39176,2.447864 7.5807,-0.189648 z m 10.802256,-0.09488 c 3.093806,-2.799855 3.097042,-6.017775 0.0099,-9.830251 l -2.428452,-2.998999 -1.722602,4.158732 c -1.61842,3.907211 -1.0845,10.877162 0.833224,10.877162 0.478285,0 1.966854,-0.992992 3.30793,-2.206651 z M 55.151485,21.08527 c 1.054774,-3.3233 0.144742,-4.508427 -2.641054,-3.439416 -2.593378,0.995172 -2.717105,6.206564 -0.147354,6.206564 1.050582,0 2.305366,-1.245216 2.788408,-2.767148 z m 33.96811,-5.706557 c 1.777777,-3.193987 1.777777,-3.735396 0,-4.872682 -3.228839,-2.065563 -4.804895,-1.5406322 -6.492056,2.162284 -1.21941,2.676311 -1.222628,3.921319 -0.01391,5.37774 2.08739,2.515151 4.074931,1.700291 6.505962,-2.667342 z m 13.999995,0.473705 c 0,-2.443637 -0.80232,-3.447264 -3.00596,-3.760183 -1.803035,-0.256033 -3.327444,0.410932 -3.809315,1.666667 -1.327557,3.459561 0.533177,6.318913 3.809315,5.853698 2.20364,-0.31292 3.00596,-1.316545 3.00596,-3.760182 z"
     style="fill:#000000;stroke-width:1.33333337" />
</svg>
