<?xml version="1.0" encoding="UTF-8" standalone="no"?>
<svg
   xmlns:dc="http://purl.org/dc/elements/1.1/"
   xmlns:cc="http://creativecommons.org/ns#"
   xmlns:rdf="http://www.w3.org/1999/02/22-rdf-syntax-ns#"
   xmlns:svg="http://www.w3.org/2000/svg"
   xmlns="http://www.w3.org/2000/svg"
   version="1.1"
   id="svg941"
   width="166.66667"
   height="146.66667"
   viewBox="0 0 166.66667 146.66667">
  <metadata
     id="metadata947">
    <rdf:RDF>
      <cc:Work
         rdf:about="">
        <dc:format>image/svg+xml</dc:format>
        <dc:type
           rdf:resource="http://purl.org/dc/dcmitype/StillImage" />
        <dc:title></dc:title>
      </cc:Work>
    </rdf:RDF>
  </metadata>
  <defs
     id="defs945">
    <filter
       style="color-interpolation-filters:sRGB;"
       id="filter953">
      <feConvolveMatrix
         order="3 3"
         kernelMatrix="0 -0.15 0 -0.15 1.6 -0.15 0 -0.15 0"
         divisor="1"
         in="SourceGraphic"
         targetX="1"
         targetY="1"
         id="feConvolveMatrix951" />
    </filter>
  </defs>
  <path
     style="fill:#000000;stroke-width:1.07191384"
     d="m 98.91428,115.57042 c 0,-0.90853 -0.82831,-1.16573 -2.411805,-0.7489 -1.326494,0.34918 -4.947797,0.33861 -8.047337,-0.0235 -4.593686,-0.53667 -5.411635,-0.92819 -4.424386,-2.11774 1.518345,-1.82949 -0.334903,-1.99517 -3.481351,-0.31125 -3.032497,1.62295 -7.016223,-1.23201 -9.571154,-6.85921 -2.822193,-6.215835 -2.587702,-9.363025 1.241972,-16.668981 2.447657,-4.669442 3.308715,-7.727849 3.278375,-11.644536 -0.03937,-5.083423 0.140525,-5.413927 4.183876,-7.686418 4.451347,-2.501799 4.74463,-2.973711 3.282095,-5.281153 -0.737169,-1.16306 -1.752389,-1.00617 -5.343149,0.8257 -2.438185,1.243868 -4.433062,1.769414 -4.433062,1.16788 0,-1.584842 -2.7472,-1.341965 -4.166649,0.368368 -1.763923,2.125398 -9.709666,0.452045 -12.147187,-2.558166 -1.662252,-2.052795 -2.159886,-2.174745 -3.696939,-0.905976 -1.385956,1.144044 -1.875201,1.171772 -2.227101,0.126226 -0.478106,-1.420532 -4.569218,-1.902777 -4.546761,-0.535957 0.0074,0.442165 3.38779,2.170024 7.512277,3.839689 4.124487,1.669663 7.225425,3.478517 6.89097,4.019676 -0.334454,0.541158 0.356624,0.983924 1.535729,0.983924 1.179105,0 2.441943,0.482361 2.806307,1.071914 0.364363,0.589552 -0.330711,1.071914 -1.54461,1.071914 -1.213898,0 -2.207088,0.48236 -2.207088,1.071913 0,0.589553 0.936254,1.071914 2.080567,1.071914 1.144311,0 2.429343,0.564332 2.855626,1.254074 0.504681,0.816591 0.212386,1.038155 -0.837879,0.635131 -0.887117,-0.340419 -2.281127,-0.205981 -3.097803,0.298751 -1.146982,0.708875 -0.88095,1.158673 1.16912,1.97671 l 2.653981,1.059013 -2.947763,0.06795 c -3.179292,0.07329 -4.178477,2.180048 -1.071914,2.260112 1.14711,0.02958 0.626581,0.582901 -1.339893,1.42434 l -3.215741,1.375983 3.215741,1.170828 3.215742,1.170827 -2.884501,0.08462 c -4.037331,0.118452 -4.665609,1.837459 -1.141854,3.124197 l 2.954442,1.078841 -3.48372,0.08462 c -4.218912,0.102486 -4.699768,2.18857 -0.535957,2.325126 2.76036,0.09053 2.70925,0.166431 -0.803936,1.193844 l -3.751699,1.097163 2.679786,1.094976 2.679784,1.094975 -2.679784,0.745228 c -2.57662,0.71653 -2.535354,0.7806 1.071913,1.66411 l 3.751699,0.9189 -3.127311,0.6027 c -4.73257,0.91207 -4.664084,3.07337 0.113113,3.56958 3.707171,0.38508 3.589074,0.44649 -1.273455,0.66227 l -5.35957,0.23784 5.912789,1.89261 c 3.252032,1.04093 6.869743,2.4985 8.039354,3.23903 2.113004,1.33784 2.112893,1.34147 -0.01726,0.5687 -3.547951,-1.28713 -22.944041,-1.86987 -24.393601,-0.7329 -1.413255,1.10849 -4.441614,0.9629 -13.123382,-0.63091 l -5.35957,-0.98392 5.564287,-0.12608 c 3.060357,-0.0694 5.882724,-0.64132 6.271929,-1.27107 0.389204,-0.62975 1.434049,-0.86624 2.321877,-0.52555 2.684214,1.03003 9.623563,-1.40742 11.293547,-3.96686 0.861968,-1.32108 1.803606,-4.81376 2.092528,-7.761527 0.288921,-2.947758 1.857326,-8.49492 3.485343,-12.327015 4.512669,-10.622094 4.568243,-12.032421 0.605539,-15.366816 -3.733648,-3.141659 -8.588906,-3.847057 -8.588906,-1.247844 0,2.131647 -3.095753,2.048725 -5.523039,-0.147938 -1.600541,-1.448469 -2.230972,-1.514442 -3.601626,-0.3769 -1.381739,1.14674 -1.90454,1.046502 -3.105088,-0.595347 -1.367843,-1.870634 -1.540819,-1.87704 -3.295804,-0.122056 -1.369053,1.369055 -2.217089,1.549362 -3.25107,0.691233 -0.969832,-0.80489 -1.611929,-0.816239 -2.093524,-0.037 -1.0215,1.652823 -2.711954,1.367891 -2.711954,-0.457106 0,-1.167616 -0.801152,-1.420842 -3.063639,-0.968346 -2.487586,0.497518 -3.174145,0.190152 -3.651345,-1.634668 -0.360655,-1.379142 -1.454719,-2.247396 -2.831888,-2.247396 -1.679183,0 -2.24418,-0.674666 -2.24418,-2.679785 0,-1.667421 -0.607418,-2.679784 -1.6078705,-2.679784 -2.0598897,0 -2.0598897,-1.506184 0,-3.215742 1.9557335,-1.623114 2.0905885,-3.934556 0.2679785,-4.59322 -0.8930607,-0.322738 -0.3248232,-1.567291 1.703945,-3.731978 2.535703,-2.705587 2.848853,-3.612089 1.875849,-5.430166 -1.6751,-3.129951 -1.56874,-3.337203 2.60824,-5.082458 3.344127,-1.397265 3.641321,-1.829886 2.597244,-3.780762 -1.71642,-3.20716 -0.620008,-4.885389 3.724129,-5.700353 3.016042,-0.565813 3.840791,-1.225647 3.853693,-3.083113 0.02785,-4.009046 1.581095,-5.420261 5.174734,-4.701533 2.650956,0.530191 3.392521,0.248912 3.946646,-1.496978 0.458304,-1.443987 1.298778,-1.954187 2.559862,-1.553935 1.118561,0.355019 2.672895,-0.282963 3.845094,-1.578228 1.28857,-1.423854 2.691502,-1.944364 4.065368,-1.508316 1.153793,0.366199 2.439377,0.113147 2.856851,-0.562346 0.544574,-0.881137 1.575869,-0.917608 3.649869,-0.129075 2.572988,0.978249 3.002239,0.806038 3.904211,-1.5663285 1.136168,-2.9883495 1.790098,-3.1523075 6.075037,-1.5231765 2.59068,0.9849747 3.270438,0.8136006 4.937151,-1.2447039 l 1.932831,-2.3869444 4.288831,2.4104571 c 4.070877,2.2879615 4.427129,2.31984 7.010279,0.6272946 3.515973,-2.3037553 5.381802,-1.5129056 6.300652,2.6705946 0.569982,2.595117 1.144217,3.19254 2.512885,2.614369 3.727165,-1.574476 6.597681,-1.783056 6.597681,-0.479403 0,0.923645 1.118877,1.106265 3.7517,0.612345 3.633587,-0.681664 3.751707,-0.598987 3.751707,2.626171 v 3.329991 l 4.99485,-0.749023 c 5.30508,-0.795545 5.12867,-1.045541 2.98387,4.228491 -0.36469,0.896786 0.29764,1.700841 1.70398,2.068608 1.75403,0.458688 2.13325,1.128781 1.59626,2.820657 -0.6224,1.961047 -0.2597,2.219047 3.11964,2.219047 4.31186,0 4.62361,0.55544 1.96233,3.496131 -1.77065,1.956528 -1.76324,2.129027 0.152,3.529466 1.1075,0.80982 2.54817,1.680949 3.20152,1.935843 0.66699,0.260222 0.096,1.267929 -1.30218,2.298078 l -2.49007,1.834636 2.25779,2.403306 c 2.00475,2.133958 2.07359,2.556182 0.61422,3.767355 -2.2944,1.904166 -2.09267,2.446071 1.71796,4.615209 3.15014,1.793155 3.24358,2.02119 1.58097,3.858347 -1.59674,1.764377 -1.61078,2.252197 -0.14564,5.061648 2.32197,4.452495 2.15019,4.716965 -3.064,4.716965 -3.7971,0 -4.80616,0.41132 -5.25922,2.143828 -0.70166,2.683126 -4.15005,2.792527 -8.44691,0.267978 -3.05797,-1.796667 -3.25391,-1.792564 -4.6423,0.09722 -1.00894,1.373334 -2.14905,1.751058 -3.750818,1.242674 -1.576364,-0.500317 -2.731418,-0.142135 -3.666797,1.13708 -0.995288,1.36113 -1.581092,1.518695 -2.160544,0.581125 -0.616473,-0.997474 -1.15031,-0.991471 -2.377172,0.02673 -1.720767,1.428108 -6.691596,2.042153 -8.410153,1.038906 -0.589557,-0.344183 -2.198612,-0.651974 -3.575681,-0.684 -2.253414,-0.05241 -2.454541,0.322006 -2.011518,3.744567 0.34657,2.677418 -0.454425,5.997997 -2.706671,11.220667 -2.478608,5.74759 -3.080014,8.47273 -2.670882,12.102543 0.686694,6.09233 3.475948,9.25756 7.456395,8.46147 1.634816,-0.32696 2.97239,-0.13611 2.97239,0.42411 0,0.62904 0.972794,0.64873 2.543683,0.0515 1.527349,-0.58071 2.937243,-0.57355 3.528689,0.0179 0.541756,0.54176 5.788391,1.24908 11.659179,1.57182 5.8708,0.32275 13.32715,1.22261 16.5697,1.9997 l 5.89552,1.41287 -9.37925,-0.0425 c -5.46011,-0.0248 -9.37925,-0.4869 -9.37925,-1.106 0,-0.58492 -1.2059,0.0693 -2.67977,1.45403 -1.603679,1.50658 -2.679795,1.96186 -2.679795,1.13375 z M 92.268421,69.201913 c 1.425297,-1.425302 1.785645,-4.50841 0.428923,-3.669911 -0.471549,0.291434 -1.407457,-0.350945 -2.079781,-1.42751 -1.033081,-1.65422 -0.923151,-1.879132 0.709755,-1.45212 1.343102,0.351232 2.127598,-0.242085 2.57322,-1.946138 0.759807,-2.905505 1.052134,-2.608706 -3.406668,-3.458795 -2.806458,-0.535063 -3.471803,-0.36002 -3.027959,0.79662 0.398415,1.038257 -0.04944,1.320687 -1.494797,0.942712 -1.134995,-0.296808 -2.063621,-0.02372 -2.063621,0.606846 0,2.950354 4.654592,10.894592 6.383231,10.894592 0.380269,0 1.270233,-0.578833 1.977697,-1.286296 z m 21.652649,-4.60923 c 0,-2.652987 -0.44291,-4.823612 -0.98424,-4.823612 -0.54134,0 -1.65685,-0.258102 -2.47892,-0.573561 -2.15386,-0.826512 -1.9211,7.801518 0.24742,9.171888 2.75396,1.740315 3.21574,1.198246 3.21574,-3.774715 z m -11.79105,1.960253 c 0,-2.220785 -3.049751,-5.71195 -4.989743,-5.71195 -2.309329,0 -1.662675,4.011339 0.940596,5.834744 3.051227,2.137156 4.049147,2.106893 4.049147,-0.122794 z M 35.640104,59.827491 c 0.524477,-0.979992 0.623746,-2.315508 0.220599,-2.967814 -1.073372,-1.736753 -6.620816,3.372997 -6.620816,6.098432 0,2.131032 0.109079,2.148479 2.723312,0.43557 1.497822,-0.98141 3.152429,-2.586194 3.676905,-3.566188 z m 26.795021,-1.934269 c 0.03595,-3.673891 -0.841213,-4.323479 -2.967268,-2.197424 -1.357843,1.357845 -1.774203,7.515718 -0.588348,8.701572 1.242957,1.242956 3.520575,-2.923401 3.555616,-6.504148 z m 8.6094,1.719384 c 0,-0.554405 -0.944335,-0.485483 -2.143827,0.156465 -1.179104,0.631037 -2.12778,2.215683 -2.108166,3.521435 l 0.03567,2.374091 2.108165,-2.530557 c 1.159491,-1.391806 2.108166,-2.976452 2.108166,-3.521434 z m 52.489695,4.712099 c -0.0726,-1.713491 -2.96725,-4.555634 -4.63972,-4.555634 -2.06565,0 -2.41115,3.845321 -0.41779,4.649662 2.10156,0.847995 5.09509,0.792339 5.05751,-0.09403 z M 23.93355,62.42133 c 2.426663,-1.254877 3.16251,-2.377226 3.16251,-4.823612 0,-1.79083 -0.58727,-3.225306 -1.339892,-3.27284 -1.071914,-0.0677 -1.071914,-0.192757 0,-0.625284 2.305745,-0.930388 1.463339,-2.505833 -1.339893,-2.505833 -1.47388,0 -2.687172,0.602951 -2.696199,1.339893 -0.01208,0.98573 -0.260031,0.955412 -0.938089,-0.114709 -1.17112,-1.848277 -4.543392,-0.831723 -7.21146,2.173857 -1.999558,2.252503 -1.993756,2.267334 0.662567,1.693984 7.74601,-1.671921 10.070465,-1.972321 9.003759,-1.163596 -2.497739,1.893668 -4.905164,8.933536 -3.055002,8.933536 0.324055,0 2.012319,-0.735928 3.751699,-1.635396 z m 19.241217,-0.508431 c 0.88106,-1.646276 0.815179,-2.143828 -0.28386,-2.143828 -1.575539,0 -4.003795,2.080332 -4.003795,3.430125 0,1.741246 3.177533,0.787985 4.287655,-1.286297 z m 34.099552,-1.352202 c 0.247718,-1.286297 -0.329526,-1.863539 -1.863541,-1.863539 -1.534015,0 -2.222424,0.688409 -2.222424,2.222424 0,2.746932 3.54785,2.435312 4.085965,-0.358885 z m 30.215271,0.857561 c 0,-1.485352 -8.193215,-4.532408 -9.275915,-3.449712 -0.848561,0.848561 5.197165,5.016266 7.276645,5.016266 1.0996,0 1.99927,-0.704949 1.99927,-1.566554 z M 18.520749,59.154517 c 0,-0.998208 -0.729298,-1.545027 -1.787023,-1.339892 -2.689184,0.52154 -3.058431,3.026361 -0.44613,3.026361 1.316671,0 2.233153,-0.692123 2.233153,-1.686469 z m 37.516983,-2.806063 c 0,-1.30614 -1.909964,-1.040718 -2.793048,0.38814 -0.511255,0.82723 -1.078322,0.437228 -1.663211,-1.143877 -0.676946,-1.829959 -1.588606,-2.318416 -3.843152,-2.059113 -2.347469,0.269989 -2.955683,0.891382 -2.955683,3.019725 0,2.403767 0.414026,2.667193 4.019677,2.55752 2.294969,-0.0698 4.034304,0.390116 4.053767,1.071913 0.03793,1.328581 3.18165,-2.460019 3.18165,-3.834308 z m 26.662813,3.047369 c 0.912057,-1.098967 0.723534,-1.875794 -0.786973,-3.242786 -1.687732,-1.527376 -2.173379,-1.572261 -3.230449,-0.298571 -1.456714,1.755233 -0.513152,4.98652 1.456104,4.98652 0.749065,0 1.901657,-0.650325 2.561318,-1.445163 z M 42.553373,56.350022 c 0.904199,-1.290924 1.455224,-2.535909 1.224501,-2.766631 -0.871372,-0.871373 -4.890762,2.040883 -4.890762,3.54361 0,2.294928 1.778634,1.917987 3.666261,-0.776979 z m 24.203498,0.802526 c 0,-0.849536 -0.482361,-1.842726 -1.071914,-2.207089 -0.589552,-0.364364 -1.071914,0.330711 -1.071914,1.544609 0,1.213899 0.482362,2.20709 1.071914,2.20709 0.589553,0 1.071914,-0.695074 1.071914,-1.54461 z m 52.320839,-1.330626 c 0.44064,-3.095198 -3.20291,-5.17552 -6.22854,-3.556247 -1.17911,0.631038 -2.14384,1.757439 -2.14384,2.503115 0,4.289416 7.77248,5.267086 8.37238,1.053132 z m -10.5162,0.931953 c 0,-0.479252 -1.45405,-2.264434 -3.23122,-3.96707 l -3.23122,-3.095704 2.96324,-2.439074 c 2.50194,-2.059376 2.71294,-2.607331 1.35537,-3.519912 -2.25558,-1.516236 -2.53967,-1.435529 -5.30382,1.506775 -1.956051,2.082121 -2.288615,3.238193 -1.618889,5.627548 0.463597,1.653909 0.738299,3.445265 0.610479,3.98079 -0.127828,0.535526 0.39599,1.372272 1.16406,1.859434 1.80639,1.145758 7.292,1.181275 7.292,0.04721 z M 34.599457,51.692003 c 0,-1.493184 -0.624354,-2.64207 -1.435813,-2.64207 -1.663711,0 -4.246173,5.042606 -3.336365,6.514706 1.130715,1.829536 4.772178,-1.12552 4.772178,-3.872636 z m 41.826307,2.67701 c 1.844072,-3.44568 0.336192,-6.390994 -3.27193,-6.390994 -3.853524,0 -5.976806,3.210775 -4.253136,6.431483 1.512201,2.825573 6.004132,2.801405 7.525066,-0.04049 z m 20.130309,0.898021 c 0.707463,-0.707463 1.286297,-1.896395 1.286297,-2.642071 0,-1.840674 -3.739739,-3.718003 -5.81788,-2.920546 -1.678174,0.643979 -2.331774,4.77344 -0.970913,6.134304 1.137658,1.137654 4.101036,0.82977 5.502496,-0.571687 z m -9.619174,-2.289487 c 0.470366,-2.442419 -2.72108,-6.071441 -5.339369,-6.071441 -2.544385,0 -2.6432,3.919429 -0.167774,6.654744 2.173376,2.401555 4.989762,2.103251 5.507143,-0.583303 z M 56.037732,50.084133 c 0,-1.158363 -0.455008,-2.106114 -1.011132,-2.106114 -1.410256,0 -4.380086,4.441164 -3.702725,5.537155 0.948186,1.534197 4.713857,-1.206694 4.713857,-3.431041 z m 4.823612,-0.498243 c 0,-1.670399 -0.60295,-3.238072 -1.339891,-3.483719 -0.909504,-0.303168 -1.339893,0.815845 -1.339893,3.483719 0,2.667875 0.430389,3.786888 1.339893,3.48372 0.736941,-0.245647 1.339891,-1.813321 1.339891,-3.48372 z m -19.759936,1.570157 c 2.945253,-1.576251 2.702286,-4.488368 -0.338447,-4.056515 -1.549941,0.220127 -2.534209,1.204396 -2.754337,2.754337 -0.383673,2.701487 0.09868,2.904575 3.092784,1.302178 z m 69.603922,-1.085622 c 0,-1.449058 -2.11555,-2.332619 -3.92375,-1.638749 -1.32279,0.507602 -1.40865,0.967285 -0.40626,2.175096 1.27046,1.530807 4.33001,1.151829 4.33001,-0.536347 z m -62.170995,0.05142 c 0,-0.589553 -0.964722,-1.071913 -2.143826,-1.071913 -1.179106,0 -2.143828,0.48236 -2.143828,1.071913 0,0.589552 0.964722,1.071914 2.143828,1.071914 1.179104,0 2.143826,-0.482362 2.143826,-1.071914 z m -29.85042,-3.242162 c -0.487241,-3.467977 -0.652194,-3.576697 -3.287102,-2.166538 -3.798606,2.032953 -2.327727,5.647036 2.052023,5.042012 1.057841,-0.146131 1.480344,-1.129789 1.235079,-2.875474 z m 8.237951,2.300592 c 0.788521,-0.499809 1.270883,-2.060097 1.071913,-3.467305 -0.289129,-2.04487 -1.004451,-2.558562 -3.562824,-2.558562 -3.557316,0 -4.888356,2.716091 -2.651728,5.411062 1.458136,1.756947 3.042013,1.9463 5.142639,0.614805 z M 66.56749,47.621221 c 0.200522,-1.03394 -0.337474,-1.787024 -1.276632,-1.787024 -1.991332,0 -3.193185,1.747376 -2.250715,3.272323 0.969579,1.568813 3.109813,0.667601 3.527347,-1.485299 z m 49.9457,1.849991 c 2.63848,-1.012477 2.01194,-2.535558 -1.68193,-4.088713 l -3.37747,-1.42012 3.03034,-1.475896 c 4.22779,-2.0591 4.42513,-3.831483 0.52207,-4.688737 -2.26761,-0.498051 -4.1496,-0.182193 -5.9523,0.998985 -3.22916,2.115827 -3.34655,3.385931 -0.38454,4.160514 1.41386,0.369732 1.95477,1.069243 1.45371,1.879972 -0.47685,0.771547 0.23465,2.085106 1.768,3.264054 3.02076,2.322587 2.52357,2.175229 4.62212,1.369941 z M 93.554717,46.858886 c 0,-0.478002 -1.326494,-1.917402 -2.947765,-3.198666 l -2.947766,-2.32957 -0.353812,2.939396 c -0.1946,1.616668 0.220567,3.294385 0.922597,3.72826 1.505223,0.930283 5.326746,0.112841 5.326746,-1.13942 z M 53.893905,45.834193 c 0,-0.589554 -0.533968,-1.071915 -1.186596,-1.071915 -0.652629,0 -0.89381,-0.723541 -0.535958,-1.607871 0.357853,-0.884329 0.943428,-2.331412 1.30128,-3.215742 0.406027,-1.003379 0.04672,-1.60787 -0.95571,-1.60787 -0.883492,0 -1.897764,1.161092 -2.253939,2.580203 -0.356174,1.419112 -0.942434,3.348556 -1.3028,4.287655 -0.496137,1.292912 0.02325,1.707453 2.139256,1.707453 1.536957,0 2.794467,-0.482362 2.794467,-1.071913 z M 39.362141,43.422386 c -0.407743,-1.326494 -0.88626,-2.57644 -1.063367,-2.777657 -0.80222,-0.911423 -4.883253,1.25206 -5.881997,3.11823 -1.011812,1.89059 -0.724951,2.071234 3.289114,2.071234 4.065528,0 4.341621,-0.182124 3.65625,-2.411807 z m 38.113867,0.267978 c -1.299003,-2.427208 -3.250293,-2.752424 -5.145186,-0.857531 -2.160946,2.160946 -1.460046,3.00136 2.503116,3.00136 3.457251,0 3.688842,-0.187919 2.64207,-2.143829 z m 22.717382,0.159623 c 0.77037,-1.091313 2.9099,-2.761737 4.7545,-3.712054 5.08986,-2.622233 6.41105,-7.166707 2.08355,-7.166707 -2.73236,0 -7.045241,4.42554 -7.045241,7.229271 0,1.175204 -0.96223,1.468253 -3.7517,1.142598 -3.876046,-0.452508 -4.8529,0.817308 -2.465404,3.204801 1.887792,1.887791 4.824206,1.568791 6.424295,-0.697909 z M 61.223107,43.8207 c 0.788523,-0.499809 1.270883,-2.060097 1.071914,-3.467306 -0.270593,-1.913761 -1.033411,-2.558559 -3.026867,-2.558559 -3.030856,0 -4.175985,2.928658 -2.115772,5.411063 1.482328,1.786096 2.080351,1.876416 4.070725,0.614805 z m 23.756297,-2.274166 c 0,-2.906721 -0.334775,-3.218873 -3.483719,-3.248337 -3.028651,-0.02833 -3.221884,-0.184717 -1.479264,-1.197149 2.740857,-1.59239 0.417094,-3.019571 -4.952219,-3.041496 -4.843904,-0.01978 -5.189608,1.42986 -0.803935,3.371148 1.768658,0.782884 3.215741,2.001866 3.215741,2.708848 0,1.500953 4.142375,4.622728 6.134029,4.622728 0.80691,0 1.369367,-1.320847 1.369367,-3.215742 z M 48.036315,41.42701 c 1.442232,-4.544071 -4.909063,-7.013005 -6.613652,-2.57092 -0.805398,2.098833 1.432484,4.834274 3.954949,4.834274 1.067188,0 2.263605,-1.018509 2.658703,-2.263354 z m 23.430657,-1.234311 c 1.219926,-1.933982 -0.796208,-5.077645 -3.256462,-5.077645 -1.886973,0 -4.0902,4.673243 -3.24349,6.879735 0.760637,1.982185 4.823399,0.855801 6.499952,-1.80209 z m -46.221434,0.358048 c 0.456096,-0.42346 -0.106734,-1.616991 -1.250721,-2.65229 -1.739091,-1.573854 -2.489881,-1.668883 -4.580964,-0.579817 -3.314916,1.726459 -3.18299,1.528108 -2.390296,3.593836 0.538579,1.403511 1.458396,1.656474 4.044908,1.112406 1.841297,-0.387312 3.720979,-1.050673 4.177073,-1.474135 z m 9.063668,-1.883655 c 0.674422,-2.025661 -4.604774,-4.91586 -7.373885,-4.036979 l -2.409536,0.764758 3.016506,2.594689 c 3.085491,2.654027 6.011327,2.946973 6.766915,0.677532 z m 66.062384,-1.938336 c 0.83457,-2.174843 -2.675722,-2.998577 -4.595383,-1.078368 -1.430538,1.430954 -1.456995,1.827319 -0.174871,2.619998 1.824395,1.127942 4.017867,0.419066 4.770254,-1.54163 z M 39.691548,35.383032 c 0.280107,-0.841265 -0.584365,-1.339892 -2.322981,-1.339892 -2.705349,0 -3.52474,1.030893 -2.017446,2.538188 1.102758,1.102758 3.824455,0.351357 4.340427,-1.198296 z m 53.937734,0.178128 c 1.89994,-2.28929 0.05563,-5.163799 -3.594306,-5.601939 -3.449181,-0.414045 -5.975458,3.291816 -3.926791,5.760308 1.696529,2.044199 5.764216,1.958547 7.521097,-0.158369 z M 52.174871,34.675936 c -0.351348,-0.915594 0.319532,-1.796481 1.702471,-2.23541 3.223884,-1.023222 2.306561,-4.212064 -1.332495,-4.63209 -2.693793,-0.310922 -2.938597,-0.03559 -2.938597,3.305068 0,3.62802 0.652097,5.073463 2.288839,5.073463 0.472791,0 0.598692,-0.679963 0.279782,-1.511031 z m 9.222431,-1.70471 c -1.279543,-2.390849 -2.715672,-2.74824 -3.825766,-0.952071 -0.783148,1.267161 1.300939,3.052146 3.595501,3.079485 1.045871,0.01246 1.101321,-0.499831 0.230265,-2.127414 z m 52.791748,0.651675 c 2.56768,-1.949143 2.35309,-3.012696 -0.52499,-2.602077 -1.32049,0.188391 -2.56175,1.186664 -2.75839,2.218381 -0.42271,2.217869 0.69509,2.348495 3.28338,0.383696 z M 46.390509,31.899313 c -0.631038,-1.179106 -1.612732,-2.143829 -2.181542,-2.143829 -1.514993,0 -1.263398,2.944606 0.305692,3.577747 2.569104,1.036658 3.015457,0.69546 1.87585,-1.433918 z M 29.239887,30.899632 c 0,-2.362843 -3.261095,-3.75826 -6.431483,-2.752018 -2.11336,0.670755 -2.824097,2.714124 -1.429218,4.109002 0.393035,0.393036 2.32248,0.71461 4.287656,0.71461 2.816907,0 3.573045,-0.438396 3.573045,-2.071594 z m 11.791052,1.577394 c 0,-1.268349 -4.904296,-4.86537 -6.633604,-4.86537 -1.356545,0 -1.941706,0.807594 -1.941706,2.679786 0,2.411806 0.428765,2.679784 4.287655,2.679784 2.35821,0 4.287655,-0.22239 4.287655,-0.4942 z m 26.094493,-2.226655 c -0.153179,-1.924181 -0.02829,-1.897936 1.470636,0.309049 1.637503,2.411029 5.029258,3.234447 6.111312,1.483646 0.315498,-0.510487 1.79105,-0.695436 3.279002,-0.410996 2.42447,0.463466 2.705368,0.170298 2.705368,-2.823538 0,-3.872743 -1.650773,-4.439005 -2.759249,-0.946501 l -0.759891,2.394201 -0.885673,-2.394201 c -0.941225,-2.544375 -5.574698,-3.386225 -6.893437,-1.25246 -0.460937,0.745809 -1.423736,0.491869 -2.776413,-0.732287 -1.926202,-1.743189 -2.194531,-1.750273 -3.843343,-0.101455 -1.547206,1.547206 -1.585378,2.122329 -0.30025,4.523615 1.685429,3.14925 4.903847,3.115303 4.651938,-0.04907 z m 35.004588,-2.102757 c 0,-4.732796 -2.765986,-5.158184 -3.44528,-0.529857 -0.515901,3.515064 -0.154982,4.281556 2.01607,4.281556 0.91878,0 1.42921,-1.339893 1.42921,-3.751699 z m 7.92988,1.277111 c 0.91126,-1.495352 0.81185,-2.230648 -0.43476,-3.215741 -0.88888,-0.702411 -1.45829,-2.362424 -1.26534,-3.688918 0.2644,-1.817734 -0.18004,-2.411805 -1.80431,-2.411805 -2.62305,0 -4.00504,1.921105 -2.47945,3.446699 0.77349,0.773489 0.7587,1.688323 -0.0482,2.980351 -0.64034,1.025352 -0.84911,2.685546 -0.46392,3.689319 0.88993,2.319129 4.89586,1.825846 6.49596,-0.799905 z m -24.222962,0.116377 c 1.424228,-1.424235 1.796281,-12.648583 0.419252,-12.648583 -0.476871,0 -1.678842,0.602951 -2.671051,1.339892 -1.461683,1.085634 -1.675631,2.407775 -1.127479,6.96744 0.702696,5.845216 1.215952,6.504575 3.379278,4.341251 z m -37.302603,-2.40462 c 0,-1.491652 -3.888471,-4.884394 -5.598075,-4.884394 -1.749665,0 -0.795159,5.212369 1.042443,5.692584 3.525476,0.921304 4.555632,0.73855 4.555632,-0.80819 z m 48.032061,-0.32876 c -0.402595,-2.090497 -4.205974,-2.58063 -4.857523,-0.625978 -0.360982,1.082937 1.192173,1.934504 4.336243,2.377484 0.485392,0.06839 0.719972,-0.719789 0.52128,-1.751506 z M 60.765047,26.695561 c 0.819469,-1.325928 -4.353058,-5.873209 -5.719876,-5.028468 -1.751459,1.082462 -1.375922,3.563363 0.724583,4.786795 2.322576,1.352778 4.250934,1.446071 4.995293,0.241673 z M 37.432804,24.918222 c 0.811351,-2.114347 -1.469658,-4.809961 -4.070154,-4.809961 -2.288218,0 -3.601472,2.378558 -2.663217,4.823611 0.803581,2.094099 5.928539,2.083709 6.733371,-0.01364 z M 70.74479,22.61534 c 0.203615,-0.610848 -0.544335,-2.240047 -1.662114,-3.620446 l -2.032323,-2.509813 -1.303386,2.435398 c -1.102483,2.06001 -1.001185,2.664097 0.657195,3.919129 2.128635,1.610913 3.756944,1.526782 4.340628,-0.224268 z m 7.769042,-1.167187 c -0.03208,-2.774382 -2.100292,-6.699462 -3.530086,-6.699462 -0.356427,0 -1.18871,1.010233 -1.849518,2.244962 -0.994008,1.857321 -0.783166,2.69022 1.221049,4.823612 3.146682,3.349488 4.200478,3.255955 4.158555,-0.369112 z m 15.506195,-1.747162 c -0.881475,-4.118809 -1.041426,-4.300009 -3.098865,-3.510493 -0.95821,0.367699 -1.654105,1.926618 -1.654105,3.705469 0,3.769118 0.589726,4.425339 3.332384,3.708117 1.771222,-0.463182 2.014011,-1.130256 1.420586,-3.903093 z m 7.916223,-0.563492 c 0.30521,-3.108969 0.0736,-3.447397 -2.143831,-3.133192 -2.857435,0.404884 -4.109147,4.899786 -1.775852,6.377112 2.332083,1.476557 3.555673,0.463917 3.919683,-3.24392 z m -47.967775,0.344953 c 1.904196,-2.294416 -0.01122,-5.269718 -3.392454,-5.269718 -2.624486,0 -3.843724,2.446738 -2.701939,5.422183 0.789199,2.056621 4.334627,1.967924 6.094393,-0.152465 z m 8.684315,-0.07628 c 2.487219,-2.250901 2.489822,-4.837901 0.0079,-7.902886 L 60.70843,9.0922874 59.32357,12.435639 c -1.301105,3.141145 -0.871868,8.744535 0.669858,8.744535 0.384511,0 1.581224,-0.798301 2.659362,-1.774005 z M 45.88019,17.88365 c 0.84797,-2.671718 0.116362,-3.624483 -2.123237,-2.765069 -2.084908,0.800055 -2.184376,4.989677 -0.118463,4.989677 0.8446,0 1.853365,-1.001073 2.2417,-2.224608 z m 27.308164,-4.5877 c 1.429217,-2.567759 1.429217,-3.003017 0,-3.9173217 -2.595778,-1.6605791 -3.862825,-1.2385686 -5.219194,1.7383367 -0.980326,2.151581 -0.982913,3.152487 -0.01122,4.323355 1.678127,2.022019 3.27598,1.366925 5.230373,-2.14437 z m 11.25509,0.380828 c 0,-1.964527 -0.645013,-2.771378 -2.416597,-3.022944 -1.449524,-0.205834 -2.67505,0.330362 -3.062443,1.339892 -1.06727,2.781264 0.42864,5.079998 3.062443,4.705995 1.771584,-0.251568 2.416597,-1.058417 2.416597,-3.022943 z"
     id="path955" />
</svg>
