<?xml version="1.0" encoding="UTF-8" standalone="no"?>
<!-- Created with Inkscape (http://www.inkscape.org/) -->

<svg
   xmlns:dc="http://purl.org/dc/elements/1.1/"
   xmlns:cc="http://creativecommons.org/ns#"
   xmlns:rdf="http://www.w3.org/1999/02/22-rdf-syntax-ns#"
   xmlns:svg="http://www.w3.org/2000/svg"
   xmlns="http://www.w3.org/2000/svg"
   xmlns:sodipodi="http://sodipodi.sourceforge.net/DTD/sodipodi-0.dtd"
   xmlns:inkscape="http://www.inkscape.org/namespaces/inkscape"
   version="1.1"
   id="svg1113"
   width="307.41891"
   height="385.92291"
   viewBox="0 0 307.41891 385.92291"
   sodipodi:docname="logo_plus_title.svg"
   inkscape:version="0.92.4 (5da689c313, 2019-01-14)">
  <metadata
     id="metadata1119">
    <rdf:RDF>
      <cc:Work
         rdf:about="">
        <dc:format>image/svg+xml</dc:format>
        <dc:type
           rdf:resource="http://purl.org/dc/dcmitype/StillImage" />
      </cc:Work>
    </rdf:RDF>
  </metadata>
  <defs
     id="defs1117">
    <filter
       style="color-interpolation-filters:sRGB"
       id="filter953">
      <feConvolveMatrix
         order="3 3"
         kernelMatrix="0 -0.15 0 -0.15 1.6 -0.15 0 -0.15 0"
         divisor="1"
         in="SourceGraphic"
         targetX="1"
         targetY="1"
         id="feConvolveMatrix951" />
    </filter>
    <filter
       style="color-interpolation-filters:sRGB"
       id="filter953-3">
      <feConvolveMatrix
         order="3 3"
         kernelMatrix="0 -0.15 0 -0.15 1.6 -0.15 0 -0.15 0"
         divisor="1"
         in="SourceGraphic"
         targetX="1"
         targetY="1"
         id="feConvolveMatrix951-6" />
    </filter>
  </defs>
  <sodipodi:namedview
     pagecolor="#ffffff"
     bordercolor="#666666"
     borderopacity="1"
     objecttolerance="10"
     gridtolerance="10"
     guidetolerance="10"
     inkscape:pageopacity="0"
     inkscape:pageshadow="2"
     inkscape:window-width="1366"
     inkscape:window-height="704"
     id="namedview1115"
     showgrid="false"
     inkscape:zoom="1.0495421"
     inkscape:cx="5.8983038"
     inkscape:cy="220.58952"
     inkscape:window-x="0"
     inkscape:window-y="27"
     inkscape:window-maximized="1"
     inkscape:current-layer="svg1113" />
  <g
     id="g3042">
    <path
       inkscape:connector-curvature="0"
       id="path955"
       d="m 177.77393,0 -3.74414,4.625 c -3.68887,4.555563 -5.19192,4.933904 -10.92578,2.753907 -9.48369,-3.605691 -10.93264,-3.2429 -13.44727,3.371093 -1.99632,5.250661 -2.9458,5.631921 -8.64062,3.466797 -4.59022,-1.745227 -6.87278,-1.663078 -8.07813,0.28711 -0.92395,1.495039 -3.76862,2.054641 -6.32226,1.24414 -3.04074,-0.965087 -6.14614,0.18653 -8.99805,3.337891 -2.59435,2.866764 -6.03415,4.277935 -8.50977,3.492188 -2.7912,-0.885865 -4.65165,0.243535 -5.66601,3.439453 -1.22646,3.864105 -2.86711,4.487914 -8.734375,3.314453 -7.953636,-1.590731 -11.391504,1.53124 -11.453124,10.404297 -0.02855,4.11105 -1.854005,5.57193 -8.529297,6.824218 -9.614675,1.803724 -12.041066,5.518909 -8.242188,12.617187 2.310833,4.317792 1.651419,5.274676 -5.75,8.367188 -6.312802,2.637658 -8.419254,3.690174 -7.943359,6.296875 h 11.296875 c 0.994409,-0.611387 2.412123,-1.341271 4.501953,-2.429688 4.628114,-2.410386 6.289625,-2.200145 10.138672,1.283204 0.415448,0.375972 0.781139,0.76073 1.123047,1.146484 h 7.886718 c -0.384496,-0.29964 -0.770616,-0.611925 -1.158203,-0.945313 l -6.677734,-5.742187 5.333984,-1.691406 c 5.880317,-1.866336 16.866441,3.944664 16.429681,8.378906 h 16.07032 c 3.15619,-6.208803 10.97115,-4.94427 13.70312,0 h 9.50977 c 0.30451,-0.111759 0.60899,-0.189453 0.90625,-0.189453 0.47111,0 0.86296,0.07316 1.20312,0.189453 h 9.16016 c 1.16012,-0.85403 2.69786,-1.375 4.57812,-1.375 2.30879,0 3.86669,0.395464 4.91797,1.375 h 8.38086 c 1.44389,-3.855006 4.08058,-7.306641 6.49219,-7.306641 3.95046,0 7.36969,3.66154 7.92578,7.306641 h 9.33984 c -1.11784,-0.787368 -2.44657,-1.549358 -3.875,-2.181641 -9.70658,-4.296573 -8.94145,-7.504703 1.7793,-7.460937 11.88369,0.04853 17.02712,3.208049 10.96094,6.732422 -3.85679,2.240773 -3.42976,2.585715 3.27344,2.648437 1.78649,0.01672 3.15833,0.0766 4.21875,0.261719 h 27.58789 c -0.19708,-0.101213 -0.39414,-0.202474 -0.58789,-0.322266 -2.83771,-1.754405 -2.7775,-2.631758 0.38867,-5.798828 4.24867,-4.249923 12.01703,-2.426771 10.16992,2.386719 -0.65101,1.696533 -1.7931,2.962129 -3.17969,3.734375 h 3.33203 c 2.60045,-5.710577 9.72197,-12.050781 14.58789,-12.050781 7.69462,0 7.30705,6.488749 1.02149,12.050781 h 4.8789 c 3.56328,-1.907532 7.32434,-2.341185 11.75,-1.369141 1.72313,0.378463 3.06815,0.840539 4.07032,1.369141 h 12.04687 c -1.62053,-0.865062 -3.86481,-2.279241 -5.69726,-3.619141 -4.23888,-3.099533 -4.2549,-3.482194 -0.33594,-7.8125 5.89017,-6.508508 5.1995,-7.73828 -4.34375,-7.73828 -7.47928,-10e-7 -8.2819,-0.569845 -6.9043,-4.910157 1.18856,-3.744559 0.34897,-5.228941 -3.5332,-6.24414 -3.11256,-0.813963 -4.57666,-2.593296 -3.76953,-4.578125 4.7469,-11.672794 5.13599,-11.120123 -6.60547,-9.359375 l -11.05469,1.658203 v -7.369141 c 0,-7.138107 -0.26066,-7.321206 -8.30273,-5.8125 -5.8271,1.093169 -8.30469,0.688803 -8.30469,-1.355469 0,-2.885324 -6.35236,-2.42417 -14.60156,1.060547 -3.02927,1.279639 -4.30096,-0.0415 -5.5625,-5.785156 C 215.22662,2.717386 211.09855,0.965646 203.3169,6.064454 197.59971,9.810496 196.81118,9.73963 187.80127,4.675782 L 179.47901,0 Z m 4.44336,7.439454 c 1.49282,0.02674 3.23228,0.756532 5.38672,2.134765 3.16319,2.023592 3.16319,2.986808 0,8.669922 -4.3255,7.771406 -7.86204,9.221352 -11.57617,4.746094 -2.15037,-2.591431 -2.14432,-4.806362 0.0254,-9.568359 1.87625,-4.117919 3.67602,-6.026989 6.16406,-5.982422 z m -22.23438,1.5 4.32227,5.335937 c 5.49265,6.783609 5.48717,12.510358 -0.0176,17.492188 -2.38619,2.159484 -5.03573,3.925781 -5.88672,3.925781 -3.41219,0 -4.36202,-12.401345 -1.48242,-19.353516 z m 46.00586,3.361328 c 0.38288,0.0068 0.77671,0.03876 1.17774,0.0957 3.921,0.556783 5.34765,2.341441 5.34765,6.689453 0,4.348013 -1.42665,6.134619 -5.34765,6.691406 -5.82928,0.827768 -9.13949,-4.260353 -6.77735,-10.416015 0.75028,-1.95505 2.91947,-3.108043 5.59961,-3.060547 z m -68.43164,7.972656 c 7.48319,0 11.72427,6.583976 7.50977,11.662109 -3.8948,4.692978 -11.74359,4.889727 -13.49024,0.337891 -2.52712,-6.585432 0.17175,-12 5.98047,-12 z m 54.02149,1.185547 c 3.16464,0 7.7407,8.687694 7.8125,14.828125 0.0927,8.023215 -2.23869,8.229693 -9.20313,0.816406 -4.43583,-4.72175 -4.90315,-6.565044 -2.70312,-10.675781 1.46238,-2.732776 3.30488,-4.96875 4.09375,-4.96875 z m -66.02344,0.140625 c 2.45857,0.0678 3.01691,2.363919 1.60937,6.798828 -0.85952,2.707997 -3.09168,4.923828 -4.96093,4.923828 -4.57248,0 -4.35286,-9.2742 0.26172,-11.044922 1.2392,-0.475529 2.27031,-0.700336 3.08984,-0.677734 z m 104.51172,2.242187 c 1.71528,0.162687 2.30326,2.310879 3.64453,8.578125 1.31334,6.137004 0.77561,7.613529 -3.14453,8.638672 -6.07029,1.587403 -7.37696,0.135014 -7.37696,-8.207031 0,-3.937057 1.54138,-7.387367 3.66211,-8.201172 1.423,-0.546063 2.43518,-0.882542 3.21485,-0.808594 z m 18.73828,0.1875 c 2.74002,0.009 2.97463,1.551806 2.42578,7.142579 -0.80571,8.20641 -3.5143,10.447686 -8.67578,7.179687 -5.16423,-3.269708 -2.39255,-13.217166 3.93164,-14.113281 0.9202,-0.13039 1.68605,-0.211056 2.31836,-0.208985 z m -74.78516,1.273438 4.49805,5.554687 c 2.47391,3.055169 4.12844,6.661718 3.67773,8.013672 -1.29175,3.875534 -4.89443,4.061456 -9.60546,0.496094 -3.67051,-2.777719 -3.89515,-4.114489 -1.45508,-8.673828 z m 42.50782,0.900391 c 3.04767,-1e-6 2.2244,24.843894 -0.92774,27.996093 -4.78812,4.787994 -5.92525,3.327597 -7.48047,-9.609375 -1.2131,-10.091729 -0.73899,-13.017131 2.4961,-15.419922 2.19605,-1.631031 4.8567,-2.966796 5.91211,-2.966796 z m -117.068357,7.11914 c 5.755657,0 10.805507,5.964933 9.009757,10.644531 -1.78136,4.642055 -13.125741,4.666027 -14.904293,0.03125 -2.076597,-5.411543 0.830181,-10.675781 5.894536,-10.675781 z m 161.996087,0 c 3.59494,0 4.57731,1.31477 3.99219,5.337891 -0.42705,2.935878 0.83351,6.609445 2.80078,8.164062 2.75911,2.180268 2.9798,3.80759 0.96289,7.117188 -3.54141,5.811464 -12.4073,6.902368 -14.37695,1.769531 -0.85262,-2.221608 -0.39185,-5.894696 1.02539,-8.164062 1.78575,-2.859592 1.81933,-4.885726 0.10742,-6.597657 -3.37652,-3.376537 -0.31723,-7.626953 5.48828,-7.626953 z M 148.5044,36.544922 c 4.00003,0.181641 13.24713,8.695967 11.60351,11.355469 -1.64746,2.665641 -5.91428,2.458895 -11.05468,-0.535156 -4.64897,-2.707772 -5.48009,-8.197978 -1.60352,-10.59375 0.2836,-0.175278 0.64089,-0.245353 1.05469,-0.226563 z m -27.85547,1.521485 c 3.7838,0 12.39062,7.509139 12.39062,10.810547 0,3.423337 -2.2812,3.828143 -10.08398,1.789062 -4.06714,-1.062843 -6.17913,-12.599609 -2.30664,-12.599609 z m 127.4375,4.673828 c 1.84518,-0.06403 3.57422,2.810209 3.57422,8.375 0,5.337955 -1.1306,8.302734 -3.16407,8.302734 -4.80512,0 -5.6047,-1.696817 -4.46289,-9.476562 0.70473,-4.801728 2.42463,-7.144679 4.05274,-7.201172 z m -79.50977,0.421875 c 1.13753,0.03003 2.35274,0.998668 4.48438,2.927734 2.99376,2.709373 5.12432,3.271774 6.14453,1.621094 2.91866,-4.722562 13.17477,-2.859872 15.25781,2.771484 l 1.95899,5.298828 1.68164,-5.298828 c 2.45339,-7.729822 6.10742,-6.475683 6.10742,2.095704 0,6.626135 -0.62226,7.273814 -5.98828,6.248046 -3.29324,-0.62955 -6.55746,-0.219685 -7.25586,0.910156 -2.39483,3.874979 -9.90326,2.053029 -13.52735,-3.283202 -3.31832,-4.884636 -3.59287,-4.94426 -3.2539,-0.685547 0.55753,7.003565 -6.56651,7.079477 -10.29688,0.109375 -2.84431,-5.314668 -2.75839,-6.587357 0.66602,-10.011719 1.82463,-1.824633 2.88395,-2.733154 4.02148,-2.703125 z m 64.70313,0.873047 c 2.68312,0.02852 5.5652,1.510703 6.0664,4.113281 0.43973,2.283461 -0.08,4.028322 -1.15429,3.876953 -6.95868,-0.980426 -10.39466,-2.864905 -9.59571,-5.261719 0.63088,-1.892695 2.59672,-2.750696 4.6836,-2.728515 z m -131.5293,5.892578 c 3.82744,0 14.68164,7.962337 14.68164,10.769531 0,0.601584 -4.27092,1.09375 -9.49023,1.09375 -8.540847,0 -9.490237,-0.593693 -9.490237,-5.93164 0,-4.143651 1.2964,-5.931641 4.298827,-5.931641 z m 37.34961,0.222656 c 0.76893,0.0016 1.69656,0.08386 2.81445,0.212891 8.05421,0.929639 10.08443,7.987301 2.94922,10.251952 -3.06084,0.971465 -4.54514,2.92082 -3.76758,4.947266 0.70588,1.839369 0.42727,3.345703 -0.61914,3.345703 -3.62253,0 -5.0664,-3.198768 -5.0664,-11.228515 0,-6.007455 0.35741,-7.536357 3.68945,-7.529297 z m -57.814449,0.240235 c 4.990212,0.174207 9.048828,2.892263 9.048828,6.814453 0,3.614693 -1.673655,4.585937 -7.908204,4.585937 -4.349437,0 -8.618379,-0.712141 -9.488281,-1.582032 -3.087236,-3.08723 -1.515306,-7.609195 3.16211,-9.093749 1.75422,-0.556769 3.522142,-0.782679 5.185547,-0.724609 z m 42.179689,4.283203 c 1.25904,0 3.43151,2.134479 4.82812,4.74414 2.52226,4.712871 1.53567,5.468219 -4.15039,3.173828 -3.4728,-1.401303 -4.03072,-7.917968 -0.67773,-7.917968 z m 100.01953,0.382812 c 0.45918,-0.01107 0.92913,0.01108 1.40625,0.06836 8.07833,0.969719 12.16014,7.331646 7.95507,12.398438 -3.88842,4.685284 -12.89156,4.87395 -16.64648,0.349609 -4.25081,-5.121953 0.39737,-12.650383 7.28516,-12.816407 z m -66.89453,2.123047 c 1.62217,0.08118 3.32493,1.634818 4.91796,4.611328 1.9278,3.602264 1.80507,4.73461 -0.50976,4.707031 -5.07853,-0.06051 -9.6904,-4.009896 -7.95703,-6.814453 1.07486,-1.739233 2.28714,-2.567046 3.54883,-2.503906 z m 122.70898,0.103516 c 4.28054,-0.0993 4.02335,2.174501 -0.94922,5.949218 -5.72852,4.348611 -8.20309,4.059111 -7.26758,-0.849609 0.43528,-2.283456 3.18278,-4.491234 6.10547,-4.908203 0.79624,-0.113601 1.49982,-0.177221 2.11133,-0.191406 z m -170.97266,6.878905 c 3.84797,0 5.76057,1.10486 5.14063,2.966797 -1.14199,3.429784 -7.16476,5.093034 -9.60547,2.652344 -3.33605,-3.336035 -1.5227,-5.619141 4.46484,-5.619141 z"
       style="fill:#000000;fill-opacity:1;stroke-width:2.37242484" />
    <path
       inkscape:connector-curvature="0"
       id="path1731"
       d="m 166.42482,370.94468 -11.5,-14.97825 -0.2866,10.28932 c -0.26331,9.45312 -0.10692,10.48059 1.92431,12.64274 l 2.21092,2.35341 h -7.34863 -7.34863 l 2.17432,-2.31445 c 2.02418,-2.15465 2.17431,-3.30671 2.17431,-16.68555 0,-13.37884 -0.15013,-14.5309 -2.17431,-16.68555 l -2.17432,-2.31445 h 6.12274 6.12274 l 7.80157,10.13742 7.80158,10.13743 0.29455,-7.77555 c 0.26077,-6.88387 0.0401,-8.04641 -1.92431,-10.13743 l -2.21887,-2.36187 h 7.34863 7.34863 l -2.15199,2.29069 c -2.02475,2.15524 -2.16809,3.41675 -2.42431,21.33551 l -0.27233,19.04483 z m -151,9.71292 C 7.5593103,377.25066 3.10181,370.59292 3.10181,362.2519 c 0,-6.29783 1.71174,-10.15415 6.4876903,-14.61589 5.4606497,-5.10141 14.3230297,-6.85306 21.6860997,-4.28628 3.02025,1.05286 3.14922,1.32427 3.14922,6.62736 v 5.52953 l -4.47766,-4.12736 c -5.05507,-4.6596 -9.93766,-5.53589 -12.85901,-2.30784 -2.2218,2.45506 -3.85779,11.652 -3.05614,17.18048 1.70954,11.78961 7.7507,14.39837 15.91515,6.87264 l 4.47766,-4.12736 v 5.58036 5.58035 l -3.75,1.04143 c -5.23302,1.45328 -11.1276,1.24389 -15.25,-0.54172 z m 41.803671,-0.44625 c -5.976838,-3.15657 -10.812472,-11.1541 -10.798095,-17.85867 0.01628,-7.59415 5.311058,-16.08165 11.696681,-18.74974 3.874014,-1.61866 11.092698,-1.75714 14.982642,-0.28742 6.804928,2.57108 12.271176,11.00637 12.271176,18.93638 0,7.93001 -5.466248,16.3653 -12.271176,18.93638 -4.359777,1.64724 -11.776323,1.19101 -15.881228,-0.97693 z m 14.596986,-6.28278 c 1.761773,-2.36935 2.099342,-4.24693 2.099342,-11.67667 0,-10.65183 -1.886013,-14.3 -7.650455,-14.79851 -4.529395,-0.3917 -6.55838,1.90694 -8.077947,9.15152 -1.377406,6.56683 0.02456,15.65928 2.905322,18.84248 2.573236,2.8434 8.057715,2.06662 10.723738,-1.51882 z m 34.271693,6.21541 c -5.5112,-2.9078 -6.672347,-6.48321 -6.672347,-20.54551 0,-10.6545 -0.19728,-11.92766 -2.17431,-14.03212 l -2.174324,-2.31445 h 9.348631 9.34863 l -2.17432,2.31445 c -1.99323,2.1217 -2.17431,3.35641 -2.17431,14.82569 0,11.78487 0.13437,12.63746 2.31445,14.68555 3.07017,2.88427 7.17904,2.77173 10.231,-0.28024 2.32732,-2.32731 2.45455,-3.06314 2.45455,-14.19528 0,-11.37892 -0.0828,-11.82716 -2.68709,-14.54545 l -2.68709,-2.80472 h 7.8614 7.86141 l -2.17432,2.31445 c -1.98148,2.10919 -2.17445,3.37297 -2.17586,14.25 -0.002,13.77672 -1.30067,17.60863 -6.98285,20.60074 -4.64855,2.44782 -12.41811,2.32547 -17.34325,-0.27311 z m 99.82765,0.78184 c -5.07995,-1.98782 -8.02018,-4.47669 -10.53172,-8.91499 -5.00554,-8.8456 -1.91865,-21.53631 6.50479,-26.74229 4.3121,-2.66502 12.62746,-3.61508 18.27693,-2.0882 l 4.25,1.14865 v 5.58881 5.58882 l -4.47766,-4.12736 c -8.08851,-7.45573 -14.66149,-4.8655 -16.06014,6.32887 -0.77286,6.18577 0.85291,15.12949 3.22709,17.75293 3.03219,3.35054 8.15267,2.06673 14.06071,-3.52532 l 3.25,-3.07617 v 5.64916 5.64916 l -3.75,1.04143 c -4.80551,1.33456 -10.93081,1.22098 -14.75,-0.2735 z m 31.32569,-1.98837 c 2.02418,-2.15465 2.17431,-3.30671 2.17431,-16.68555 0,-13.37884 -0.15013,-14.5309 -2.17431,-16.68555 l -2.17432,-2.31445 h 9.34863 9.34863 l -2.17432,2.31445 c -2.02418,2.15465 -2.17431,3.30671 -2.17431,16.68555 0,13.37884 0.15013,14.5309 2.17431,16.68555 l 2.17432,2.31445 h -9.34863 -9.34863 z m 29,0 c 2.02418,-2.15465 2.17431,-3.30671 2.17431,-16.68555 0,-13.37884 -0.15013,-14.5309 -2.17431,-16.68555 l -2.17432,-2.31445 h 9.34863 9.34863 l -2.17432,2.31445 c -2.02146,2.15175 -2.17431,3.31167 -2.17431,16.5 v 14.18555 h 4.82569 c 3.85443,0 5.29839,-0.50317 7.17431,-2.5 1.29175,-1.375 2.72019,-2.5 3.17431,-2.5 0.45413,0 0.82569,2.25 0.82569,5 v 5 h -15.17431 -15.17432 z m -14.82569,-47.40603 c -4.675,-0.82165 -8.64093,-1.6241 -8.81319,-1.78323 -0.17225,-0.15913 1.5268,-3.94888 3.77567,-8.42167 l 4.08886,-8.13233 5.05218,5.77885 c 2.77871,3.17837 6.02965,6.32541 7.22433,6.99342 8.09626,4.52706 18.97987,-3.93029 17.20854,-13.37227 -0.86968,-4.63581 -3.45004,-7.059 -15.64506,-14.69215 -5.83477,-3.65211 -11.84251,-7.87405 -13.35053,-9.38207 -10.32186,-10.32186 -8.96866,-27.39934 2.74494,-34.6413 6.25432,-3.86676 14.91078,-4.50244 28.59054,-2.09952 5.56804,0.97806 10.12372,2.11631 10.12372,2.52945 0,0.73488 -6.72762,12.99766 -7.62612,13.90054 -0.25026,0.25148 -2.82622,-2.11102 -5.72435,-5.25 -4.81126,-5.2111 -5.63665,-5.70724 -9.49462,-5.70724 -10.7409,0 -14.50659,10.72152 -6.38179,18.17001 1.49978,1.37494 7.00188,5.12249 12.22688,8.32789 5.225,3.20539 11.01745,7.21717 12.87211,8.91505 12.62298,11.55591 7.8396,33.28642 -8.62008,39.1603 -4.84926,1.73053 -17.48165,1.59919 -28.25203,-0.29373 z M 4.59591,327.5019 c 4.4391903,-4.58804 5.0062803,-5.92637 16.63124,-39.25 6.61943,-18.975 12.345,-35.2875 12.72349,-36.25 0.52199,-1.32744 1.84515,-1.75 5.47971,-1.75 h 4.79156 l 2.592398,7.25 c 1.425819,3.9875 7.105609,20.51728 12.621757,36.73283 9.396984,27.62388 10.293415,29.75189 14.217264,33.75 l 4.187906,4.26717 H 60.924819 44.0084 l 4.127088,-4.25 4.127086,-4.25 -2.207973,-7 -2.207973,-7 -12.110458,-0.27997 -12.11047,-0.27998 -2.48981,7.40531 -2.48982,7.4053 4.12467,4.12467 4.12467,4.12467 H 13.44771 0 Z m 39.48348,-27.70778 c -0.30767,-0.80178 -2.19628,-6.70131 -4.19692,-13.11007 -2.00063,-6.40876 -3.97899,-11.26526 -4.39635,-10.79222 -0.41735,0.47304 -2.36913,5.58507 -4.33728,11.36007 -1.96816,5.775 -3.88436,11.2875 -4.25823,12.25 -0.61732,1.58923 0.1667,1.75 8.53421,1.75 7.66076,0 9.11968,-0.24574 8.65457,-1.45778 z m 48.137221,28.16993 4.208212,-4.28785 v -31.9278 -31.9278 l -4.750004,-4.87591 -4.75,-4.87591 21.000001,0.45768 c 22.44033,0.48907 27.94821,1.45821 35.54594,6.25444 5.65842,3.57201 8.28632,7.9164 8.76139,14.48416 0.64069,8.85747 -2.92646,14.33293 -13.39744,20.56463 -1.65845,0.98702 -1.10144,2.33467 6.61314,16 4.63328,8.20722 10.4101,17.05971 12.8374,19.67221 l 4.41325,4.75 h -12.06561 -12.06562 l -9.32122,-18.25 c -8.99739,-17.61595 -9.43414,-18.26089 -12.57123,-18.56336 l -3.25,-0.31336 v 14.27551 14.27551 l 4.20821,4.28785 4.20821,4.28785 H 104.92482 88.008403 Z M 126.12049,285.2959 c 6.50194,-3.96448 8.93491,-11.80555 5.74736,-18.52282 -2.41607,-5.09149 -6.66544,-7.51279 -13.19303,-7.51744 l -5.25,-0.004 v 14 14 l 4.75,-0.004 c 2.94248,-0.002 5.96605,-0.74521 7.94567,-1.95226 z m 60.09612,42.66815 4.20821,-4.28785 V 291.46405 259.2519 h -5.71855 c -5.5521,0 -5.87229,0.15182 -11,5.21584 l -5.28145,5.21584 v -9.71584 -9.71584 h 30.5 30.5 v 9.71584 9.71584 l -5.28145,-5.21584 c -5.12771,-5.06402 -5.4479,-5.21584 -11,-5.21584 h -5.71855 v 32.21215 32.21215 l 4.20821,4.28785 4.20821,4.28785 H 198.92482 182.0084 Z m 56.20821,-83.84983 v -3.13768 l -5.25,0.63837 c -2.8875,0.35111 -6.9375,0.92195 -9,1.26853 -3.41371,0.57363 -3.75,0.42732 -3.75,-1.63154 0,-2.06177 -0.33146,-2.20454 -3.75,-1.61515 -13.57057,2.33967 -14.22489,2.11562 -9.66111,-3.30812 2.39276,-2.84363 2.44027,-3.07673 0.62712,-3.07673 -1.07897,0 -4.1116,0.95097 -6.73916,2.11327 -4.09924,1.81328 -5.31287,1.95283 -8.54968,0.98306 -8.71019,-2.60964 -17.74726,-17.90983 -18.6624,-31.59633 -0.43959,-6.57438 -0.25042,-7.39522 3.11122,-13.5 10.94669,-19.87931 11.11119,-20.36803 11.25939,-33.45123 l 0.13539,-11.95123 9.36461,-5.8885 c 5.15054,-3.23868 9.52621,-6.04721 9.72371,-6.2412 0.1975,-0.19398 -0.66927,-1.8411 -1.92616,-3.66027 -1.25689,-1.81916 -2.35953,-3.42362 -2.45032,-3.56546 -0.0908,-0.14185 -4.46412,2.00533 -9.71851,4.7715 l -9.55346,5.0294 -1.09561,-3.14288 -1.09561,-3.14287 -2.75971,1.75082 c -1.51784,0.96295 -3.9771,2.8825 -5.46503,4.26566 -2.6128,2.42882 -2.79375,2.45689 -5.29099,0.82064 -2.24037,-1.46795 -3.06081,-1.52238 -6.14378,-0.40756 -3.26011,1.17887 -3.70234,1.10852 -5.28012,-0.83996 -1.21098,-1.49549 -2.18247,-1.8689 -3.27362,-1.25826 -1.20064,0.67191 -2.39144,-0.39655 -5.26435,-4.72347 l -3.71275,-5.5918 -3.41648,3.31139 c -1.87907,1.82126 -3.07811,3.60562 -2.66454,3.96523 0.41357,0.35962 5.02695,2.34437 10.25195,4.41057 5.225,2.0662 10.625,4.221 12,4.78843 l 2.5,1.0317 -2.30902,0.60967 c -3.5029,0.92492 -2.72511,2.54237 1.52171,3.16445 2.08302,0.30513 4.91231,1.17614 6.28731,1.93559 2.43827,1.34672 2.34053,1.42045 -3.95768,2.98552 l -6.45767,1.60469 6.09603,2.22273 c 3.35281,1.22249 6.65137,2.89187 7.33012,3.70971 1.07003,1.28931 0.38694,1.48903 -5.13836,1.5023 -8.97648,0.0216 -10.49669,1.37041 -3.75452,3.33129 2.96015,0.86093 6.28208,2.24583 7.38208,3.07756 1.84931,1.3983 1.4726,1.51992 -5,1.61432 -10.40411,0.15174 -12.01103,1.21151 -4.86603,3.20918 3.22631,0.90205 6.76603,2.32603 7.86603,3.16441 1.85266,1.41202 1.4843,1.52767 -5,1.56978 -7.64941,0.0497 -11.5,0.76447 -11.5,2.13478 0,0.48585 1.13945,0.88337 2.53212,0.88337 3.20412,0 8.5776,2.21957 10.24697,4.23261 1.12895,1.36137 0.54206,1.54699 -5,1.58142 -3.4535,0.0215 -7.62909,0.57731 -9.27909,1.23523 l -3,1.19622 5.77949,1.36078 c 3.17872,0.74842 6.9665,1.9827 8.41728,2.74285 2.54119,1.33146 2.38703,1.40892 -4.20972,2.11537 -10.62863,1.13823 -11.8765,1.99928 -4.90968,3.38775 9.36902,1.86723 9.55834,2.69434 1.04997,4.58727 -4.17353,0.92852 -7.81069,2.04815 -8.08257,2.48806 -0.27188,0.43991 1.63183,1.053 4.23045,1.36243 2.59863,0.30943 6.07478,1.12374 7.72478,1.80958 2.91538,1.2118 2.80594,1.26832 -3.87995,2.00365 -8.61005,0.94695 -10.40556,2.40673 -3.90694,3.1764 2.65192,0.31408 7.06385,1.48011 9.80428,2.59118 l 4.98261,2.02014 -6.60078,0.0545 c -7.163,0.0592 -12.4527,1.44854 -13.23033,3.47501 -0.36024,0.93878 1.99423,1.5862 8.81844,2.42484 13.2037,1.62264 16.11357,3.00772 6.51267,3.09999 -4.125,0.0396 -9.95485,0.36678 -12.95522,0.72698 l -5.45522,0.6549 8.95522,2.35606 c 9.4724,2.49213 22.81821,8.38141 29.15499,12.86559 2.09012,1.47907 2.90023,2.35381 1.80023,1.94387 -16.6127,-6.19117 -30.05219,-8.48332 -49.77144,-8.48869 l -14.77144,-0.004 -1.13907,2.5 c -1.32436,2.90664 -3.1269,3.10455 -8.36024,0.91792 -3.41999,-1.42896 -3.87061,-1.43167 -4.65615,-0.028 -0.7754,1.38558 -1.41042,1.34095 -5.85685,-0.41167 -6.838271,-2.6954 -14.065363,-3.36642 -22.913169,-2.12744 -4.107596,0.57519 -7.638583,0.87558 -7.846638,0.66753 -1.17678,-1.17678 14.551311,-4.78756 22.814996,-5.23775 7.347134,-0.40026 9.961101,-0.9376 11.534721,-2.37113 1.5275,-1.39153 2.93996,-1.70669 5.66621,-1.26428 5.85404,0.94998 16.69821,-1.38259 20.22615,-4.35063 6.19942,-5.21554 7.57157,-8.06151 7.58827,-15.73883 0.0203,-9.31445 3.0017,-20.77893 8.59641,-33.05572 8.45987,-18.56397 8.67146,-19.17676 7.94988,-23.02313 -1.32561,-7.06609 -10.41263,-14.06716 -20.75588,-15.99129 l -3.69425,-0.68723 -0.30575,5.03686 -0.30576,5.03685 -5.30395,-1.80062 c -2.91718,-0.99035 -6.55359,-2.99785 -8.08092,-4.46113 l -2.77696,-2.66049 -3.87587,3.08015 -3.87586,3.08015 -2.39476,-4.05506 c -1.31712,-2.23028 -2.814067,-4.05505 -3.326557,-4.05505 -0.51248,0 -2.50679,1.575 -4.431794,3.5 -4.07007,4.07007 -5.907723,4.37498 -7.533601,1.25 -0.643851,-1.2375 -1.265535,-2.36835 -1.381519,-2.513 -0.115984,-0.14465 -1.948285,1.37558 -4.07178,3.37829 -2.123495,2.00272 -3.968404,3.24607 -4.099798,2.763 -0.131394,-0.48306 -0.730256,-2.78995 -1.330805,-5.12642 -1.046198,-4.07029 -1.184504,-4.18944 -3.303867,-2.8461 -1.216578,0.77112 -4.188665,1.72068 -6.604637,2.11014 l -4.392677,0.7081 0.512231,-4.5445 0.512231,-4.5445 -6.940967,-1.24042 c -6.304324,-1.12665 -6.886348,-1.43094 -6.345481,-3.31751 1.97892,-6.90256 1.905287,-7.45261 -1.087263,-8.12201 -6.771816,-1.51479 -6.518816,-1.28148 -4.627226,-4.26691 0.93678,-1.47849 3.066415,-4.42376 4.732529,-6.54506 l 3.0293,-3.85689 -3.440528,-2.874994 -3.440531,-2.874989 7.165084,-7.165081 7.165082,-7.165081 -3.171661,-3.603033 -3.171661,-3.603033 4.811313,-0.309455 c 3.73349,-0.240132 5.103549,0.0959 6.115833,1.5 4.419547,6.130199 3.382031,5.787704 11.560479,3.816235 4.073625,-0.981974 7.583215,-1.936842 7.799091,-2.121928 0.215875,-0.185086 -0.176725,-1.022395 -0.872445,-1.860686 -1.104861,-1.331276 -0.626932,-1.524166 3.77646,-1.524166 2.944459,0 6.291084,0.717218 8.045844,1.724311 2.844324,1.632414 3.105984,1.632414 4.909784,0 1.495437,-1.353358 3.770797,-1.724311 10.576597,-1.724311 8.09658,0 8.67126,0.136905 8.67126,2.065741 0,5.381203 5.16958,8.935084 10.05415,6.911828 2.62465,-1.087163 4.94585,-4.618648 4.94585,-7.524622 0,-0.949756 1.04557,-1.452947 3.01905,-1.452947 2.78575,0 2.9684,0.212509 2.36356,2.75 -0.36052,1.5125 -1.49387,5 -2.51855,7.75 -1.02468,2.75 -1.86328,5.3375 -1.86356,5.75 -5.9e-4,0.89106 6.52663,0.824722 9.80786,-0.09968 2.27654,-0.641357 2.2662,-0.67522 -0.75,-2.456856 -1.6821,-0.993595 -3.05799,-2.118595 -3.05755,-2.5 4.5e-4,-0.381405 0.85241,-2.943464 1.89324,-5.693464 1.73208,-4.576384 2.19246,-5.025965 5.4339,-5.306474 3.31379,-0.286768 3.53629,-0.123302 3.46049,2.542419 -0.19075,6.709105 5.14916,10.187155 10.04861,6.54497 1.87346,-1.392702 2.75496,-3.061918 2.97332,-5.630257 0.26512,-3.118469 0.66601,-3.650658 2.75,-3.650658 2.17957,0 2.43963,0.426393 2.43963,4 v 4 h 4.42208 c 3.92178,0 4.80943,-0.452544 7.84592,-4 3.29849,-3.853542 3.64672,-4 9.51054,-4 5.12632,0 6.18294,0.303288 6.69677,1.922214 1.08963,3.433112 8.25761,9.077786 11.52757,9.077786 2.96621,0 2.99712,-0.05673 2.99712,-5.5 v -5.5 h 17.56739 c 17.11231,0 17.55094,0.05181 16.93261,2 -0.5696,1.794666 -0.1797,2 3.79775,2 2.91834,0 5.30111,-0.68322 6.97512,-2 1.39842,-1.1 3.55385,-2 4.78985,-2 2.1697,0 2.18595,0.06774 0.47099,1.962755 -2.50604,2.769143 -1.41001,4.531974 3.70882,5.965157 3.3006,0.924113 5.44463,0.964142 8.43999,0.157576 4.7827,-1.287846 10.91903,-5.314139 10.56748,-6.933741 -0.1699,-0.782729 1.98274,-1.151747 6.71862,-1.151747 8.2463,0 8.58447,1.419483 1.34843,5.660084 l -4.44863,2.607072 3.42736,2.825122 c 1.88505,1.553818 4.0211,4.258515 4.74677,6.010438 1.28059,3.091617 1.21112,3.272177 -2.36158,6.138294 -2.02453,1.624139 -3.68097,3.253096 -3.68097,3.619901 0,0.36681 2.14584,1.68571 4.76853,2.93088 2.62269,1.24517 6.11019,3.35602 7.75,4.69079 l 2.98147,2.42684 -4.5,3.93362 c -4.24186,3.70798 -4.40653,4.04042 -2.87059,5.79529 2.02294,2.31129 4.59741,7.33593 6.4521,12.5927 l 1.41257,4.00365 -10.22599,-0.36734 -10.22599,-0.36734 -2.27164,4.77171 c -3.37144,7.08189 -5.61384,7.69169 -13.94872,3.7932 -3.75196,-1.75491 -7.81134,-4.11936 -9.02086,-5.25434 -2.93308,-2.75233 -4.93223,-1.77306 -6.40319,3.13656 -1.3665,4.56099 -2.37885,4.85285 -8.87844,2.55966 -4.90403,-1.73024 -5.3324,-1.5792 -7.01036,2.47175 -1.4799,3.57278 -2.80111,3.75934 -6.42669,0.90746 -1.47814,-1.16271 -2.80002,-1.95021 -2.93752,-1.75 -0.1375,0.2002 -1.02418,1.6015 -1.97039,3.114 -1.96073,3.13417 -4.19703,3.49189 -6.84555,1.09501 -1.70166,-1.53998 -1.95582,-1.53998 -3.65748,0 -2.15325,1.94867 -8.16402,2.24602 -8.18657,0.40499 -0.0386,-3.15113 -1.609,-3.99471 -4.60199,-2.47209 -1.81094,0.92128 -3.62628,1.16837 -4.8827,0.66459 -1.1,-0.44106 -2.26087,-0.83356 -2.5797,-0.87222 -0.31884,-0.0387 0.0548,2.96722 0.83028,6.67972 1.93654,9.27079 1.14033,13.44009 -5.17121,27.0785 -8.7364,18.87821 -9.26091,23.44614 -4.03046,35.10115 2.88497,6.42855 6.366,10.07035 9.62579,10.07035 1.04774,0 3.66912,-0.9 5.8253,-2 5.03629,-2.56932 5.34892,-2.52636 4.55766,0.62628 -0.61834,2.46366 -0.48574,2.58492 2.14159,1.95828 1.54041,-0.36739 4.93825,-0.93147 7.55075,-1.2535 4.18783,-0.51622 4.74994,-0.36334 4.7495,1.29171 -4.7e-4,1.7254 0.73937,1.84852 9.14727,1.52223 8.07253,-0.31326 9.07539,-0.16633 8.53189,1.25 -0.90006,2.34554 1.58623,2.0582 11.88375,-1.37343 8.22351,-2.74047 8.7024,-2.80243 5.99393,-0.77553 l -2.94366,2.20291 10.55817,1.17009 c 12.67225,1.40437 24.761,4.34068 32.89041,7.98894 3.28916,1.47609 5.85338,2.81072 5.69825,2.96584 -0.15512,0.15513 -3.42697,-0.44556 -7.27078,-1.33485 -4.99329,-1.15524 -12.15416,-1.63433 -25.07984,-1.67794 -17.2143,-0.0581 -18.06722,-0.15237 -17.59815,-1.9457 0.73012,-2.7914 -1.78926,-1.07605 -6.80706,4.63467 -2.29551,2.6125 -4.58541,4.75 -5.08867,4.75 -0.50325,0 -0.91501,-1.41196 -0.91501,-3.13768 z M 230.37479,136.85525 c 2.6713,-5.51818 2.71339,-7.51366 0.10875,-5.1565 -1.88478,1.70571 -2.0706,1.55507 -6.3852,-5.17613 -2.9991,-4.67891 -5.46704,-7.35677 -7.59078,-8.23645 -1.73078,-0.71691 -3.38702,-1.06333 -3.68053,-0.76981 -0.7101,0.7101 1.15204,7.47448 3.54661,12.88335 1.05972,2.3937 3.57783,6.27989 5.59581,8.63597 4.19765,4.90095 5.08927,4.66966 8.40534,-2.18043 z m 46.40818,-1.35335 c 0.34091,-2.0625 0.62479,-6.50625 0.63084,-9.875 0.0109,-6.0631 -0.0206,-6.13132 -3.11399,-6.75 -7.4255,-1.4851 -7.381,-1.53281 -7.31901,7.84758 0.0308,4.66 0.25579,8.66641 0.5,8.90313 0.52281,0.50679 7.16243,3.42404 8.06317,3.54271 0.34053,0.0449 0.89808,-1.60592 1.23899,-3.66842 z m -25.35818,-1.5 c -3e-5,-4.3199 -1.04778,-5.633 -9.24531,-11.58679 -2.20895,-1.60434 -4.75466,-0.0386 -4.75466,2.92444 0,3.21455 9.93347,12.89208 13.25,12.90861 0.4125,0.002 0.74999,-1.90876 0.74997,-4.24626 z M 100.72658,123.20197 c 5.32578,-4.77551 5.7469,-5.45858 5.13318,-8.32619 -0.36771,-1.71813 -0.84775,-3.31812 -1.06674,-3.55553 -0.21899,-0.2374 -1.85392,0.92869 -3.63318,2.59133 -1.779257,1.66264 -4.697517,4.02502 -6.485021,5.24974 -2.849317,1.95224 -3.25,2.7775 -3.25,6.69386 0,5.36368 0.529531,5.21264 9.301761,-2.65321 z m 39.10849,5.79993 c -1.30948,-2.31265 -4.75031,-5.75 -5.75582,-5.75 -0.54832,0 -1.8534,0.77508 -2.90017,1.7224 -1.84047,1.66559 -1.74414,1.77845 2.92126,3.42249 5.97474,2.10544 6.62299,2.17384 5.73473,0.60511 z m 40.1135,-5.78427 c 3.7471,-5.40707 2.77361,-6.68816 -2.29319,-3.01779 -3.64116,2.63765 -4.23056,3.57294 -4.23056,6.71332 0,3.53687 0.059,3.59536 1.92331,1.90814 1.05782,-0.95731 3.12801,-3.47896 4.60044,-5.60367 z m -18.22457,1.80334 c 2.74825,-3.39555 2.87572,-3.95411 2.21044,-9.6862 -0.64288,-5.53909 -0.91841,-6.08287 -3.08213,-6.08287 -4.3845,0 -6.82972,8.33919 -4.95201,16.88835 0.84771,3.85963 1.96824,3.64427 5.8237,-1.11928 z m 135.70082,3.61708 c 0,-0.33761 -0.98286,-2.36261 -2.18414,-4.5 -1.94533,-3.46123 -2.60411,-3.88615 -6.025,-3.88615 -3.46073,0 -3.89977,0.29453 -4.43605,2.97596 -0.32736,1.63678 -0.55882,3.32428 -0.51435,3.75 0.14632,1.40109 13.15954,3.04282 13.15954,1.66019 z M 118.58739,127.0019 c 1.79427,-1.45185 4.83743,-5.83814 4.83743,-6.97251 0,-0.42762 -0.85338,-0.77749 -1.89641,-0.77749 -1.87711,0 -8.10359,6.17362 -8.10359,8.0348 0,1.37756 3.33552,1.19356 5.16257,-0.2848 z m -40.160764,-2.25071 c 3.509569,-1.37539 6.738004,-3.06289 7.174301,-3.75 0.436297,-0.68711 0.800157,-3.62591 0.808579,-6.53068 0.01736,-5.98594 -1.14642,-7.03514 -6.196823,-5.5867 -2.370257,0.67978 -3.883969,2.29861 -6.431895,6.87854 -3.102788,5.57732 -4.412681,11.48955 -2.545583,11.48955 0.445713,0 3.681852,-1.12532 7.191421,-2.50071 z m 116.498194,-0.70372 c 1.60698,-0.29982 1.94487,-1.04294 1.71945,-3.78158 -0.15431,-1.87463 -0.40294,-3.53081 -0.55251,-3.68039 -0.14958,-0.14958 -1.93583,-0.002 -3.96945,0.32806 -4.04329,0.65614 -4.18906,1.02788 -2.61949,6.68042 0.89146,3.21044 1.26045,3.59421 2.24443,2.33436 0.64766,-0.82925 2.07757,-1.67564 3.17757,-1.88087 z m 67.30085,-1.38607 0.30085,-3.07412 -9.80085,-2.56815 c -5.39047,-1.41248 -10.02503,-2.35126 -10.29902,-2.08618 -1.23856,1.19825 15.51151,11.49374 17.99817,11.06263 0.86718,-0.15035 1.62692,-1.55698 1.80085,-3.33418 z m -30.78408,0.0464 c 2.61455,-6.87679 2.61368,-6.87848 -4.18256,-8.17006 -3.44472,-0.65464 -6.41352,-1.03986 -6.59733,-0.85604 -0.97895,0.97894 1.36572,5.92204 4.05715,8.55342 3.76773,3.68365 5.45678,3.80241 6.72274,0.47268 z M 67.424819,118.2519 c 0,-2.76191 -0.277778,-3 -3.5,-3 -3.222222,0 -3.5,0.23809 -3.5,3 0,2.7619 0.277778,3 3.5,3 3.222222,0 3.5,-0.2381 3.5,-3 z m 79.910791,-1.31573 c 3.65165,-7.5433 2.33944,-10.14723 -2.3219,-4.60755 -2.82488,3.35718 -2.83659,3.39709 -1.9586,6.67328 0.88162,3.28977 1.93375,2.78203 4.2805,-2.06573 z m 60.98611,1.71967 2.04206,-2.59605 -3.71948,-4.45196 -3.71948,-4.45196 -1.75,2.1588 c -1.95473,2.41135 -2.28727,7.06482 -0.71482,10.00297 1.47786,2.76141 5.43077,2.42865 7.86172,-0.6618 z m -69.8969,-1.40394 c 2.77983,-2.77983 2.57572,-7.51519 -0.45455,-10.54546 -2.80809,-2.80809 -5.43037,-3.08253 -9.47393,-0.99153 -3.02768,1.56568 -4.07152,3.35102 -4.07152,6.96379 0,5.53685 9.82646,8.74674 14,4.5732 z m -19.34575,-5.5 c 4.37774,-5.81734 4.68127,-6.5 2.89008,-6.5 -0.86553,0 -3.17716,1.46946 -5.13693,3.26546 -3.02682,2.77387 -3.45715,3.68814 -2.85853,6.07321 0.38758,1.54427 1.01757,2.43731 1.39998,1.98455 0.3824,-0.45277 2.04983,-2.62322 3.7054,-4.82322 z m 52.45021,-2.17911 -2.01607,-3.82089 -0.0442,3.92126 c -0.0268,2.37916 0.64402,4.68647 1.7058,5.86704 1.73093,1.92458 1.75338,1.92348 2.06026,-0.10036 0.17064,-1.12539 -0.59697,-3.76556 -1.7058,-5.86705 z m 114.89554,4.67911 c 4.71372,-4.71372 0.57243,-12 -6.82041,-12 -7.03407,0 -10.78708,7.49285 -5.99103,11.96104 2.97977,2.77608 10.05281,2.79759 12.81144,0.0389 z m -23,-3.24858 c 0,-1.49207 -2.36011,-4.46362 -7.01492,-8.83227 l -7.01492,-6.583684 6.71186,-4.008568 c 3.69153,-2.204712 6.86104,-4.456079 7.04336,-5.003037 0.18232,-0.546958 -1.50132,-1.820949 -3.74141,-2.831091 l -4.0729,-1.836623 -5.45554,5.387766 c -3.00054,2.963271 -5.45553,5.97847 -5.45553,6.700443 0,0.721972 1.37792,4.04232 3.06204,7.378554 2.90952,5.76372 2.97187,6.13181 1.25158,7.38972 -0.99576,0.72811 -1.58618,1.49721 -1.31205,1.7091 2.04315,1.5792 6.30219,2.65327 10.74843,2.71059 4.79686,0.0618 5.25,-0.1264 5.25,-2.1809 z m -162.25,-4.47098 c 1.82013,-1.22189 2.25,-2.44375 2.25,-6.39545 0,-4.714634 -0.10033,-4.884991 -2.87686,-4.884991 -2.493737,0 -3.159587,0.657243 -5.000001,4.935381 -2.05338,4.77323 -2.76461,10.08982 -1.51669,11.33773 0.33355,0.33355 1.57105,-0.3135 2.750004,-1.43788 1.17895,-1.12438 3.15605,-2.72404 4.393547,-3.55479 z m -35.666547,3.19011 c 4.92126,-1.73632 5.879557,-2.82766 5.901233,-6.72055 0.01186,-2.13004 -0.45713,-2.75 -2.080317,-2.75 -3.052391,0 -13.90437,7.95074 -13.90437,10.18709 0,1.31698 5.409324,0.93259 10.083454,-0.71654 z m 127.461997,-0.9251 c 1.91221,-1.9122 2.45455,-3.49672 2.45455,-7.17126 0,-6.347144 -1.93179,-8.374191 -7.98067,-8.374191 -6.12782,0 -9.29206,3.064784 -9.29206,9.000001 0,5.5932 3.2147,9 8.4925,9 2.77677,0 4.56504,-0.6939 6.32568,-2.45455 z m 44.76058,0.42846 c 3.18992,-2.50918 4.13876,-5.27429 2.71972,-7.92579 -1.17264,-2.191096 -5.96975,-5.048121 -8.47609,-5.048121 -2.74981,0 -5.54966,3.783811 -5.54966,7.500001 0,6.64951 6.07332,9.58997 11.30603,5.47391 z m -21.19845,-3.81898 c 1.52354,-7.508841 -3.07903,-14.327396 -9.81247,-14.536868 -3.30901,-0.102941 -3.8395,0.196524 -4.14166,2.337989 -0.93287,6.611347 5.71899,16.434799 10.72875,15.844179 1.99268,-0.23492 2.69431,-1.02789 3.22538,-3.6453 z M 82.864769,104.71254 c 4.40823,-1.84187 3.80056,-2.97209 -2.114543,-3.93288 -3.557255,-0.5778 -4.333624,-0.38092 -5.25,1.33134 -0.591474,1.10518 -1.075407,2.76278 -1.075407,3.68357 0,1.88183 1.942447,1.6328 8.43995,-1.08203 z m 64.245601,-1.63495 c 2.63217,-2.4728 3.37209,-9.825691 0.98876,-9.825691 -2.59118,0 -7.67431,7.329041 -7.67431,11.065101 0,1.75092 4.36357,0.94197 6.68555,-1.23941 z m 12.63081,-1.04761 c 1.55073,-2.07703 1.8037,-3.491796 1.26577,-7.078989 -0.55765,-3.718664 -1.09093,-4.563201 -3.12721,-4.952461 -2.43994,-0.466423 -2.45492,-0.420799 -2.45492,7.475374 0,8.557976 0.74299,9.342226 4.31636,4.556076 z m -42.59979,-2.413939 c 3.87156,-1.478562 4.28343,-1.959336 4.28343,-5 0,-3.890556 -1.74341,-4.333847 -7.53212,-1.915169 -3.03409,1.267724 -3.46788,1.893166 -3.46788,5 0,4.055268 0.63711,4.236938 6.71657,1.915169 z m 150.16689,-0.114142 c 2.28421,-1.898956 1.93222,-2.96581 -1.82708,-5.53773 -2.26253,-1.547912 -2.57748,-1.550657 -4.25,-0.03705 -2.40132,2.173163 -2.27811,3.880957 0.41613,5.768074 2.78986,1.954097 3.09024,1.943847 5.66095,-0.193296 z m -133.65889,0.192095 c 0.30685,-0.306847 0.32757,-1.438724 0.046,-2.515282 -0.41387,-1.582655 -1.25426,-1.906592 -4.38977,-1.692096 -3.27575,0.22409 -3.87814,0.614663 -3.87937,2.515283 -10e-4,1.942284 0.52279,2.250001 3.83186,2.250001 2.10834,0 4.08439,-0.25106 4.39124,-0.557906 z m 149.20576,-4.847853 4.93033,-2.387471 -7.15536,-3.603386 c -8.08652,-4.072303 -9.68012,-4.337901 -11.1204,-1.853385 -0.83085,1.433244 -0.16108,2.512309 3.70031,5.961579 2.59314,2.316368 4.71479,4.224753 4.71479,4.240857 0,0.0161 2.21865,-1.045084 4.93033,-2.358194 z m -215.569272,0.783546 3.111059,-0.622212 -2.517308,-2.991651 c -1.612103,-1.915875 -2.302043,-3.669891 -1.918671,-4.877788 1.348221,-4.24787 -7.0029,-0.619538 -9.556589,4.152075 -0.829676,1.550263 -0.519242,2.148113 1.756321,3.38241 3.112653,1.688347 4.658528,1.850498 9.125188,0.957166 z m 19.472077,-1.193405 c 0.903711,-0.99859 1.923739,-3.21876 2.26673,-4.933712 1.311035,-6.555174 -8.072006,-10.927944 -13.689082,-6.379512 -1.672442,1.354262 -2.310784,2.9092 -2.310784,5.628841 0,2.719641 0.638342,4.274579 2.310784,5.628841 3.015464,2.441774 9.235469,2.47202 11.422352,0.05554 z M 172.23818,92.49371 c 0.29177,-3.01844 0.10228,-3.241811 -2.75,-3.241811 -1.68485,0 -3.0695,0.3375 -3.07701,0.75 -0.008,0.4125 -0.27427,1.721463 -0.59279,2.908807 -0.41793,1.557926 -0.0662,2.293977 1.26366,2.644437 3.61591,0.952904 4.83826,0.227141 5.15614,-3.061433 z m 60.18664,-0.707015 c 0,-2.265863 -5.8863,-8.436145 -10.0973,-10.584437 l -3.78667,-1.931812 0.19199,6.986868 0.19198,6.986867 6.75,0.0039 c 5.26384,0.003 6.75,-0.318737 6.75,-1.461345 z M 112.8603,86.922734 c 1.48465,-1.085599 1.6113,-1.714918 0.69113,-3.434259 -0.61963,-1.157801 -1.12661,-3.034677 -1.12661,-4.170835 0,-2.812992 -5.15224,-2.805585 -9.11072,0.0131 -2.49825,1.77891 -5.889277,6.5992 -5.889277,8.371502 0,1.192449 13.683727,0.501409 15.435477,-0.779505 z m 85.56452,0.697199 c 0,-0.347581 -0.92234,-2.124348 -2.04965,-3.948371 -2.91087,-4.709881 -5.30133,-5.153528 -9.40427,-1.74534 -1.87093,1.554122 -3.43417,3.135604 -3.47388,3.514404 -0.0397,0.3788 1.8403,0.935287 4.1778,1.236639 4.06034,0.52346 8.39389,1.14682 10,1.438452 0.4125,0.0749 0.75,-0.148203 0.75,-0.495784 z m 45.02002,-0.878384 c 3.27235,-1.6922 5.1881,-4.540915 4.1602,-6.186226 -0.37412,-0.598847 -4.72437,-1.424208 -9.66721,-1.834136 -10.07845,-0.835843 -9.94059,-1.113454 -3.11901,6.280712 3.37983,3.663515 4.47756,3.8849 8.62602,1.73965 z M 3.92482,195.7519 c 0,-8.44375 0.0169,-8.5 2.5492003,-8.5 2.32453,0 2.51319,0.30846 2.14059,3.5 -0.37848,3.24197 -0.20817,3.5 2.3102097,3.5 2.51838,0 2.68869,-0.25803 2.31021,-3.5 -0.38676,-3.31284 -0.24823,-3.5 2.59059,-3.5 2.33271,0 2.73253,0.26667 1.7992,1.2 -1.56637,1.56636 -1.56637,13.03364 0,14.6 0.93333,0.93333 0.53857,1.2 -1.77643,1.2 -2.8694,0 -2.96271,-0.14382 -2.59496,-4 0.36015,-3.77652 0.23005,-4 -2.32861,-4 -2.5586597,0 -2.6887597,0.22348 -2.3286097,4 0.35398,3.71182 0.19944,4 -2.14496,4 -2.5037503,0 -2.5264303,-0.0763 -2.5264303,-8.5 z m 19,2 v -6.5 h 4.75 c 3.27998,0 4.75,0.41062 4.75,1.32681 0,0.91473 -0.96215,1.18559 -3.09795,0.87212 -2.61698,-0.38409 -3.03798,-0.16313 -2.71169,1.42319 0.21268,1.03396 1.1555,1.81546 2.09795,1.73899 0.94143,-0.0764 1.71169,0.44398 1.71169,1.15638 0,0.80294 -0.7602,1.09647 -2,0.77226 -1.5416,-0.40314 -2,-0.0307 -2,1.625 0,2.617 2.48352,3.75878 4.51273,2.07468 1.21242,-1.00622 1.48727,-0.93449 1.48727,0.38813 0,1.26888 -1.03512,1.62244 -4.75,1.62244 h -4.75 z m 14,0 c 0,-5.83312 0.20519,-6.50007 2,-6.50063 1.79487,-5.7e-4 2,0.66582 2,6.49736 0,5.83047 -0.20546,6.49828 -2,6.50064 -1.79514,0.002 -2,-0.66316 -2,-6.49737 z m 11.722505,4.9433 c -3.17737,-2.22552 -2.951494,-6.72472 0.472832,-9.41829 3.209318,-2.52445 7.629482,-2.358 8.135105,0.30635 0.32851,1.73107 0.209527,1.74094 -2.172598,0.18011 -2.430011,-1.59221 -2.580195,-1.55961 -4.19923,0.91135 -1.911169,2.91681 -1.304423,7.31538 1.138402,8.25278 2.471283,0.94832 4.092456,-1.34193 2.619469,-3.70056 -1.118268,-1.79063 -0.97128,-1.97504 1.574239,-1.97504 2.619933,0 2.780351,0.23403 2.399068,3.5 -0.384044,3.28962 -0.629089,3.5 -4.076693,3.5 -2.017448,0 -4.668215,-0.70052 -5.890594,-1.5567 z m 15.277494,-4.94657 c 0,-5.91164 0.187404,-6.49794 2.076807,-6.49736 1.738648,5.3e-4 2.005114,0.48911 1.636501,3.00063 -0.376766,2.56707 -0.11893,3 1.786692,3 1.905622,0 2.163458,-0.43293 1.786692,-3 -0.404308,-2.75472 -0.19918,-3 2.508946,-3 2.482426,0 2.755999,0.23285 1.728344,1.4711 -0.72587,0.87462 -1.079617,3.5104 -0.872444,6.50062 0.314329,4.53687 0.145035,5.02946 -1.728345,5.0289 -1.73865,-5.2e-4 -2.005114,-0.4891 -1.636501,-3.00062 0.376766,-2.56707 0.11893,-3 -1.786692,-3 -1.905622,0 -2.163458,0.43293 -1.786692,3 0.368716,2.51223 0.102635,2.99957 -1.636501,2.99737 -1.889068,-0.002 -2.076807,-0.59004 -2.076807,-6.50064 z m 19.348265,0.90606 c 0.329622,-5.30017 0.235944,-5.56429 -1.75,-4.93398 -1.52181,0.48301 -2.098265,0.23536 -2.098265,-0.90142 0,-1.2332 1.172682,-1.56739 5.5,-1.56739 4.059501,0 5.5,0.36834 5.5,1.40638 0,0.93655 -0.701825,1.22285 -2.100841,0.857 -1.979288,-0.5176 -2.080541,-0.22281 -1.75,5.09498 0.316672,5.09465 0.156056,5.64437 -1.649159,5.64437 -1.803363,0 -1.965759,-0.55058 -1.651735,-5.59994 z m 11.151735,4.71931 c 0,-0.54924 1.18835,-0.91391 2.640794,-0.81036 3.731957,0.26605 3.915777,-1.55175 0.36879,-3.64701 -3.236704,-1.91196 -3.892654,-4.68696 -1.56462,-6.61905 1.7797,-1.47702 5.746077,-1.00796 6.324577,0.74794 0.30898,0.9378 -0.28835,1.11427 -2.17167,0.64159 -3.519727,-0.8834 -3.280917,0.5141 0.64312,3.76353 2.70947,2.24367 3.07331,3.00248 2.15773,4.5 -1.1824,1.93395 -8.398721,3.15692 -8.398721,1.42336 z m 119.711641,-1.13429 c -4.77746,-3.75794 -4.40173,-11.17909 0.73644,-14.54575 3.0353,-1.9888 7.55192,-1.22506 7.55192,1.27699 0,1.30741 -0.26667,1.41428 -1.2,0.48095 -3.18617,-3.18617 -6.8,-0.10379 -6.8,5.8 0,5.90379 3.61383,8.98617 6.8,5.8 0.93333,-0.93333 1.2,-0.846 1.2,0.39301 0,3.20974 -4.65124,3.65577 -8.28836,0.7948 z m 13.28836,-4.98781 c 0,-5.0471 0.27793,-6.00022 1.75,-6.00136 1.50161,-0.001 1.70018,0.80009 1.39903,5.64519 l -0.35097,5.64656 3.10097,-0.6202 c 1.7717,-0.35434 3.10097,-0.20224 3.10097,0.35481 0,0.53625 -2.025,0.975 -4.5,0.975 h -4.5 z m 13.5,-0.003 c 0,-5.04557 0.2778,-5.99759 1.75,-5.9972 1.47217,3.9e-4 1.75,0.95302 1.75,6.00046 0,5.04868 -0.27747,5.99956 -1.75,5.9972 -1.47184,-0.002 -1.75,-0.95613 -1.75,-6.00046 z m 9.33882,0.001 -0.33882,-6.00182 4.75,0.002 c 3.80321,0.001 4.75,0.34067 4.75,1.70182 0,1.32222 -0.26667,1.43333 -1.2,0.5 -1.98737,-1.98737 -4.8,-1.45026 -4.8,0.91663 0,1.6243 0.4652,1.99498 2,1.59362 1.2398,-0.32421 2,-0.0307 2,0.77226 0,0.7124 -0.7875,1.23277 -1.75,1.15638 -1.28446,-0.10194 -1.73951,0.59268 -1.71058,2.61111 0.0278,1.9374 -0.46309,2.75 -1.66118,2.75 -1.37426,0 -1.76562,-1.15171 -2.03942,-6.00182 z m 13.16118,0.002 v -6 h 4.5 c 3.56863,0 4.5,0.35185 4.5,1.7 0,1.32222 -0.26667,1.43333 -1.2,0.5 -1.87275,-1.87275 -3.8,-1.41275 -3.8,0.90699 0,1.46204 0.45915,1.93079 1.5,1.53138 0.90455,-0.3471 1.5,-0.005 1.5,0.86163 0,0.8667 -0.59545,1.20873 -1.5,0.86163 -1.13499,-0.43554 -1.5,0.18046 -1.5,2.53138 0,2.44032 -0.42914,3.10699 -2,3.10699 -1.77778,0 -2,-0.66667 -2,-6 z m -200.901366,-16.5 c -0.09555,-0.55 -1.76153,-2.8 -3.702178,-5 l -3.528449,-4 0.342422,4.25 c 0.265346,3.29336 -0.0012,4.25 -1.184004,4.25 -1.212011,0 -1.526426,-1.33888 -1.526426,-6.5 0,-7.61817 1.241855,-8.32257 5.72974,-3.25 l 2.875392,3.25 -0.379373,-3.25 c -0.286316,-2.4528 0.0074,-3.25015 1.197434,-3.25062 1.272262,-5e-4 1.521036,1.01348 1.288046,5.25 -0.322748,5.86863 -0.848761,9.76932 -1.112604,8.25062 z M 5.28588,177.26681 c -2.69651,-2.69651 -3.02924,-3.59772 -2.51479,-6.8113 0.75501,-4.71626 3.7813403,-7.20361 8.76451,-7.20361 3.31579,0 3.88922,0.31773 3.88922,2.15499 0,2.02437 -0.11084,2.05468 -1.82874,0.5 -2.34363,-2.12096 -3.47175,-2.08543 -5.5162697,0.17375 -2.3568703,2.60431 -2.17745,9.38846 0.30776,11.63755 2.9980697,2.71322 5.3424097,1.27339 4.8462697,-2.97643 -0.35204,-3.01552 -0.11976,-3.48986 1.70901,-3.48986 1.91222,0 2.0617,0.41006 1.5492,4.25 -0.5438,4.07448 -0.72275,4.26286 -4.33286,4.5613 -3.1048597,0.25667 -4.3109397,-0.23402 -6.87331,-2.79639 z m 16.63894,-3.51491 v -6.5 h 3.67857 c 2.02322,0 4.36659,0.68802 5.20751,1.52894 1.56773,1.56773 1.18341,4.47106 -0.59185,4.47106 -0.54548,0 -0.0625,1.575 1.07327,3.5 2.01875,3.42153 2.02154,3.5 0.12445,3.5 -1.1448,0 -2.57677,-1.23023 -3.49195,-3 -0.85325,-1.65 -1.81588,-3 -2.13918,-3 -0.3233,0 -0.38968,1.35 -0.14751,3 0.36863,2.51166 0.10224,3 -1.6365,3 -1.88941,0 -2.07681,-0.58654 -2.07681,-6.5 z m 6.1,-4.1 c -0.48405,-1.26141 -0.96557,-1.43444 -1.76557,-0.63443 -0.605,0.605 -0.80049,1.88049 -0.43443,2.83443 0.48405,1.26141 0.96556,1.43443 1.76556,0.63444 0.605,-0.605 0.8005,-1.8805 0.43444,-2.83444 z m 8.7655,8.35 c 0.77638,-1.2375 1.94458,-3.93123 2.596,-5.98607 1.13186,-3.57031 2.65956,-5.47621 3.61982,-4.51595 0.24654,0.24655 1.53316,3.21661 2.859158,6.60014 l 2.410903,6.15188 h -2.31458 c -1.590371,0 -2.271121,-0.5474 -2.175691,-1.74952 0.0879,-1.1078 -0.6864,-1.8669 -2.11111,-2.06955 -1.71163,-0.24346 -2.25,0.17516 -2.25,1.74952 0,1.41074 -0.644,2.06955 -2.02305,2.06955 -1.84957,0 -1.90201,-0.19295 -0.61145,-2.25 z m 5.6345,-4.30902 c 0,-0.85745 -0.45,-1.2809 -1,-0.94098 -0.55,0.33992 -1,1.04148 -1,1.55902 0,0.51754 0.45,0.94098 1,0.94098 0.55,0 1,-0.70156 1,-1.55902 z m 26.499999,0.059 v -6.5 h 4.17742 c 3.321864,0 4.601894,0.53963 6.25,2.63486 2.685266,3.41376 2.612736,4.91589 -0.381965,7.91059 -1.743786,1.74381 -3.553592,2.45457 -6.25,2.45457 h -3.795455 v -6.5 z m 8.306466,0.3154 c 0.233962,-2.81286 -0.148949,-3.9283 -1.618517,-4.71479 -2.603325,-1.39326 -3.187949,-0.54315 -3.187949,4.63563 0,3.99397 0.208967,4.3732 2.25,4.08333 1.798776,-0.25547 2.31146,-1.05847 2.556466,-4.00415 z m 10.658492,0.98551 c -0.951276,-2.91548 -2.17515,-5.86339 -2.71972,-6.55089 -0.747706,-0.94395 -0.233317,-1.25 2.100932,-1.25 2.053546,0 2.935383,0.41956 2.627253,1.25 -0.255094,0.6875 -0.07265,2.6 0.405433,4.25 l 0.869241,3 1.166765,-2.92245 c 0.641718,-1.60734 0.937518,-3.51984 0.657338,-4.25 -0.31636,-0.82442 0.23151,-1.32755 1.44561,-1.32755 1.901184,0 1.891234,0.1706 -0.36108,6.19323 -1.27386,3.40628 -2.798976,6.35419 -3.389145,6.55091 -0.590168,0.19672 -1.851351,-2.02773 -2.802627,-4.94323 z m 13.035043,-1.30089 c 0,-5.83333 0.20513,-6.5 2,-6.5 1.79487,0 2,0.66667 2,6.5 0,5.83333 -0.20513,6.5 -2,6.5 -1.79487,0 -2,-0.66667 -2,-6.5 z m 10,0 v -6.5 h 4.25 c 2.3375,0 4.25,0.45857 4.25,1.01905 0,0.58765 -1.05835,0.75343 -2.5,0.3916 -2.10562,-0.52848 -2.5,-0.27646 -2.5,1.59757 0,1.73271 0.44254,2.10932 2,1.70203 1.45682,-0.38096 2,-0.0307 2,1.28975 0,1.32043 -0.54318,1.67072 -2,1.28975 -1.55908,-0.40771 -2,-0.0307 -2,1.7102 0,1.84286 0.43698,2.14967 2.5,1.7553 1.67641,-0.32047 2.5,-0.0294 2.5,0.88342 0,0.9349 -1.3313,1.36133 -4.25,1.36133 h -4.25 z m 17.00861,5.25 c -0.23574,-0.6875 -1.30338,-3.6125 -2.37254,-6.5 l -1.94392,-5.25 h 2.46294 c 1.35462,0 2.21678,0.39831 1.9159,0.88513 -0.30087,0.48682 -0.039,2.34253 0.58196,4.12378 0.96554,2.76975 1.26779,2.99066 2.08757,1.52578 0.52722,-0.94207 0.75118,-2.79778 0.4977,-4.12378 -0.38438,-2.01076 -0.0592,-2.41091 1.95947,-2.41091 1.33119,0 2.22803,0.3375 1.99298,0.75 -0.23506,0.4125 0.11069,2.30911 0.76831,4.2147 l 1.19568,3.46469 1.1607,-3.32956 c 0.63838,-1.83126 0.91452,-3.72788 0.61365,-4.2147 -0.30088,-0.48682 0.33938,-0.88513 1.42278,-0.88513 1.89655,0 1.87354,0.24269 -0.61865,6.52411 -1.42367,3.58826 -3.04003,6.37359 -3.59192,6.18963 -0.55189,-0.18396 -1.52475,-1.88231 -2.16191,-3.77411 l -1.15847,-3.43963 -1.23797,3.75 c -1.24215,3.76265 -2.77392,4.83405 -3.57426,2.5 z m 83.99139,-7.25 c 0,-8.12112 0.0992,-8.5 2.22611,-8.5 1.55059,0 2.79119,1.10144 4.08827,3.62972 l 1.86216,3.62972 2.24329,-3.62972 c 1.23381,-1.99635 2.99409,-3.62881 3.91173,-3.62769 1.42689,0.002 1.66844,1.23248 1.66844,8.50088 0,7.89804 -0.14474,8.49878 -2.04739,8.49797 -1.89686,-8.2e-4 -2.02063,-0.49717 -1.68341,-6.75088 l 0.36398,-6.75 -2.71651,4.40635 -2.7165,4.40634 -2.35855,-4.40634 -2.35855,-4.40635 0.25847,6.7521 c 0.20865,5.45081 -0.0306,6.75169 -1.24154,6.75 -1.21552,-0.002 -1.5,-1.61414 -1.5,-8.5021 z m 20.5,7.7 c 0,-0.44 0.39083,-1.2275 0.86851,-1.75 0.47767,-0.5225 1.66381,-3.0875 2.63585,-5.7 0.97205,-2.6125 2.17221,-4.75 2.66704,-4.75 0.49482,0 1.78362,2.1375 2.86399,4.75 1.08038,2.6125 2.4182,5.5375 2.97294,6.5 0.86286,1.4971 0.58738,1.75 -1.90624,1.75 -2.4634,0 -2.83029,-0.32336 -2.36887,-2.08785 0.45576,-1.74281 0.15109,-2.03193 -1.84362,-1.74951 -1.55127,0.21963 -2.34087,0.9521 -2.25071,2.08784 0.0871,1.09757 -0.565,1.74952 -1.75,1.74952 -1.03889,0 -1.88889,-0.36 -1.88889,-0.8 z m 7,-5.14098 c 0,-0.51754 -0.45,-1.2191 -1,-1.55902 -0.55,-0.33992 -1,0.0835 -1,0.94098 0,0.85746 0.45,1.55902 1,1.55902 0.55,0 1,-0.42344 1,-0.94098 z m 9.5,-0.55902 v -6.5 h 3.55887 c 1.95738,0 4.42013,0.62977 5.47278,1.39948 1.71636,1.25504 1.77079,1.6669 0.52735,3.99029 -1.21452,2.26935 -1.18013,2.8189 0.27722,4.42926 2.15489,2.38113 2.10086,3.18097 -0.2149,3.18097 -1.14461,0 -2.36422,-1.17221 -3.12132,-3 -0.68345,-1.65 -1.63805,-3 -2.12132,-3 -1.29621,0 -1.06789,3.41079 0.32132,4.8 0.93333,0.93333 0.54444,1.2 -1.75,1.2 h -2.95 z m 6.30963,-3.25 c -0.40593,-2.10784 -2.18068,-1.97493 -2.63295,0.19718 -0.18865,0.90598 0.36259,1.55282 1.32332,1.55282 1.02996,0 1.52043,-0.6554 1.30963,-1.75 z m 8.69037,3.25 v -6.5 h 3.67857 c 4.60521,0 7.50525,2.46685 5.60595,4.76857 -1.01973,1.23578 -1.02684,1.6434 -0.0345,1.97738 1.92685,0.64852 1.47945,4.06089 -0.68426,5.21887 -1.06384,0.56935 -3.42634,1.03518 -5.25,1.03518 h -3.31574 v -6.5 z m 7.32332,2.83287 c -0.48655,-2.50877 -2.82332,-2.85325 -2.82332,-0.4162 0,1.22833 0.64569,2.08333 1.57332,2.08333 0.93124,0 1.44138,-0.68037 1.25,-1.66713 z m -0.82332,-5.83287 c 0,-0.76008 -0.45,-1.66008 -1,-2 -0.5694,-0.35191 -1,0.50929 -1,2 0,1.49071 0.4306,2.35191 1,2 0.55,-0.33992 1,-1.23992 1,-2 z m 8.5,3 c 0,-6.2663 0.0899,-6.50005 2.5,-6.50136 2.41258,-0.001 2.48775,0.19575 2.14958,5.63577 -0.34804,5.59883 -0.33275,5.63376 2.25,5.14004 1.77053,-0.33846 2.60042,-0.0627 2.60042,0.86422 0,0.95738 -1.40949,1.36133 -4.75,1.36133 h -4.75 z m 13,0 v -6.5 h 4.75 c 3.80392,0 4.75,0.33859 4.75,1.7 0,1.32222 -0.26667,1.43333 -1.2,0.5 -1.84019,-1.84019 -3.8,-1.4276 -3.8,0.8 0,1.11111 0.66667,2 1.5,2 0.825,0 1.5,0.45 1.5,1 0,0.55 -0.675,1 -1.5,1 -0.86087,0 -1.5,0.90184 -1.5,2.11658 0,1.71845 0.47024,2.02668 2.5,1.63867 1.67641,-0.32047 2.5,-0.0294 2.5,0.88342 0,0.95738 -1.40949,1.36133 -4.75,1.36133 h -4.75 z"
       style="fill:#000000" />
  </g>
</svg>
