<?xml version="1.0" encoding="UTF-8" standalone="no"?>
<!-- Created with Inkscape (http://www.inkscape.org/) -->

<svg
   xmlns:dc="http://purl.org/dc/elements/1.1/"
   xmlns:cc="http://creativecommons.org/ns#"
   xmlns:rdf="http://www.w3.org/1999/02/22-rdf-syntax-ns#"
   xmlns:svg="http://www.w3.org/2000/svg"
   xmlns="http://www.w3.org/2000/svg"
   xmlns:sodipodi="http://sodipodi.sourceforge.net/DTD/sodipodi-0.dtd"
   xmlns:inkscape="http://www.inkscape.org/namespaces/inkscape"
   version="1.1"
   id="svg1113"
   width="307.41891"
   height="385.92291"
   viewBox="0 0 307.41891 385.92291"
   sodipodi:docname="logo_plus_title_white_leaves.svg"
   inkscape:version="0.92.4 (5da689c313, 2019-01-14)">
  <metadata
     id="metadata1119">
    <rdf:RDF>
      <cc:Work
         rdf:about="">
        <dc:format>image/svg+xml</dc:format>
        <dc:type
           rdf:resource="http://purl.org/dc/dcmitype/StillImage" />
        <dc:title></dc:title>
      </cc:Work>
    </rdf:RDF>
  </metadata>
  <defs
     id="defs1117">
    <filter
       style="color-interpolation-filters:sRGB"
       id="filter953">
      <feConvolveMatrix
         order="3 3"
         kernelMatrix="0 -0.15 0 -0.15 1.6 -0.15 0 -0.15 0"
         divisor="1"
         in="SourceGraphic"
         targetX="1"
         targetY="1"
         id="feConvolveMatrix951" />
    </filter>
    <filter
       style="color-interpolation-filters:sRGB"
       id="filter953-3">
      <feConvolveMatrix
         order="3 3"
         kernelMatrix="0 -0.15 0 -0.15 1.6 -0.15 0 -0.15 0"
         divisor="1"
         in="SourceGraphic"
         targetX="1"
         targetY="1"
         id="feConvolveMatrix951-6" />
    </filter>
  </defs>
  <sodipodi:namedview
     pagecolor="#ffffff"
     bordercolor="#666666"
     borderopacity="1"
     objecttolerance="10"
     gridtolerance="10"
     guidetolerance="10"
     inkscape:pageopacity="0"
     inkscape:pageshadow="2"
     inkscape:window-width="1366"
     inkscape:window-height="704"
     id="namedview1115"
     showgrid="false"
     inkscape:zoom="2.0990842"
     inkscape:cx="112.46764"
     inkscape:cy="308.94859"
     inkscape:window-x="0"
     inkscape:window-y="27"
     inkscape:window-maximized="1"
     inkscape:current-layer="svg1113" />
  <g
     id="g3042">
    <path
       inkscape:connector-curvature="0"
       id="path955"
       d="m 177.77393,0 -3.74414,4.625 c -3.68887,4.555563 -5.19192,4.933904 -10.92578,2.753907 -9.48369,-3.605691 -10.93264,-3.2429 -13.44727,3.371093 -1.99632,5.250661 -2.9458,5.631921 -8.64062,3.466797 -4.59022,-1.745227 -6.87278,-1.663078 -8.07813,0.28711 -0.92395,1.495039 -3.76862,2.054641 -6.32226,1.24414 -3.04074,-0.965087 -6.14614,0.18653 -8.99805,3.337891 -2.59435,2.866764 -6.03415,4.277935 -8.50977,3.492188 -2.7912,-0.885865 -4.65165,0.243535 -5.66601,3.439453 -1.22646,3.864105 -2.86711,4.487914 -8.734375,3.314453 -7.953636,-1.590731 -11.391504,1.53124 -11.453124,10.404297 -0.02855,4.11105 -1.854005,5.57193 -8.529297,6.824218 -9.614675,1.803724 -12.041066,5.518909 -8.242188,12.617187 2.310833,4.317792 1.651419,5.274676 -5.75,8.367188 -6.312802,2.637658 -8.419254,3.690174 -7.943359,6.296875 h 11.296875 c 0.994409,-0.611387 2.412123,-1.341271 4.501953,-2.429688 4.628114,-2.410386 6.289625,-2.200145 10.138672,1.283204 0.415448,0.375972 0.781139,0.76073 1.123047,1.146484 h 7.886718 c -0.384496,-0.29964 -0.770616,-0.611925 -1.158203,-0.945313 l -6.677734,-5.742187 5.333984,-1.691406 c 5.880317,-1.866336 16.866441,3.944664 16.429681,8.378906 h 16.07032 c 3.15619,-6.208803 10.97115,-4.94427 13.70312,0 h 9.50977 c 0.30451,-0.111759 0.60899,-0.189453 0.90625,-0.189453 0.47111,0 0.86296,0.07316 1.20312,0.189453 h 9.16016 c 1.16012,-0.85403 2.69786,-1.375 4.57812,-1.375 2.30879,0 3.86669,0.395464 4.91797,1.375 h 8.38086 c 1.44389,-3.855006 4.08058,-7.306641 6.49219,-7.306641 3.95046,0 7.36969,3.66154 7.92578,7.306641 h 9.33984 c -1.11784,-0.787368 -2.44657,-1.549358 -3.875,-2.181641 -9.70658,-4.296573 -8.94145,-7.504703 1.7793,-7.460937 11.88369,0.04853 17.02712,3.208049 10.96094,6.732422 -3.85679,2.240773 -3.42976,2.585715 3.27344,2.648437 1.78649,0.01672 3.15833,0.0766 4.21875,0.261719 h 27.58789 c -0.19708,-0.101213 -0.39414,-0.202474 -0.58789,-0.322266 -2.83771,-1.754405 -2.7775,-2.631758 0.38867,-5.798828 4.24867,-4.249923 12.01703,-2.426771 10.16992,2.386719 -0.65101,1.696533 -1.7931,2.962129 -3.17969,3.734375 h 3.33203 c 2.60045,-5.710577 9.72197,-12.050781 14.58789,-12.050781 7.69462,0 7.30705,6.488749 1.02149,12.050781 h 4.8789 c 3.56328,-1.907532 7.32434,-2.341185 11.75,-1.369141 1.72313,0.378463 3.06815,0.840539 4.07032,1.369141 h 12.04687 c -1.62053,-0.865062 -3.86481,-2.279241 -5.69726,-3.619141 -4.23888,-3.099533 -4.2549,-3.482194 -0.33594,-7.8125 5.89017,-6.508508 5.1995,-7.73828 -4.34375,-7.73828 -7.47928,-10e-7 -8.2819,-0.569845 -6.9043,-4.910157 1.18856,-3.744559 0.34897,-5.228941 -3.5332,-6.24414 -3.11256,-0.813963 -4.57666,-2.593296 -3.76953,-4.578125 4.7469,-11.672794 5.13599,-11.120123 -6.60547,-9.359375 l -11.05469,1.658203 v -7.369141 c 0,-7.138107 -0.26066,-7.321206 -8.30273,-5.8125 -5.8271,1.093169 -8.30469,0.688803 -8.30469,-1.355469 0,-2.885324 -6.35236,-2.42417 -14.60156,1.060547 -3.02927,1.279639 -4.30096,-0.0415 -5.5625,-5.785156 C 215.22662,2.717386 211.09855,0.965646 203.3169,6.064454 197.59971,9.810496 196.81118,9.73963 187.80127,4.675782 L 179.47901,0 Z m 4.44336,7.439454 c 1.49282,0.02674 3.23228,0.756532 5.38672,2.134765 3.16319,2.023592 3.16319,2.986808 0,8.669922 -4.3255,7.771406 -7.86204,9.221352 -11.57617,4.746094 -2.15037,-2.591431 -2.14432,-4.806362 0.0254,-9.568359 1.87625,-4.117919 3.67602,-6.026989 6.16406,-5.982422 z m -22.23438,1.5 4.32227,5.335937 c 5.49265,6.783609 5.48717,12.510358 -0.0176,17.492188 -2.38619,2.159484 -5.03573,3.925781 -5.88672,3.925781 -3.41219,0 -4.36202,-12.401345 -1.48242,-19.353516 z m 46.00586,3.361328 c 0.38288,0.0068 0.77671,0.03876 1.17774,0.0957 3.921,0.556783 5.34765,2.341441 5.34765,6.689453 0,4.348013 -1.42665,6.134619 -5.34765,6.691406 -5.82928,0.827768 -9.13949,-4.260353 -6.77735,-10.416015 0.75028,-1.95505 2.91947,-3.108043 5.59961,-3.060547 z m -68.43164,7.972656 c 7.48319,0 11.72427,6.583976 7.50977,11.662109 -3.8948,4.692978 -11.74359,4.889727 -13.49024,0.337891 -2.52712,-6.585432 0.17175,-12 5.98047,-12 z m 54.02149,1.185547 c 3.16464,0 7.7407,8.687694 7.8125,14.828125 0.0927,8.023215 -2.23869,8.229693 -9.20313,0.816406 -4.43583,-4.72175 -4.90315,-6.565044 -2.70312,-10.675781 1.46238,-2.732776 3.30488,-4.96875 4.09375,-4.96875 z m -66.02344,0.140625 c 2.45857,0.0678 3.01691,2.363919 1.60937,6.798828 -0.85952,2.707997 -3.09168,4.923828 -4.96093,4.923828 -4.57248,0 -4.35286,-9.2742 0.26172,-11.044922 1.2392,-0.475529 2.27031,-0.700336 3.08984,-0.677734 z m 104.51172,2.242187 c 1.71528,0.162687 2.30326,2.310879 3.64453,8.578125 1.31334,6.137004 0.77561,7.613529 -3.14453,8.638672 -6.07029,1.587403 -7.37696,0.135014 -7.37696,-8.207031 0,-3.937057 1.54138,-7.387367 3.66211,-8.201172 1.423,-0.546063 2.43518,-0.882542 3.21485,-0.808594 z m 18.73828,0.1875 c 2.74002,0.009 2.97463,1.551806 2.42578,7.142579 -0.80571,8.20641 -3.5143,10.447686 -8.67578,7.179687 -5.16423,-3.269708 -2.39255,-13.217166 3.93164,-14.113281 0.9202,-0.13039 1.68605,-0.211056 2.31836,-0.208985 z m -74.78516,1.273438 4.49805,5.554687 c 2.47391,3.055169 4.12844,6.661718 3.67773,8.013672 -1.29175,3.875534 -4.89443,4.061456 -9.60546,0.496094 -3.67051,-2.777719 -3.89515,-4.114489 -1.45508,-8.673828 z m 42.50782,0.900391 c 3.04767,-1e-6 2.2244,24.843894 -0.92774,27.996093 -4.78812,4.787994 -5.92525,3.327597 -7.48047,-9.609375 -1.2131,-10.091729 -0.73899,-13.017131 2.4961,-15.419922 2.19605,-1.631031 4.8567,-2.966796 5.91211,-2.966796 z m -117.068357,7.11914 c 5.755657,0 10.805507,5.964933 9.009757,10.644531 -1.78136,4.642055 -13.125741,4.666027 -14.904293,0.03125 -2.076597,-5.411543 0.830181,-10.675781 5.894536,-10.675781 z m 161.996087,0 c 3.59494,0 4.57731,1.31477 3.99219,5.337891 -0.42705,2.935878 0.83351,6.609445 2.80078,8.164062 2.75911,2.180268 2.9798,3.80759 0.96289,7.117188 -3.54141,5.811464 -12.4073,6.902368 -14.37695,1.769531 -0.85262,-2.221608 -0.39185,-5.894696 1.02539,-8.164062 1.78575,-2.859592 1.81933,-4.885726 0.10742,-6.597657 -3.37652,-3.376537 -0.31723,-7.626953 5.48828,-7.626953 z M 148.5044,36.544922 c 4.00003,0.181641 13.24713,8.695967 11.60351,11.355469 -1.64746,2.665641 -5.91428,2.458895 -11.05468,-0.535156 -4.64897,-2.707772 -5.48009,-8.197978 -1.60352,-10.59375 0.2836,-0.175278 0.64089,-0.245353 1.05469,-0.226563 z m -27.85547,1.521485 c 3.7838,0 12.39062,7.509139 12.39062,10.810547 0,3.423337 -2.2812,3.828143 -10.08398,1.789062 -4.06714,-1.062843 -6.17913,-12.599609 -2.30664,-12.599609 z m 127.4375,4.673828 c 1.84518,-0.06403 3.57422,2.810209 3.57422,8.375 0,5.337955 -1.1306,8.302734 -3.16407,8.302734 -4.80512,0 -5.6047,-1.696817 -4.46289,-9.476562 0.70473,-4.801728 2.42463,-7.144679 4.05274,-7.201172 z m -79.50977,0.421875 c 1.13753,0.03003 2.35274,0.998668 4.48438,2.927734 2.99376,2.709373 5.12432,3.271774 6.14453,1.621094 2.91866,-4.722562 13.17477,-2.859872 15.25781,2.771484 l 1.95899,5.298828 1.68164,-5.298828 c 2.45339,-7.729822 6.10742,-6.475683 6.10742,2.095704 0,6.626135 -0.62226,7.273814 -5.98828,6.248046 -3.29324,-0.62955 -6.55746,-0.219685 -7.25586,0.910156 -2.39483,3.874979 -9.90326,2.053029 -13.52735,-3.283202 -3.31832,-4.884636 -3.59287,-4.94426 -3.2539,-0.685547 0.55753,7.003565 -6.56651,7.079477 -10.29688,0.109375 -2.84431,-5.314668 -2.75839,-6.587357 0.66602,-10.011719 1.82463,-1.824633 2.88395,-2.733154 4.02148,-2.703125 z m 64.70313,0.873047 c 2.68312,0.02852 5.5652,1.510703 6.0664,4.113281 0.43973,2.283461 -0.08,4.028322 -1.15429,3.876953 -6.95868,-0.980426 -10.39466,-2.864905 -9.59571,-5.261719 0.63088,-1.892695 2.59672,-2.750696 4.6836,-2.728515 z m -131.5293,5.892578 c 3.82744,0 14.68164,7.962337 14.68164,10.769531 0,0.601584 -4.27092,1.09375 -9.49023,1.09375 -8.540847,0 -9.490237,-0.593693 -9.490237,-5.93164 0,-4.143651 1.2964,-5.931641 4.298827,-5.931641 z m 37.34961,0.222656 c 0.76893,0.0016 1.69656,0.08386 2.81445,0.212891 8.05421,0.929639 10.08443,7.987301 2.94922,10.251952 -3.06084,0.971465 -4.54514,2.92082 -3.76758,4.947266 0.70588,1.839369 0.42727,3.345703 -0.61914,3.345703 -3.62253,0 -5.0664,-3.198768 -5.0664,-11.228515 0,-6.007455 0.35741,-7.536357 3.68945,-7.529297 z m -57.814449,0.240235 c 4.990212,0.174207 9.048828,2.892263 9.048828,6.814453 0,3.614693 -1.673655,4.585937 -7.908204,4.585937 -4.349437,0 -8.618379,-0.712141 -9.488281,-1.582032 -3.087236,-3.08723 -1.515306,-7.609195 3.16211,-9.093749 1.75422,-0.556769 3.522142,-0.782679 5.185547,-0.724609 z m 42.179689,4.283203 c 1.25904,0 3.43151,2.134479 4.82812,4.74414 2.52226,4.712871 1.53567,5.468219 -4.15039,3.173828 -3.4728,-1.401303 -4.03072,-7.917968 -0.67773,-7.917968 z m 100.01953,0.382812 c 0.45918,-0.01107 0.92913,0.01108 1.40625,0.06836 8.07833,0.969719 12.16014,7.331646 7.95507,12.398438 -3.88842,4.685284 -12.89156,4.87395 -16.64648,0.349609 -4.25081,-5.121953 0.39737,-12.650383 7.28516,-12.816407 z m -66.89453,2.123047 c 1.62217,0.08118 3.32493,1.634818 4.91796,4.611328 1.9278,3.602264 1.80507,4.73461 -0.50976,4.707031 -5.07853,-0.06051 -9.6904,-4.009896 -7.95703,-6.814453 1.07486,-1.739233 2.28714,-2.567046 3.54883,-2.503906 z m 122.70898,0.103516 c 4.28054,-0.0993 4.02335,2.174501 -0.94922,5.949218 -5.72852,4.348611 -8.20309,4.059111 -7.26758,-0.849609 0.43528,-2.283456 3.18278,-4.491234 6.10547,-4.908203 0.79624,-0.113601 1.49982,-0.177221 2.11133,-0.191406 z m -170.97266,6.878905 c 3.84797,0 5.76057,1.10486 5.14063,2.966797 -1.14199,3.429784 -7.16476,5.093034 -9.60547,2.652344 -3.33605,-3.336035 -1.5227,-5.619141 4.46484,-5.619141 z"
       style="fill:#000000;fill-opacity:1;stroke-width:2.37242484" />
    <path
       inkscape:connector-curvature="0"
       id="path1731"
       d="m 166.42482,370.94468 -11.5,-14.97825 -0.2866,10.28932 c -0.26331,9.45312 -0.10692,10.48059 1.92431,12.64274 l 2.21092,2.35341 h -7.34863 -7.34863 l 2.17432,-2.31445 c 2.02418,-2.15465 2.17431,-3.30671 2.17431,-16.68555 0,-13.37884 -0.15013,-14.5309 -2.17431,-16.68555 l -2.17432,-2.31445 h 6.12274 6.12274 l 7.80157,10.13742 7.80158,10.13743 0.29455,-7.77555 c 0.26077,-6.88387 0.0401,-8.04641 -1.92431,-10.13743 l -2.21887,-2.36187 h 7.34863 7.34863 l -2.15199,2.29069 c -2.02475,2.15524 -2.16809,3.41675 -2.42431,21.33551 l -0.27233,19.04483 z m -151,9.71292 C 7.5593103,377.25066 3.10181,370.59292 3.10181,362.2519 c 0,-6.29783 1.71174,-10.15415 6.4876903,-14.61589 5.4606497,-5.10141 14.3230297,-6.85306 21.6860997,-4.28628 3.02025,1.05286 3.14922,1.32427 3.14922,6.62736 v 5.52953 l -4.47766,-4.12736 c -5.05507,-4.6596 -9.93766,-5.53589 -12.85901,-2.30784 -2.2218,2.45506 -3.85779,11.652 -3.05614,17.18048 1.70954,11.78961 7.7507,14.39837 15.91515,6.87264 l 4.47766,-4.12736 v 5.58036 5.58035 l -3.75,1.04143 c -5.23302,1.45328 -11.1276,1.24389 -15.25,-0.54172 z m 41.803671,-0.44625 c -5.976838,-3.15657 -10.812472,-11.1541 -10.798095,-17.85867 0.01628,-7.59415 5.311058,-16.08165 11.696681,-18.74974 3.874014,-1.61866 11.092698,-1.75714 14.982642,-0.28742 6.804928,2.57108 12.271176,11.00637 12.271176,18.93638 0,7.93001 -5.466248,16.3653 -12.271176,18.93638 -4.359777,1.64724 -11.776323,1.19101 -15.881228,-0.97693 z m 14.596986,-6.28278 c 1.761773,-2.36935 2.099342,-4.24693 2.099342,-11.67667 0,-10.65183 -1.886013,-14.3 -7.650455,-14.79851 -4.529395,-0.3917 -6.55838,1.90694 -8.077947,9.15152 -1.377406,6.56683 0.02456,15.65928 2.905322,18.84248 2.573236,2.8434 8.057715,2.06662 10.723738,-1.51882 z m 34.271693,6.21541 c -5.5112,-2.9078 -6.672347,-6.48321 -6.672347,-20.54551 0,-10.6545 -0.19728,-11.92766 -2.17431,-14.03212 l -2.174324,-2.31445 h 9.348631 9.34863 l -2.17432,2.31445 c -1.99323,2.1217 -2.17431,3.35641 -2.17431,14.82569 0,11.78487 0.13437,12.63746 2.31445,14.68555 3.07017,2.88427 7.17904,2.77173 10.231,-0.28024 2.32732,-2.32731 2.45455,-3.06314 2.45455,-14.19528 0,-11.37892 -0.0828,-11.82716 -2.68709,-14.54545 l -2.68709,-2.80472 h 7.8614 7.86141 l -2.17432,2.31445 c -1.98148,2.10919 -2.17445,3.37297 -2.17586,14.25 -0.002,13.77672 -1.30067,17.60863 -6.98285,20.60074 -4.64855,2.44782 -12.41811,2.32547 -17.34325,-0.27311 z m 99.82765,0.78184 c -5.07995,-1.98782 -8.02018,-4.47669 -10.53172,-8.91499 -5.00554,-8.8456 -1.91865,-21.53631 6.50479,-26.74229 4.3121,-2.66502 12.62746,-3.61508 18.27693,-2.0882 l 4.25,1.14865 v 5.58881 5.58882 l -4.47766,-4.12736 c -8.08851,-7.45573 -14.66149,-4.8655 -16.06014,6.32887 -0.77286,6.18577 0.85291,15.12949 3.22709,17.75293 3.03219,3.35054 8.15267,2.06673 14.06071,-3.52532 l 3.25,-3.07617 v 5.64916 5.64916 l -3.75,1.04143 c -4.80551,1.33456 -10.93081,1.22098 -14.75,-0.2735 z m 31.32569,-1.98837 c 2.02418,-2.15465 2.17431,-3.30671 2.17431,-16.68555 0,-13.37884 -0.15013,-14.5309 -2.17431,-16.68555 l -2.17432,-2.31445 h 9.34863 9.34863 l -2.17432,2.31445 c -2.02418,2.15465 -2.17431,3.30671 -2.17431,16.68555 0,13.37884 0.15013,14.5309 2.17431,16.68555 l 2.17432,2.31445 h -9.34863 -9.34863 z m 29,0 c 2.02418,-2.15465 2.17431,-3.30671 2.17431,-16.68555 0,-13.37884 -0.15013,-14.5309 -2.17431,-16.68555 l -2.17432,-2.31445 h 9.34863 9.34863 l -2.17432,2.31445 c -2.02146,2.15175 -2.17431,3.31167 -2.17431,16.5 v 14.18555 h 4.82569 c 3.85443,0 5.29839,-0.50317 7.17431,-2.5 1.29175,-1.375 2.72019,-2.5 3.17431,-2.5 0.45413,0 0.82569,2.25 0.82569,5 v 5 h -15.17431 -15.17432 z m -14.82569,-47.40603 c -4.675,-0.82165 -8.64093,-1.6241 -8.81319,-1.78323 -0.17225,-0.15913 1.5268,-3.94888 3.77567,-8.42167 l 4.08886,-8.13233 5.05218,5.77885 c 2.77871,3.17837 6.02965,6.32541 7.22433,6.99342 8.09626,4.52706 18.97987,-3.93029 17.20854,-13.37227 -0.86968,-4.63581 -3.45004,-7.059 -15.64506,-14.69215 -5.83477,-3.65211 -11.84251,-7.87405 -13.35053,-9.38207 -10.32186,-10.32186 -8.96866,-27.39934 2.74494,-34.6413 6.25432,-3.86676 14.91078,-4.50244 28.59054,-2.09952 5.56804,0.97806 10.12372,2.11631 10.12372,2.52945 0,0.73488 -6.72762,12.99766 -7.62612,13.90054 -0.25026,0.25148 -2.82622,-2.11102 -5.72435,-5.25 -4.81126,-5.2111 -5.63665,-5.70724 -9.49462,-5.70724 -10.7409,0 -14.50659,10.72152 -6.38179,18.17001 1.49978,1.37494 7.00188,5.12249 12.22688,8.32789 5.225,3.20539 11.01745,7.21717 12.87211,8.91505 12.62298,11.55591 7.8396,33.28642 -8.62008,39.1603 -4.84926,1.73053 -17.48165,1.59919 -28.25203,-0.29373 z M 4.59591,327.5019 c 4.4391903,-4.58804 5.0062803,-5.92637 16.63124,-39.25 6.61943,-18.975 12.345,-35.2875 12.72349,-36.25 0.52199,-1.32744 1.84515,-1.75 5.47971,-1.75 h 4.79156 l 2.592398,7.25 c 1.425819,3.9875 7.105609,20.51728 12.621757,36.73283 9.396984,27.62388 10.293415,29.75189 14.217264,33.75 l 4.187906,4.26717 H 60.924819 44.0084 l 4.127088,-4.25 4.127086,-4.25 -2.207973,-7 -2.207973,-7 -12.110458,-0.27997 -12.11047,-0.27998 -2.48981,7.40531 -2.48982,7.4053 4.12467,4.12467 4.12467,4.12467 H 13.44771 0 Z m 39.48348,-27.70778 c -0.30767,-0.80178 -2.19628,-6.70131 -4.19692,-13.11007 -2.00063,-6.40876 -3.97899,-11.26526 -4.39635,-10.79222 -0.41735,0.47304 -2.36913,5.58507 -4.33728,11.36007 -1.96816,5.775 -3.88436,11.2875 -4.25823,12.25 -0.61732,1.58923 0.1667,1.75 8.53421,1.75 7.66076,0 9.11968,-0.24574 8.65457,-1.45778 z m 48.137221,28.16993 4.208212,-4.28785 v -31.9278 -31.9278 l -4.750004,-4.87591 -4.75,-4.87591 21.000001,0.45768 c 22.44033,0.48907 27.94821,1.45821 35.54594,6.25444 5.65842,3.57201 8.28632,7.9164 8.76139,14.48416 0.64069,8.85747 -2.92646,14.33293 -13.39744,20.56463 -1.65845,0.98702 -1.10144,2.33467 6.61314,16 4.63328,8.20722 10.4101,17.05971 12.8374,19.67221 l 4.41325,4.75 h -12.06561 -12.06562 l -9.32122,-18.25 c -8.99739,-17.61595 -9.43414,-18.26089 -12.57123,-18.56336 l -3.25,-0.31336 v 14.27551 14.27551 l 4.20821,4.28785 4.20821,4.28785 H 104.92482 88.008403 Z M 126.12049,285.2959 c 6.50194,-3.96448 8.93491,-11.80555 5.74736,-18.52282 -2.41607,-5.09149 -6.66544,-7.51279 -13.19303,-7.51744 l -5.25,-0.004 v 14 14 l 4.75,-0.004 c 2.94248,-0.002 5.96605,-0.74521 7.94567,-1.95226 z m 60.09612,42.66815 4.20821,-4.28785 V 291.46405 259.2519 h -5.71855 c -5.5521,0 -5.87229,0.15182 -11,5.21584 l -5.28145,5.21584 v -9.71584 -9.71584 h 30.5 30.5 v 9.71584 9.71584 l -5.28145,-5.21584 c -5.12771,-5.06402 -5.4479,-5.21584 -11,-5.21584 h -5.71855 v 32.21215 32.21215 l 4.20821,4.28785 4.20821,4.28785 H 198.92482 182.0084 Z m 56.20821,-83.84983 v -3.13768 l -5.25,0.63837 c -2.8875,0.35111 -6.9375,0.92195 -9,1.26853 -3.41371,0.57363 -3.75,0.42732 -3.75,-1.63154 0,-2.06177 -0.33146,-2.20454 -3.75,-1.61515 -13.57057,2.33967 -14.22489,2.11562 -9.66111,-3.30812 2.39276,-2.84363 2.44027,-3.07673 0.62712,-3.07673 -1.07897,0 -4.1116,0.95097 -6.73916,2.11327 -4.09924,1.81328 -5.31287,1.95283 -8.54968,0.98306 -8.71019,-2.60964 -17.74726,-17.90983 -18.6624,-31.59633 -0.43959,-6.57438 -0.25042,-7.39522 3.11122,-13.5 10.94669,-19.87931 11.11119,-20.36803 11.25939,-33.45123 l 0.13539,-11.95123 9.36461,-5.8885 c 5.15054,-3.23868 9.52621,-6.04721 9.72371,-6.2412 0.1975,-0.19398 -0.66927,-1.8411 -1.92616,-3.66027 -1.25689,-1.81916 -2.35953,-3.42362 -2.45032,-3.56546 -0.0908,-0.14185 -4.46412,2.00533 -9.71851,4.7715 l -9.55346,5.0294 -1.09561,-3.14288 -1.09561,-3.14287 -2.75971,1.75082 c -1.51784,0.96295 -3.9771,2.8825 -5.46503,4.26566 -2.6128,2.42882 -2.79375,2.45689 -5.29099,0.82064 -2.24037,-1.46795 -3.06081,-1.52238 -6.14378,-0.40756 -3.26011,1.17887 -3.70234,1.10852 -5.28012,-0.83996 -1.21098,-1.49549 -2.18247,-1.8689 -3.27362,-1.25826 -1.20064,0.67191 -2.39144,-0.39655 -5.26435,-4.72347 l -3.71275,-5.5918 -3.41648,3.31139 c -1.87907,1.82126 -3.07811,3.60562 -2.66454,3.96523 0.41357,0.35962 5.02695,2.34437 10.25195,4.41057 5.225,2.0662 10.625,4.221 12,4.78843 l 2.5,1.0317 -2.30902,0.60967 c -3.5029,0.92492 -2.72511,2.54237 1.52171,3.16445 2.08302,0.30513 4.91231,1.17614 6.28731,1.93559 2.43827,1.34672 2.34053,1.42045 -3.95768,2.98552 l -6.45767,1.60469 6.09603,2.22273 c 3.35281,1.22249 6.65137,2.89187 7.33012,3.70971 1.07003,1.28931 0.38694,1.48903 -5.13836,1.5023 -8.97648,0.0216 -10.49669,1.37041 -3.75452,3.33129 2.96015,0.86093 6.28208,2.24583 7.38208,3.07756 1.84931,1.3983 1.4726,1.51992 -5,1.61432 -10.40411,0.15174 -12.01103,1.21151 -4.86603,3.20918 3.22631,0.90205 6.76603,2.32603 7.86603,3.16441 1.85266,1.41202 1.4843,1.52767 -5,1.56978 -7.64941,0.0497 -11.5,0.76447 -11.5,2.13478 0,0.48585 1.13945,0.88337 2.53212,0.88337 3.20412,0 8.5776,2.21957 10.24697,4.23261 1.12895,1.36137 0.54206,1.54699 -5,1.58142 -3.4535,0.0215 -7.62909,0.57731 -9.27909,1.23523 l -3,1.19622 5.77949,1.36078 c 3.17872,0.74842 6.9665,1.9827 8.41728,2.74285 2.54119,1.33146 2.38703,1.40892 -4.20972,2.11537 -10.62863,1.13823 -11.8765,1.99928 -4.90968,3.38775 9.36902,1.86723 9.55834,2.69434 1.04997,4.58727 -4.17353,0.92852 -7.81069,2.04815 -8.08257,2.48806 -0.27188,0.43991 1.63183,1.053 4.23045,1.36243 2.59863,0.30943 6.07478,1.12374 7.72478,1.80958 2.91538,1.2118 2.80594,1.26832 -3.87995,2.00365 -8.61005,0.94695 -10.40556,2.40673 -3.90694,3.1764 2.65192,0.31408 7.06385,1.48011 9.80428,2.59118 l 4.98261,2.02014 -6.60078,0.0545 c -7.163,0.0592 -12.4527,1.44854 -13.23033,3.47501 -0.36024,0.93878 1.99423,1.5862 8.81844,2.42484 13.2037,1.62264 16.11357,3.00772 6.51267,3.09999 -4.125,0.0396 -9.95485,0.36678 -12.95522,0.72698 l -5.45522,0.6549 8.95522,2.35606 c 9.4724,2.49213 22.81821,8.38141 29.15499,12.86559 2.09012,1.47907 2.90023,2.35381 1.80023,1.94387 -16.6127,-6.19117 -30.05219,-8.48332 -49.77144,-8.48869 l -14.77144,-0.004 -1.13907,2.5 c -1.32436,2.90664 -3.1269,3.10455 -8.36024,0.91792 -3.41999,-1.42896 -3.87061,-1.43167 -4.65615,-0.028 -0.7754,1.38558 -1.41042,1.34095 -5.85685,-0.41167 -6.838271,-2.6954 -14.065363,-3.36642 -22.913169,-2.12744 -4.107596,0.57519 -7.638583,0.87558 -7.846638,0.66753 -1.17678,-1.17678 14.551311,-4.78756 22.814996,-5.23775 7.347134,-0.40026 9.961101,-0.9376 11.534721,-2.37113 1.5275,-1.39153 2.93996,-1.70669 5.66621,-1.26428 5.85404,0.94998 16.69821,-1.38259 20.22615,-4.35063 6.19942,-5.21554 7.57157,-8.06151 7.58827,-15.73883 0.0203,-9.31445 3.0017,-20.77893 8.59641,-33.05572 8.45987,-18.56397 8.67146,-19.17676 7.94988,-23.02313 -1.32561,-7.06609 -10.41263,-14.06716 -20.75588,-15.99129 l -3.69425,-0.68723 -0.30575,5.03686 -0.30576,5.03685 -5.30395,-1.80062 c -2.91718,-0.99035 -6.55359,-2.99785 -8.08092,-4.46113 l -2.77696,-2.66049 -3.87587,3.08015 -3.87586,3.08015 -2.39476,-4.05506 c -1.31712,-2.23028 -2.814067,-4.05505 -3.326557,-4.05505 -0.51248,0 -2.50679,1.575 -4.431794,3.5 -4.07007,4.07007 -5.907723,4.37498 -7.533601,1.25 -0.643851,-1.2375 -1.265535,-2.36835 -1.381519,-2.513 -0.115984,-0.14465 -1.948285,1.37558 -4.07178,3.37829 -2.123495,2.00272 -3.968404,3.24607 -4.099798,2.763 -0.131394,-0.48306 -0.730256,-2.78995 -1.330805,-5.12642 -1.046198,-4.07029 -1.184504,-4.18944 -3.303867,-2.8461 -1.216578,0.77112 -4.188665,1.72068 -6.604637,2.11014 l -4.392677,0.7081 0.512231,-4.5445 0.512231,-4.5445 -6.940967,-1.24042 c -6.304324,-1.12665 -6.886348,-1.43094 -6.345481,-3.31751 1.97892,-6.90256 1.905287,-7.45261 -1.087263,-8.12201 -6.771816,-1.51479 -6.518816,-1.28148 -4.627226,-4.26691 0.93678,-1.47849 3.066415,-4.42376 4.732529,-6.54506 l 3.0293,-3.85689 -3.440528,-2.874994 -3.440531,-2.874989 7.165084,-7.165081 7.165082,-7.165081 -3.171661,-3.603033 -3.171661,-3.603033 4.811313,-0.309455 c 3.73349,-0.240132 5.103549,0.0959 6.115833,1.5 4.419547,6.130199 3.382031,5.787704 11.560479,3.816235 4.073625,-0.981974 7.583215,-1.936842 7.799091,-2.121928 0.215875,-0.185086 -0.176725,-1.022395 -0.872445,-1.860686 -1.104861,-1.331276 -0.626932,-1.524166 3.77646,-1.524166 2.944459,0 6.291084,0.717218 8.045844,1.724311 2.844324,1.632414 3.105984,1.632414 4.909784,0 1.495437,-1.353358 3.770797,-1.724311 10.576597,-1.724311 8.09658,0 8.67126,0.136905 8.67126,2.065741 0,5.381203 5.16958,8.935084 10.05415,6.911828 2.62465,-1.087163 4.94585,-4.618648 4.94585,-7.524622 0,-0.949756 1.04557,-1.452947 3.01905,-1.452947 2.78575,0 2.9684,0.212509 2.36356,2.75 -0.36052,1.5125 -1.49387,5 -2.51855,7.75 -1.02468,2.75 -1.86328,5.3375 -1.86356,5.75 -5.9e-4,0.89106 6.52663,0.824722 9.80786,-0.09968 2.27654,-0.641357 2.2662,-0.67522 -0.75,-2.456856 -1.6821,-0.993595 -3.05799,-2.118595 -3.05755,-2.5 4.5e-4,-0.381405 0.85241,-2.943464 1.89324,-5.693464 1.73208,-4.576384 2.19246,-5.025965 5.4339,-5.306474 3.31379,-0.286768 3.53629,-0.123302 3.46049,2.542419 -0.19075,6.709105 5.14916,10.187155 10.04861,6.54497 1.87346,-1.392702 2.75496,-3.061918 2.97332,-5.630257 0.26512,-3.118469 0.66601,-3.650658 2.75,-3.650658 2.17957,0 2.43963,0.426393 2.43963,4 v 4 h 4.42208 c 3.92178,0 4.80943,-0.452544 7.84592,-4 3.29849,-3.853542 3.64672,-4 9.51054,-4 5.12632,0 6.18294,0.303288 6.69677,1.922214 1.08963,3.433112 8.25761,9.077786 11.52757,9.077786 2.96621,0 2.99712,-0.05673 2.99712,-5.5 v -5.5 h 17.56739 c 17.11231,0 17.55094,0.05181 16.93261,2 -0.5696,1.794666 -0.1797,2 3.79775,2 2.91834,0 5.30111,-0.68322 6.97512,-2 1.39842,-1.1 3.55385,-2 4.78985,-2 2.1697,0 2.18595,0.06774 0.47099,1.962755 -2.50604,2.769143 -1.41001,4.531974 3.70882,5.965157 3.3006,0.924113 5.44463,0.964142 8.43999,0.157576 4.7827,-1.287846 10.91903,-5.314139 10.56748,-6.933741 -0.1699,-0.782729 1.98274,-1.151747 6.71862,-1.151747 8.2463,0 8.58447,1.419483 1.34843,5.660084 l -4.44863,2.607072 3.42736,2.825122 c 1.88505,1.553818 4.0211,4.258515 4.74677,6.010438 1.28059,3.091617 1.21112,3.272177 -2.36158,6.138294 -2.02453,1.624139 -3.68097,3.253096 -3.68097,3.619901 0,0.36681 2.14584,1.68571 4.76853,2.93088 2.62269,1.24517 6.11019,3.35602 7.75,4.69079 l 2.98147,2.42684 -4.5,3.93362 c -4.24186,3.70798 -4.40653,4.04042 -2.87059,5.79529 2.02294,2.31129 4.59741,7.33593 6.4521,12.5927 l 1.41257,4.00365 -10.22599,-0.36734 -10.22599,-0.36734 -2.27164,4.77171 c -3.37144,7.08189 -5.61384,7.69169 -13.94872,3.7932 -3.75196,-1.75491 -7.81134,-4.11936 -9.02086,-5.25434 -2.93308,-2.75233 -4.93223,-1.77306 -6.40319,3.13656 -1.3665,4.56099 -2.37885,4.85285 -8.87844,2.55966 -4.90403,-1.73024 -5.3324,-1.5792 -7.01036,2.47175 -1.4799,3.57278 -2.80111,3.75934 -6.42669,0.90746 -1.47814,-1.16271 -2.80002,-1.95021 -2.93752,-1.75 -0.1375,0.2002 -1.02418,1.6015 -1.97039,3.114 -1.96073,3.13417 -4.19703,3.49189 -6.84555,1.09501 -1.70166,-1.53998 -1.95582,-1.53998 -3.65748,0 -2.15325,1.94867 -8.16402,2.24602 -8.18657,0.40499 -0.0386,-3.15113 -1.609,-3.99471 -4.60199,-2.47209 -1.81094,0.92128 -3.62628,1.16837 -4.8827,0.66459 -1.1,-0.44106 -2.26087,-0.83356 -2.5797,-0.87222 -0.31884,-0.0387 0.0548,2.96722 0.83028,6.67972 1.93654,9.27079 1.14033,13.44009 -5.17121,27.0785 -8.7364,18.87821 -9.26091,23.44614 -4.03046,35.10115 2.88497,6.42855 6.366,10.07035 9.62579,10.07035 1.04774,0 3.66912,-0.9 5.8253,-2 5.03629,-2.56932 5.34892,-2.52636 4.55766,0.62628 -0.61834,2.46366 -0.48574,2.58492 2.14159,1.95828 1.54041,-0.36739 4.93825,-0.93147 7.55075,-1.2535 4.18783,-0.51622 4.74994,-0.36334 4.7495,1.29171 -4.7e-4,1.7254 0.73937,1.84852 9.14727,1.52223 8.07253,-0.31326 9.07539,-0.16633 8.53189,1.25 -0.90006,2.34554 1.58623,2.0582 11.88375,-1.37343 8.22351,-2.74047 8.7024,-2.80243 5.99393,-0.77553 l -2.94366,2.20291 10.55817,1.17009 c 12.67225,1.40437 24.761,4.34068 32.89041,7.98894 3.28916,1.47609 5.85338,2.81072 5.69825,2.96584 -0.15512,0.15513 -3.42697,-0.44556 -7.27078,-1.33485 -4.99329,-1.15524 -12.15416,-1.63433 -25.07984,-1.67794 -17.2143,-0.0581 -18.06722,-0.15237 -17.59815,-1.9457 0.73012,-2.7914 -1.78926,-1.07605 -6.80706,4.63467 -2.29551,2.6125 -4.58541,4.75 -5.08867,4.75 -0.50325,0 -0.91501,-1.41196 -0.91501,-3.13768 z M 230.37479,136.85525 c 2.6713,-5.51818 2.71339,-7.51366 0.10875,-5.1565 -1.88478,1.70571 -2.0706,1.55507 -6.3852,-5.17613 -2.9991,-4.67891 -5.46704,-7.35677 -7.59078,-8.23645 -1.73078,-0.71691 -3.38702,-1.06333 -3.68053,-0.76981 -0.7101,0.7101 1.15204,7.47448 3.54661,12.88335 1.05972,2.3937 3.57783,6.27989 5.59581,8.63597 4.19765,4.90095 5.08927,4.66966 8.40534,-2.18043 z m 46.40818,-1.35335 c 0.34091,-2.0625 0.62479,-6.50625 0.63084,-9.875 0.0109,-6.0631 -0.0206,-6.13132 -3.11399,-6.75 -7.4255,-1.4851 -7.381,-1.53281 -7.31901,7.84758 0.0308,4.66 0.25579,8.66641 0.5,8.90313 0.52281,0.50679 7.16243,3.42404 8.06317,3.54271 0.34053,0.0449 0.89808,-1.60592 1.23899,-3.66842 z m -25.35818,-1.5 c -3e-5,-4.3199 -1.04778,-5.633 -9.24531,-11.58679 -2.20895,-1.60434 -4.75466,-0.0386 -4.75466,2.92444 0,3.21455 9.93347,12.89208 13.25,12.90861 0.4125,0.002 0.74999,-1.90876 0.74997,-4.24626 z M 100.72658,123.20197 c 5.32578,-4.77551 5.7469,-5.45858 5.13318,-8.32619 -0.36771,-1.71813 -0.84775,-3.31812 -1.06674,-3.55553 -0.21899,-0.2374 -1.85392,0.92869 -3.63318,2.59133 -1.779257,1.66264 -4.697517,4.02502 -6.485021,5.24974 -2.849317,1.95224 -3.25,2.7775 -3.25,6.69386 0,5.36368 0.529531,5.21264 9.301761,-2.65321 z m 39.10849,5.79993 c -1.30948,-2.31265 -4.75031,-5.75 -5.75582,-5.75 -0.54832,0 -1.8534,0.77508 -2.90017,1.7224 -1.84047,1.66559 -1.74414,1.77845 2.92126,3.42249 5.97474,2.10544 6.62299,2.17384 5.73473,0.60511 z m 40.1135,-5.78427 c 3.7471,-5.40707 2.77361,-6.68816 -2.29319,-3.01779 -3.64116,2.63765 -4.23056,3.57294 -4.23056,6.71332 0,3.53687 0.059,3.59536 1.92331,1.90814 1.05782,-0.95731 3.12801,-3.47896 4.60044,-5.60367 z m -18.22457,1.80334 c 2.74825,-3.39555 2.87572,-3.95411 2.21044,-9.6862 -0.64288,-5.53909 -0.91841,-6.08287 -3.08213,-6.08287 -4.3845,0 -6.82972,8.33919 -4.95201,16.88835 0.84771,3.85963 1.96824,3.64427 5.8237,-1.11928 z m 135.70082,3.61708 c 0,-0.33761 -0.98286,-2.36261 -2.18414,-4.5 -1.94533,-3.46123 -2.60411,-3.88615 -6.025,-3.88615 -3.46073,0 -3.89977,0.29453 -4.43605,2.97596 -0.32736,1.63678 -0.55882,3.32428 -0.51435,3.75 0.14632,1.40109 13.15954,3.04282 13.15954,1.66019 z M 118.58739,127.0019 c 1.79427,-1.45185 4.83743,-5.83814 4.83743,-6.97251 0,-0.42762 -0.85338,-0.77749 -1.89641,-0.77749 -1.87711,0 -8.10359,6.17362 -8.10359,8.0348 0,1.37756 3.33552,1.19356 5.16257,-0.2848 z m -40.160764,-2.25071 c 3.509569,-1.37539 6.738004,-3.06289 7.174301,-3.75 0.436297,-0.68711 0.800157,-3.62591 0.808579,-6.53068 0.01736,-5.98594 -1.14642,-7.03514 -6.196823,-5.5867 -2.370257,0.67978 -3.883969,2.29861 -6.431895,6.87854 -3.102788,5.57732 -4.412681,11.48955 -2.545583,11.48955 0.445713,0 3.681852,-1.12532 7.191421,-2.50071 z m 116.498194,-0.70372 c 1.60698,-0.29982 1.94487,-1.04294 1.71945,-3.78158 -0.15431,-1.87463 -0.40294,-3.53081 -0.55251,-3.68039 -0.14958,-0.14958 -1.93583,-0.002 -3.96945,0.32806 -4.04329,0.65614 -4.18906,1.02788 -2.61949,6.68042 0.89146,3.21044 1.26045,3.59421 2.24443,2.33436 0.64766,-0.82925 2.07757,-1.67564 3.17757,-1.88087 z m 67.30085,-1.38607 0.30085,-3.07412 -9.80085,-2.56815 c -5.39047,-1.41248 -10.02503,-2.35126 -10.29902,-2.08618 -1.23856,1.19825 15.51151,11.49374 17.99817,11.06263 0.86718,-0.15035 1.62692,-1.55698 1.80085,-3.33418 z m -30.78408,0.0464 c 2.61455,-6.87679 2.61368,-6.87848 -4.18256,-8.17006 -3.44472,-0.65464 -6.41352,-1.03986 -6.59733,-0.85604 -0.97895,0.97894 1.36572,5.92204 4.05715,8.55342 3.76773,3.68365 5.45678,3.80241 6.72274,0.47268 z M 67.424819,118.2519 c 0,-2.76191 -0.277778,-3 -3.5,-3 -3.222222,0 -3.5,0.23809 -3.5,3 0,2.7619 0.277778,3 3.5,3 3.222222,0 3.5,-0.2381 3.5,-3 z m 79.910791,-1.31573 c 3.65165,-7.5433 2.33944,-10.14723 -2.3219,-4.60755 -2.82488,3.35718 -2.83659,3.39709 -1.9586,6.67328 0.88162,3.28977 1.93375,2.78203 4.2805,-2.06573 z m 60.98611,1.71967 2.04206,-2.59605 -3.71948,-4.45196 -3.71948,-4.45196 -1.75,2.1588 c -1.95473,2.41135 -2.28727,7.06482 -0.71482,10.00297 1.47786,2.76141 5.43077,2.42865 7.86172,-0.6618 z m -69.8969,-1.40394 c 2.77983,-2.77983 2.57572,-7.51519 -0.45455,-10.54546 -2.80809,-2.80809 -5.43037,-3.08253 -9.47393,-0.99153 -3.02768,1.56568 -4.07152,3.35102 -4.07152,6.96379 0,5.53685 9.82646,8.74674 14,4.5732 z m -19.34575,-5.5 c 4.37774,-5.81734 4.68127,-6.5 2.89008,-6.5 -0.86553,0 -3.17716,1.46946 -5.13693,3.26546 -3.02682,2.77387 -3.45715,3.68814 -2.85853,6.07321 0.38758,1.54427 1.01757,2.43731 1.39998,1.98455 0.3824,-0.45277 2.04983,-2.62322 3.7054,-4.82322 z m 52.45021,-2.17911 -2.01607,-3.82089 -0.0442,3.92126 c -0.0268,2.37916 0.64402,4.68647 1.7058,5.86704 1.73093,1.92458 1.75338,1.92348 2.06026,-0.10036 0.17064,-1.12539 -0.59697,-3.76556 -1.7058,-5.86705 z m 114.89554,4.67911 c 4.71372,-4.71372 0.57243,-12 -6.82041,-12 -7.03407,0 -10.78708,7.49285 -5.99103,11.96104 2.97977,2.77608 10.05281,2.79759 12.81144,0.0389 z m -23,-3.24858 c 0,-1.49207 -2.36011,-4.46362 -7.01492,-8.83227 l -7.01492,-6.583684 6.71186,-4.008568 c 3.69153,-2.204712 6.86104,-4.456079 7.04336,-5.003037 0.18232,-0.546958 -1.50132,-1.820949 -3.74141,-2.831091 l -4.0729,-1.836623 -5.45554,5.387766 c -3.00054,2.963271 -5.45553,5.97847 -5.45553,6.700443 0,0.721972 1.37792,4.04232 3.06204,7.378554 2.90952,5.76372 2.97187,6.13181 1.25158,7.38972 -0.99576,0.72811 -1.58618,1.49721 -1.31205,1.7091 2.04315,1.5792 6.30219,2.65327 10.74843,2.71059 4.79686,0.0618 5.25,-0.1264 5.25,-2.1809 z m -162.25,-4.47098 c 1.82013,-1.22189 2.25,-2.44375 2.25,-6.39545 0,-4.714634 -0.10033,-4.884991 -2.87686,-4.884991 -2.493737,0 -3.159587,0.657243 -5.000001,4.935381 -2.05338,4.77323 -2.76461,10.08982 -1.51669,11.33773 0.33355,0.33355 1.57105,-0.3135 2.750004,-1.43788 1.17895,-1.12438 3.15605,-2.72404 4.393547,-3.55479 z m -35.666547,3.19011 c 4.92126,-1.73632 5.879557,-2.82766 5.901233,-6.72055 0.01186,-2.13004 -0.45713,-2.75 -2.080317,-2.75 -3.052391,0 -13.90437,7.95074 -13.90437,10.18709 0,1.31698 5.409324,0.93259 10.083454,-0.71654 z m 127.461997,-0.9251 c 1.91221,-1.9122 2.45455,-3.49672 2.45455,-7.17126 0,-6.347144 -1.93179,-8.374191 -7.98067,-8.374191 -6.12782,0 -9.29206,3.064784 -9.29206,9.000001 0,5.5932 3.2147,9 8.4925,9 2.77677,0 4.56504,-0.6939 6.32568,-2.45455 z m 44.76058,0.42846 c 3.18992,-2.50918 4.13876,-5.27429 2.71972,-7.92579 -1.17264,-2.191096 -5.96975,-5.048121 -8.47609,-5.048121 -2.74981,0 -5.54966,3.783811 -5.54966,7.500001 0,6.64951 6.07332,9.58997 11.30603,5.47391 z m -21.19845,-3.81898 c 1.52354,-7.508841 -3.07903,-14.327396 -9.81247,-14.536868 -3.30901,-0.102941 -3.8395,0.196524 -4.14166,2.337989 -0.93287,6.611347 5.71899,16.434799 10.72875,15.844179 1.99268,-0.23492 2.69431,-1.02789 3.22538,-3.6453 z M 82.864769,104.71254 c 4.40823,-1.84187 3.80056,-2.97209 -2.114543,-3.93288 -3.557255,-0.5778 -4.333624,-0.38092 -5.25,1.33134 -0.591474,1.10518 -1.075407,2.76278 -1.075407,3.68357 0,1.88183 1.942447,1.6328 8.43995,-1.08203 z m 64.245601,-1.63495 c 2.63217,-2.4728 3.37209,-9.825691 0.98876,-9.825691 -2.59118,0 -7.67431,7.329041 -7.67431,11.065101 0,1.75092 4.36357,0.94197 6.68555,-1.23941 z m 12.63081,-1.04761 c 1.55073,-2.07703 1.8037,-3.491796 1.26577,-7.078989 -0.55765,-3.718664 -1.09093,-4.563201 -3.12721,-4.952461 -2.43994,-0.466423 -2.45492,-0.420799 -2.45492,7.475374 0,8.557976 0.74299,9.342226 4.31636,4.556076 z m -42.59979,-2.413939 c 3.87156,-1.478562 4.28343,-1.959336 4.28343,-5 0,-3.890556 -1.74341,-4.333847 -7.53212,-1.915169 -3.03409,1.267724 -3.46788,1.893166 -3.46788,5 0,4.055268 0.63711,4.236938 6.71657,1.915169 z m 150.16689,-0.114142 c 2.28421,-1.898956 1.93222,-2.96581 -1.82708,-5.53773 -2.26253,-1.547912 -2.57748,-1.550657 -4.25,-0.03705 -2.40132,2.173163 -2.27811,3.880957 0.41613,5.768074 2.78986,1.954097 3.09024,1.943847 5.66095,-0.193296 z m -133.65889,0.192095 c 0.30685,-0.306847 0.32757,-1.438724 0.046,-2.515282 -0.41387,-1.582655 -1.25426,-1.906592 -4.38977,-1.692096 -3.27575,0.22409 -3.87814,0.614663 -3.87937,2.515283 -10e-4,1.942284 0.52279,2.250001 3.83186,2.250001 2.10834,0 4.08439,-0.25106 4.39124,-0.557906 z m 149.20576,-4.847853 4.93033,-2.387471 -7.15536,-3.603386 c -8.08652,-4.072303 -9.68012,-4.337901 -11.1204,-1.853385 -0.83085,1.433244 -0.16108,2.512309 3.70031,5.961579 2.59314,2.316368 4.71479,4.224753 4.71479,4.240857 0,0.0161 2.21865,-1.045084 4.93033,-2.358194 z m -215.569272,0.783546 3.111059,-0.622212 -2.517308,-2.991651 c -1.612103,-1.915875 -2.302043,-3.669891 -1.918671,-4.877788 1.348221,-4.24787 -7.0029,-0.619538 -9.556589,4.152075 -0.829676,1.550263 -0.519242,2.148113 1.756321,3.38241 3.112653,1.688347 4.658528,1.850498 9.125188,0.957166 z m 19.472077,-1.193405 c 0.903711,-0.99859 1.923739,-3.21876 2.26673,-4.933712 1.311035,-6.555174 -8.072006,-10.927944 -13.689082,-6.379512 -1.672442,1.354262 -2.310784,2.9092 -2.310784,5.628841 0,2.719641 0.638342,4.274579 2.310784,5.628841 3.015464,2.441774 9.235469,2.47202 11.422352,0.05554 z M 172.23818,92.49371 c 0.29177,-3.01844 0.10228,-3.241811 -2.75,-3.241811 -1.68485,0 -3.0695,0.3375 -3.07701,0.75 -0.008,0.4125 -0.27427,1.721463 -0.59279,2.908807 -0.41793,1.557926 -0.0662,2.293977 1.26366,2.644437 3.61591,0.952904 4.83826,0.227141 5.15614,-3.061433 z m 60.18664,-0.707015 c 0,-2.265863 -5.8863,-8.436145 -10.0973,-10.584437 l -3.78667,-1.931812 0.19199,6.986868 0.19198,6.986867 6.75,0.0039 c 5.26384,0.003 6.75,-0.318737 6.75,-1.461345 z M 112.8603,86.922734 c 1.48465,-1.085599 1.6113,-1.714918 0.69113,-3.434259 -0.61963,-1.157801 -1.12661,-3.034677 -1.12661,-4.170835 0,-2.812992 -5.15224,-2.805585 -9.11072,0.0131 -2.49825,1.77891 -5.889277,6.5992 -5.889277,8.371502 0,1.192449 13.683727,0.501409 15.435477,-0.779505 z m 85.56452,0.697199 c 0,-0.347581 -0.92234,-2.124348 -2.04965,-3.948371 -2.91087,-4.709881 -5.30133,-5.153528 -9.40427,-1.74534 -1.87093,1.554122 -3.43417,3.135604 -3.47388,3.514404 -0.0397,0.3788 1.8403,0.935287 4.1778,1.236639 4.06034,0.52346 8.39389,1.14682 10,1.438452 0.4125,0.0749 0.75,-0.148203 0.75,-0.495784 z m 45.02002,-0.878384 c 3.27235,-1.6922 5.1881,-4.540915 4.1602,-6.186226 -0.37412,-0.598847 -4.72437,-1.424208 -9.66721,-1.834136 -10.07845,-0.835843 -9.94059,-1.113454 -3.11901,6.280712 3.37983,3.663515 4.47756,3.8849 8.62602,1.73965 z M 3.92482,195.7519 c 0,-8.44375 0.0169,-8.5 2.5492003,-8.5 2.32453,0 2.51319,0.30846 2.14059,3.5 -0.37848,3.24197 -0.20817,3.5 2.3102097,3.5 2.51838,0 2.68869,-0.25803 2.31021,-3.5 -0.38676,-3.31284 -0.24823,-3.5 2.59059,-3.5 2.33271,0 2.73253,0.26667 1.7992,1.2 -1.56637,1.56636 -1.56637,13.03364 0,14.6 0.93333,0.93333 0.53857,1.2 -1.77643,1.2 -2.8694,0 -2.96271,-0.14382 -2.59496,-4 0.36015,-3.77652 0.23005,-4 -2.32861,-4 -2.5586597,0 -2.6887597,0.22348 -2.3286097,4 0.35398,3.71182 0.19944,4 -2.14496,4 -2.5037503,0 -2.5264303,-0.0763 -2.5264303,-8.5 z m 19,2 v -6.5 h 4.75 c 3.27998,0 4.75,0.41062 4.75,1.32681 0,0.91473 -0.96215,1.18559 -3.09795,0.87212 -2.61698,-0.38409 -3.03798,-0.16313 -2.71169,1.42319 0.21268,1.03396 1.1555,1.81546 2.09795,1.73899 0.94143,-0.0764 1.71169,0.44398 1.71169,1.15638 0,0.80294 -0.7602,1.09647 -2,0.77226 -1.5416,-0.40314 -2,-0.0307 -2,1.625 0,2.617 2.48352,3.75878 4.51273,2.07468 1.21242,-1.00622 1.48727,-0.93449 1.48727,0.38813 0,1.26888 -1.03512,1.62244 -4.75,1.62244 h -4.75 z m 14,0 c 0,-5.83312 0.20519,-6.50007 2,-6.50063 1.79487,-5.7e-4 2,0.66582 2,6.49736 0,5.83047 -0.20546,6.49828 -2,6.50064 -1.79514,0.002 -2,-0.66316 -2,-6.49737 z m 11.722505,4.9433 c -3.17737,-2.22552 -2.951494,-6.72472 0.472832,-9.41829 3.209318,-2.52445 7.629482,-2.358 8.135105,0.30635 0.32851,1.73107 0.209527,1.74094 -2.172598,0.18011 -2.430011,-1.59221 -2.580195,-1.55961 -4.19923,0.91135 -1.911169,2.91681 -1.304423,7.31538 1.138402,8.25278 2.471283,0.94832 4.092456,-1.34193 2.619469,-3.70056 -1.118268,-1.79063 -0.97128,-1.97504 1.574239,-1.97504 2.619933,0 2.780351,0.23403 2.399068,3.5 -0.384044,3.28962 -0.629089,3.5 -4.076693,3.5 -2.017448,0 -4.668215,-0.70052 -5.890594,-1.5567 z m 15.277494,-4.94657 c 0,-5.91164 0.187404,-6.49794 2.076807,-6.49736 1.738648,5.3e-4 2.005114,0.48911 1.636501,3.00063 -0.376766,2.56707 -0.11893,3 1.786692,3 1.905622,0 2.163458,-0.43293 1.786692,-3 -0.404308,-2.75472 -0.19918,-3 2.508946,-3 2.482426,0 2.755999,0.23285 1.728344,1.4711 -0.72587,0.87462 -1.079617,3.5104 -0.872444,6.50062 0.314329,4.53687 0.145035,5.02946 -1.728345,5.0289 -1.73865,-5.2e-4 -2.005114,-0.4891 -1.636501,-3.00062 0.376766,-2.56707 0.11893,-3 -1.786692,-3 -1.905622,0 -2.163458,0.43293 -1.786692,3 0.368716,2.51223 0.102635,2.99957 -1.636501,2.99737 -1.889068,-0.002 -2.076807,-0.59004 -2.076807,-6.50064 z m 19.348265,0.90606 c 0.329622,-5.30017 0.235944,-5.56429 -1.75,-4.93398 -1.52181,0.48301 -2.098265,0.23536 -2.098265,-0.90142 0,-1.2332 1.172682,-1.56739 5.5,-1.56739 4.059501,0 5.5,0.36834 5.5,1.40638 0,0.93655 -0.701825,1.22285 -2.100841,0.857 -1.979288,-0.5176 -2.080541,-0.22281 -1.75,5.09498 0.316672,5.09465 0.156056,5.64437 -1.649159,5.64437 -1.803363,0 -1.965759,-0.55058 -1.651735,-5.59994 z m 11.151735,4.71931 c 0,-0.54924 1.18835,-0.91391 2.640794,-0.81036 3.731957,0.26605 3.915777,-1.55175 0.36879,-3.64701 -3.236704,-1.91196 -3.892654,-4.68696 -1.56462,-6.61905 1.7797,-1.47702 5.746077,-1.00796 6.324577,0.74794 0.30898,0.9378 -0.28835,1.11427 -2.17167,0.64159 -3.519727,-0.8834 -3.280917,0.5141 0.64312,3.76353 2.70947,2.24367 3.07331,3.00248 2.15773,4.5 -1.1824,1.93395 -8.398721,3.15692 -8.398721,1.42336 z m 119.711641,-1.13429 c -4.77746,-3.75794 -4.40173,-11.17909 0.73644,-14.54575 3.0353,-1.9888 7.55192,-1.22506 7.55192,1.27699 0,1.30741 -0.26667,1.41428 -1.2,0.48095 -3.18617,-3.18617 -6.8,-0.10379 -6.8,5.8 0,5.90379 3.61383,8.98617 6.8,5.8 0.93333,-0.93333 1.2,-0.846 1.2,0.39301 0,3.20974 -4.65124,3.65577 -8.28836,0.7948 z m 13.28836,-4.98781 c 0,-5.0471 0.27793,-6.00022 1.75,-6.00136 1.50161,-0.001 1.70018,0.80009 1.39903,5.64519 l -0.35097,5.64656 3.10097,-0.6202 c 1.7717,-0.35434 3.10097,-0.20224 3.10097,0.35481 0,0.53625 -2.025,0.975 -4.5,0.975 h -4.5 z m 13.5,-0.003 c 0,-5.04557 0.2778,-5.99759 1.75,-5.9972 1.47217,3.9e-4 1.75,0.95302 1.75,6.00046 0,5.04868 -0.27747,5.99956 -1.75,5.9972 -1.47184,-0.002 -1.75,-0.95613 -1.75,-6.00046 z m 9.33882,0.001 -0.33882,-6.00182 4.75,0.002 c 3.80321,0.001 4.75,0.34067 4.75,1.70182 0,1.32222 -0.26667,1.43333 -1.2,0.5 -1.98737,-1.98737 -4.8,-1.45026 -4.8,0.91663 0,1.6243 0.4652,1.99498 2,1.59362 1.2398,-0.32421 2,-0.0307 2,0.77226 0,0.7124 -0.7875,1.23277 -1.75,1.15638 -1.28446,-0.10194 -1.73951,0.59268 -1.71058,2.61111 0.0278,1.9374 -0.46309,2.75 -1.66118,2.75 -1.37426,0 -1.76562,-1.15171 -2.03942,-6.00182 z m 13.16118,0.002 v -6 h 4.5 c 3.56863,0 4.5,0.35185 4.5,1.7 0,1.32222 -0.26667,1.43333 -1.2,0.5 -1.87275,-1.87275 -3.8,-1.41275 -3.8,0.90699 0,1.46204 0.45915,1.93079 1.5,1.53138 0.90455,-0.3471 1.5,-0.005 1.5,0.86163 0,0.8667 -0.59545,1.20873 -1.5,0.86163 -1.13499,-0.43554 -1.5,0.18046 -1.5,2.53138 0,2.44032 -0.42914,3.10699 -2,3.10699 -1.77778,0 -2,-0.66667 -2,-6 z m -200.901366,-16.5 c -0.09555,-0.55 -1.76153,-2.8 -3.702178,-5 l -3.528449,-4 0.342422,4.25 c 0.265346,3.29336 -0.0012,4.25 -1.184004,4.25 -1.212011,0 -1.526426,-1.33888 -1.526426,-6.5 0,-7.61817 1.241855,-8.32257 5.72974,-3.25 l 2.875392,3.25 -0.379373,-3.25 c -0.286316,-2.4528 0.0074,-3.25015 1.197434,-3.25062 1.272262,-5e-4 1.521036,1.01348 1.288046,5.25 -0.322748,5.86863 -0.848761,9.76932 -1.112604,8.25062 z M 5.28588,177.26681 c -2.69651,-2.69651 -3.02924,-3.59772 -2.51479,-6.8113 0.75501,-4.71626 3.7813403,-7.20361 8.76451,-7.20361 3.31579,0 3.88922,0.31773 3.88922,2.15499 0,2.02437 -0.11084,2.05468 -1.82874,0.5 -2.34363,-2.12096 -3.47175,-2.08543 -5.5162697,0.17375 -2.3568703,2.60431 -2.17745,9.38846 0.30776,11.63755 2.9980697,2.71322 5.3424097,1.27339 4.8462697,-2.97643 -0.35204,-3.01552 -0.11976,-3.48986 1.70901,-3.48986 1.91222,0 2.0617,0.41006 1.5492,4.25 -0.5438,4.07448 -0.72275,4.26286 -4.33286,4.5613 -3.1048597,0.25667 -4.3109397,-0.23402 -6.87331,-2.79639 z m 16.63894,-3.51491 v -6.5 h 3.67857 c 2.02322,0 4.36659,0.68802 5.20751,1.52894 1.56773,1.56773 1.18341,4.47106 -0.59185,4.47106 -0.54548,0 -0.0625,1.575 1.07327,3.5 2.01875,3.42153 2.02154,3.5 0.12445,3.5 -1.1448,0 -2.57677,-1.23023 -3.49195,-3 -0.85325,-1.65 -1.81588,-3 -2.13918,-3 -0.3233,0 -0.38968,1.35 -0.14751,3 0.36863,2.51166 0.10224,3 -1.6365,3 -1.88941,0 -2.07681,-0.58654 -2.07681,-6.5 z m 6.1,-4.1 c -0.48405,-1.26141 -0.96557,-1.43444 -1.76557,-0.63443 -0.605,0.605 -0.80049,1.88049 -0.43443,2.83443 0.48405,1.26141 0.96556,1.43443 1.76556,0.63444 0.605,-0.605 0.8005,-1.8805 0.43444,-2.83444 z m 8.7655,8.35 c 0.77638,-1.2375 1.94458,-3.93123 2.596,-5.98607 1.13186,-3.57031 2.65956,-5.47621 3.61982,-4.51595 0.24654,0.24655 1.53316,3.21661 2.859158,6.60014 l 2.410903,6.15188 h -2.31458 c -1.590371,0 -2.271121,-0.5474 -2.175691,-1.74952 0.0879,-1.1078 -0.6864,-1.8669 -2.11111,-2.06955 -1.71163,-0.24346 -2.25,0.17516 -2.25,1.74952 0,1.41074 -0.644,2.06955 -2.02305,2.06955 -1.84957,0 -1.90201,-0.19295 -0.61145,-2.25 z m 5.6345,-4.30902 c 0,-0.85745 -0.45,-1.2809 -1,-0.94098 -0.55,0.33992 -1,1.04148 -1,1.55902 0,0.51754 0.45,0.94098 1,0.94098 0.55,0 1,-0.70156 1,-1.55902 z m 26.499999,0.059 v -6.5 h 4.17742 c 3.321864,0 4.601894,0.53963 6.25,2.63486 2.685266,3.41376 2.612736,4.91589 -0.381965,7.91059 -1.743786,1.74381 -3.553592,2.45457 -6.25,2.45457 h -3.795455 v -6.5 z m 8.306466,0.3154 c 0.233962,-2.81286 -0.148949,-3.9283 -1.618517,-4.71479 -2.603325,-1.39326 -3.187949,-0.54315 -3.187949,4.63563 0,3.99397 0.208967,4.3732 2.25,4.08333 1.798776,-0.25547 2.31146,-1.05847 2.556466,-4.00415 z m 10.658492,0.98551 c -0.951276,-2.91548 -2.17515,-5.86339 -2.71972,-6.55089 -0.747706,-0.94395 -0.233317,-1.25 2.100932,-1.25 2.053546,0 2.935383,0.41956 2.627253,1.25 -0.255094,0.6875 -0.07265,2.6 0.405433,4.25 l 0.869241,3 1.166765,-2.92245 c 0.641718,-1.60734 0.937518,-3.51984 0.657338,-4.25 -0.31636,-0.82442 0.23151,-1.32755 1.44561,-1.32755 1.901184,0 1.891234,0.1706 -0.36108,6.19323 -1.27386,3.40628 -2.798976,6.35419 -3.389145,6.55091 -0.590168,0.19672 -1.851351,-2.02773 -2.802627,-4.94323 z m 13.035043,-1.30089 c 0,-5.83333 0.20513,-6.5 2,-6.5 1.79487,0 2,0.66667 2,6.5 0,5.83333 -0.20513,6.5 -2,6.5 -1.79487,0 -2,-0.66667 -2,-6.5 z m 10,0 v -6.5 h 4.25 c 2.3375,0 4.25,0.45857 4.25,1.01905 0,0.58765 -1.05835,0.75343 -2.5,0.3916 -2.10562,-0.52848 -2.5,-0.27646 -2.5,1.59757 0,1.73271 0.44254,2.10932 2,1.70203 1.45682,-0.38096 2,-0.0307 2,1.28975 0,1.32043 -0.54318,1.67072 -2,1.28975 -1.55908,-0.40771 -2,-0.0307 -2,1.7102 0,1.84286 0.43698,2.14967 2.5,1.7553 1.67641,-0.32047 2.5,-0.0294 2.5,0.88342 0,0.9349 -1.3313,1.36133 -4.25,1.36133 h -4.25 z m 17.00861,5.25 c -0.23574,-0.6875 -1.30338,-3.6125 -2.37254,-6.5 l -1.94392,-5.25 h 2.46294 c 1.35462,0 2.21678,0.39831 1.9159,0.88513 -0.30087,0.48682 -0.039,2.34253 0.58196,4.12378 0.96554,2.76975 1.26779,2.99066 2.08757,1.52578 0.52722,-0.94207 0.75118,-2.79778 0.4977,-4.12378 -0.38438,-2.01076 -0.0592,-2.41091 1.95947,-2.41091 1.33119,0 2.22803,0.3375 1.99298,0.75 -0.23506,0.4125 0.11069,2.30911 0.76831,4.2147 l 1.19568,3.46469 1.1607,-3.32956 c 0.63838,-1.83126 0.91452,-3.72788 0.61365,-4.2147 -0.30088,-0.48682 0.33938,-0.88513 1.42278,-0.88513 1.89655,0 1.87354,0.24269 -0.61865,6.52411 -1.42367,3.58826 -3.04003,6.37359 -3.59192,6.18963 -0.55189,-0.18396 -1.52475,-1.88231 -2.16191,-3.77411 l -1.15847,-3.43963 -1.23797,3.75 c -1.24215,3.76265 -2.77392,4.83405 -3.57426,2.5 z m 83.99139,-7.25 c 0,-8.12112 0.0992,-8.5 2.22611,-8.5 1.55059,0 2.79119,1.10144 4.08827,3.62972 l 1.86216,3.62972 2.24329,-3.62972 c 1.23381,-1.99635 2.99409,-3.62881 3.91173,-3.62769 1.42689,0.002 1.66844,1.23248 1.66844,8.50088 0,7.89804 -0.14474,8.49878 -2.04739,8.49797 -1.89686,-8.2e-4 -2.02063,-0.49717 -1.68341,-6.75088 l 0.36398,-6.75 -2.71651,4.40635 -2.7165,4.40634 -2.35855,-4.40634 -2.35855,-4.40635 0.25847,6.7521 c 0.20865,5.45081 -0.0306,6.75169 -1.24154,6.75 -1.21552,-0.002 -1.5,-1.61414 -1.5,-8.5021 z m 20.5,7.7 c 0,-0.44 0.39083,-1.2275 0.86851,-1.75 0.47767,-0.5225 1.66381,-3.0875 2.63585,-5.7 0.97205,-2.6125 2.17221,-4.75 2.66704,-4.75 0.49482,0 1.78362,2.1375 2.86399,4.75 1.08038,2.6125 2.4182,5.5375 2.97294,6.5 0.86286,1.4971 0.58738,1.75 -1.90624,1.75 -2.4634,0 -2.83029,-0.32336 -2.36887,-2.08785 0.45576,-1.74281 0.15109,-2.03193 -1.84362,-1.74951 -1.55127,0.21963 -2.34087,0.9521 -2.25071,2.08784 0.0871,1.09757 -0.565,1.74952 -1.75,1.74952 -1.03889,0 -1.88889,-0.36 -1.88889,-0.8 z m 7,-5.14098 c 0,-0.51754 -0.45,-1.2191 -1,-1.55902 -0.55,-0.33992 -1,0.0835 -1,0.94098 0,0.85746 0.45,1.55902 1,1.55902 0.55,0 1,-0.42344 1,-0.94098 z m 9.5,-0.55902 v -6.5 h 3.55887 c 1.95738,0 4.42013,0.62977 5.47278,1.39948 1.71636,1.25504 1.77079,1.6669 0.52735,3.99029 -1.21452,2.26935 -1.18013,2.8189 0.27722,4.42926 2.15489,2.38113 2.10086,3.18097 -0.2149,3.18097 -1.14461,0 -2.36422,-1.17221 -3.12132,-3 -0.68345,-1.65 -1.63805,-3 -2.12132,-3 -1.29621,0 -1.06789,3.41079 0.32132,4.8 0.93333,0.93333 0.54444,1.2 -1.75,1.2 h -2.95 z m 6.30963,-3.25 c -0.40593,-2.10784 -2.18068,-1.97493 -2.63295,0.19718 -0.18865,0.90598 0.36259,1.55282 1.32332,1.55282 1.02996,0 1.52043,-0.6554 1.30963,-1.75 z m 8.69037,3.25 v -6.5 h 3.67857 c 4.60521,0 7.50525,2.46685 5.60595,4.76857 -1.01973,1.23578 -1.02684,1.6434 -0.0345,1.97738 1.92685,0.64852 1.47945,4.06089 -0.68426,5.21887 -1.06384,0.56935 -3.42634,1.03518 -5.25,1.03518 h -3.31574 v -6.5 z m 7.32332,2.83287 c -0.48655,-2.50877 -2.82332,-2.85325 -2.82332,-0.4162 0,1.22833 0.64569,2.08333 1.57332,2.08333 0.93124,0 1.44138,-0.68037 1.25,-1.66713 z m -0.82332,-5.83287 c 0,-0.76008 -0.45,-1.66008 -1,-2 -0.5694,-0.35191 -1,0.50929 -1,2 0,1.49071 0.4306,2.35191 1,2 0.55,-0.33992 1,-1.23992 1,-2 z m 8.5,3 c 0,-6.2663 0.0899,-6.50005 2.5,-6.50136 2.41258,-0.001 2.48775,0.19575 2.14958,5.63577 -0.34804,5.59883 -0.33275,5.63376 2.25,5.14004 1.77053,-0.33846 2.60042,-0.0627 2.60042,0.86422 0,0.95738 -1.40949,1.36133 -4.75,1.36133 h -4.75 z m 13,0 v -6.5 h 4.75 c 3.80392,0 4.75,0.33859 4.75,1.7 0,1.32222 -0.26667,1.43333 -1.2,0.5 -1.84019,-1.84019 -3.8,-1.4276 -3.8,0.8 0,1.11111 0.66667,2 1.5,2 0.825,0 1.5,0.45 1.5,1 0,0.55 -0.675,1 -1.5,1 -0.86087,0 -1.5,0.90184 -1.5,2.11658 0,1.71845 0.47024,2.02668 2.5,1.63867 1.67641,-0.32047 2.5,-0.0294 2.5,0.88342 0,0.95738 -1.40949,1.36133 -4.75,1.36133 h -4.75 z"
       style="fill:#000000" />
  </g>
  <path
     style="fill:#f6f6f6;fill-opacity:1;stroke:none;stroke-width:10.62463379;stroke-linecap:round;stroke-linejoin:round;stroke-miterlimit:4;stroke-dasharray:none;stroke-dashoffset:0;stroke-opacity:1;paint-order:normal"
     d="m 181.8026,60.443573 c -1.61458,-0.984568 -3.85198,-3.019568 -4.972,-4.522222 l -2.03639,-2.732098 -0.0302,2.552133 c -0.032,2.710277 -2.20911,5.546637 -4.25733,5.546637 -3.08786,0 -9.112,-7.569284 -9.112,-11.449153 0,-1.38464 5.52652,-6.65398 6.97874,-6.65398 0.79762,0 2.72409,1.071896 4.28105,2.381991 3.23729,2.724001 5.40733,3.001314 7.45585,0.952797 1.83082,-1.830824 7.27173,-1.835422 10.80339,-0.0091 1.63648,0.846257 3.24091,2.788446 3.97067,4.806553 l 1.22457,3.386487 2.12126,-4.806554 c 1.1667,-2.643604 2.55921,-4.806553 3.09447,-4.806553 1.83612,0 3.04322,3.87206 2.75644,8.841918 l -0.287,4.973631 -5.74827,0.03939 c -3.82658,0.02622 -6.52531,0.583645 -8.07258,1.667393 -2.96708,2.078228 -4.53846,2.045679 -8.17068,-0.169243 z"
     id="path3044"
     inkscape:connector-curvature="0" />
  <path
     style="fill:#f6f6f6;fill-opacity:1;stroke:none;stroke-width:10.62463379;stroke-linecap:round;stroke-linejoin:round;stroke-miterlimit:4;stroke-dasharray:none;stroke-dashoffset:0;stroke-opacity:1;paint-order:normal"
     d="m 155.72801,31.989532 c -0.54575,-1.965143 -0.99466,-4.706909 -0.99759,-6.092814 -0.007,-3.420397 3.59614,-14.86482 4.94222,-15.696745 1.3663,-0.8444159 5.10807,3.576989 7.58675,8.964749 2.40135,5.219675 1.23596,9.401567 -3.76986,13.527786 -4.7098,3.882221 -6.53404,3.716996 -7.76152,-0.702976 z"
     id="path3046"
     inkscape:connector-curvature="0" />
  <path
     style="fill:#fcfcfc;fill-opacity:1;stroke:none;stroke-width:10.62463379;stroke-linecap:round;stroke-linejoin:round;stroke-miterlimit:4;stroke-dasharray:none;stroke-dashoffset:0;stroke-opacity:1;paint-order:normal"
     d="m 177.01945,23.811345 c -4.00819,-3.447695 -2.91389,-10.5236 2.36653,-15.3023081 1.80837,-1.636553 2.30494,-1.6795686 5.47235,-0.4740442 5.09035,1.9374035 5.84855,3.6871293 3.6808,8.4943443 -1.92419,4.267081 -6.30045,9.505217 -7.94126,9.505217 -0.54658,0 -2.15687,-1.000444 -3.57842,-2.223209 z"
     id="path3048"
     inkscape:connector-curvature="0" />
  <path
     style="fill:#f6f6f6;fill-opacity:1;stroke:none;stroke-width:10.62463379;stroke-linecap:round;stroke-linejoin:round;stroke-miterlimit:4;stroke-dasharray:none;stroke-dashoffset:0;stroke-opacity:1;paint-order:normal"
     d="m 190.62634,37.552742 c -2.45242,-2.621836 -4.45895,-5.664152 -4.45895,-6.760703 0,-2.467717 2.19836,-6.834767 4.332,-8.605526 1.40893,-1.169312 1.92108,-0.96707 4.30363,1.699473 3.11188,3.482801 4.94051,9.293486 4.51907,14.359939 -0.44755,5.380454 -3.2214,5.159336 -8.69575,-0.693183 z"
     id="path3050"
     inkscape:connector-curvature="0" />
  <path
     style="fill:#f6f6f6;fill-opacity:1;stroke:none;stroke-width:10.62463379;stroke-linecap:round;stroke-linejoin:round;stroke-miterlimit:4;stroke-dasharray:none;stroke-dashoffset:0;stroke-opacity:1;paint-order:normal"
     d="m 201.41214,24.128961 c -1.9058,-1.905797 -2.56889,-7.061687 -1.17641,-9.147128 3.6188,-5.4196571 12.60997,-2.528773 12.60997,4.054419 0,4.007318 -2.8505,6.998302 -6.66958,6.998302 -1.58799,0 -3.70532,-0.84693 -4.76398,-1.905593 z"
     id="path3052"
     inkscape:connector-curvature="0" />
  <path
     style="fill:#f6f6f6;fill-opacity:1;stroke:none;stroke-width:10.62463379;stroke-linecap:round;stroke-linejoin:round;stroke-miterlimit:4;stroke-dasharray:none;stroke-dashoffset:0;stroke-opacity:1;paint-order:normal"
     d="m 209.22331,52.474656 c -1.80361,-7.375717 -2.2788,-18.12493 -0.91609,-20.723323 1.42073,-2.709048 7.84179,-6.541974 9.00764,-5.37694 1.27038,1.269487 1.51739,16.288857 0.35688,21.700118 -1.93437,9.019657 -6.71051,11.507187 -8.44843,4.400145 z"
     id="path3054"
     inkscape:connector-curvature="0" />
  <path
     style="fill:#f6f6f6;fill-opacity:1;stroke:none;stroke-width:10.62463379;stroke-linecap:round;stroke-linejoin:round;stroke-miterlimit:4;stroke-dasharray:none;stroke-dashoffset:0;stroke-opacity:1;paint-order:normal"
     d="m 224.8785,40.789638 c -1.07153,-1.071533 -1.55204,-3.235258 -1.55204,-6.988766 0,-6.639756 1.79764,-9.671911 5.73408,-9.671911 2.9225,0 3.59388,1.353703 5.24344,10.572367 0.63978,3.575484 -1.1046,6.577969 -3.82168,6.577969 -0.70577,0 -1.90613,0.239038 -2.66748,0.531194 -0.76135,0.292157 -2.08269,-0.167227 -2.93632,-1.020853 z"
     id="path3056"
     inkscape:connector-curvature="0" />
  <path
     style="fill:#f6f6f6;fill-opacity:1;stroke:none;stroke-width:10.62463379;stroke-linecap:round;stroke-linejoin:round;stroke-miterlimit:4;stroke-dasharray:none;stroke-dashoffset:0;stroke-opacity:1;paint-order:normal"
     d="m 243.10909,38.835072 c -4.38635,-2.380013 -4.58963,-8.040731 -0.45111,-12.562319 2.08853,-2.281852 7.66462,-2.9892 8.82052,-1.118916 1.18056,1.910184 -0.61016,11.450693 -2.50489,13.345419 -2.161,2.161004 -2.46828,2.178599 -5.86452,0.335816 z"
     id="path3058"
     inkscape:connector-curvature="0" />
  <path
     style="fill:#f6f6f6;fill-opacity:1;stroke:none;stroke-width:10.62463379;stroke-linecap:round;stroke-linejoin:round;stroke-miterlimit:4;stroke-dasharray:none;stroke-dashoffset:0;stroke-opacity:1;paint-order:normal"
     d="m 257.40061,58.359855 c -3.32235,-1.935631 -3.83651,-4.457389 -2.06022,-10.104669 1.30848,-4.160006 1.42406,-5.659979 0.54466,-7.068134 -2.69917,-4.322057 -0.51856,-7.654657 5.11311,-7.814292 3.83864,-0.10881 5.48679,1.542183 4.73566,4.743827 -0.61305,2.613102 0.94196,6.803123 3.56331,9.601418 1.91473,2.043982 1.93962,2.309396 0.49976,5.328811 -0.891,1.868455 -2.88625,3.828233 -4.84275,4.75665 -3.80909,1.807532 -5.22679,1.91196 -7.55353,0.556389 z"
     id="path3060"
     inkscape:connector-curvature="0" />
  <path
     style="fill:#f6f6f6;fill-opacity:1;stroke:none;stroke-width:10.62463379;stroke-linecap:round;stroke-linejoin:round;stroke-miterlimit:4;stroke-dasharray:none;stroke-dashoffset:0;stroke-opacity:1;paint-order:normal"
     d="m 244.27393,57.93631 c -2.54946,-3.071919 1.02721,-16.470857 4.12416,-15.449933 3.03403,1.000179 4.52527,9.343608 2.58305,14.452035 -1.06642,2.804899 -4.7524,3.353299 -6.70721,0.997898 z"
     id="path3062"
     inkscape:connector-curvature="0" />
  <path
     style="fill:#f6f6f6;fill-opacity:1;stroke:none;stroke-width:5.31231689;stroke-linecap:round;stroke-linejoin:round;stroke-miterlimit:4;stroke-dasharray:none;stroke-dashoffset:0;stroke-opacity:1;paint-order:normal"
     d="m 234.04447,51.349747 c -4.3567,-1.153745 -6.3649,-3.097208 -5.28514,-5.114756 1.58702,-2.96537 7.02552,-2.972879 9.63993,-0.01331 1.07639,1.2185 1.53535,3.717767 0.90054,4.903914 -0.61164,1.142863 -1.62323,1.18601 -5.25533,0.224152 z"
     id="path3064"
     inkscape:connector-curvature="0" />
  <path
     style="fill:#f6f6f6;fill-opacity:1;stroke:none;stroke-width:5.31231689;stroke-linecap:round;stroke-linejoin:round;stroke-miterlimit:4;stroke-dasharray:none;stroke-dashoffset:0;stroke-opacity:1;paint-order:normal"
     d="m 175.20929,40.931321 c -4.13611,-2.016562 -6.30009,-4.515556 -5.70553,-6.588817 0.42653,-1.487338 4.21339,-8.914472 4.5452,-8.914472 0.38534,0 4.80584,5.56894 6.24098,7.862375 1.90194,3.039411 2.29095,4.598987 1.57304,6.306392 -1.14729,2.728606 -3.02279,3.104772 -6.65369,1.334522 z"
     id="path3066"
     inkscape:connector-curvature="0" />
  <path
     style="fill:#f6f6f6;fill-opacity:1;stroke:none;stroke-width:5.31231689;stroke-linecap:round;stroke-linejoin:round;stroke-miterlimit:4;stroke-dasharray:none;stroke-dashoffset:0;stroke-opacity:1;paint-order:normal"
     d="m 135.52962,35.420952 c -3.14303,-0.706867 -4.86357,-3.438658 -4.86357,-7.72216 0,-4.677724 2.70717,-7.52223 7.13854,-7.500678 3.89889,0.01896 8.08638,2.848723 8.87699,5.99876 1.27705,5.088177 -5.31136,10.537624 -11.15196,9.224078 z"
     id="path3068"
     inkscape:connector-curvature="0" />
  <path
     style="fill:#f6f6f6;fill-opacity:1;stroke:none;stroke-width:5.31231689;stroke-linecap:round;stroke-linejoin:round;stroke-miterlimit:4;stroke-dasharray:none;stroke-dashoffset:0;stroke-opacity:1;paint-order:normal"
     d="m 120.77077,33.207951 c -0.33304,-0.133996 -0.92258,-0.856752 -1.3101,-1.606125 -1.59398,-3.082425 -0.069,-8.073761 2.83785,-9.288314 2.02212,-0.844896 4.16335,-0.8991 4.93746,-0.124988 0.98298,0.982974 0.66974,4.761248 -0.60716,7.323663 -1.51734,3.044889 -3.83758,4.508698 -5.85805,3.695764 z"
     id="path3070"
     inkscape:connector-curvature="0" />
  <path
     style="fill:#f6f6f6;fill-opacity:1;stroke:none;stroke-width:5.31231689;stroke-linecap:round;stroke-linejoin:round;stroke-miterlimit:4;stroke-dasharray:none;stroke-dashoffset:0;stroke-opacity:1;paint-order:normal"
     d="m 95.837288,46.3917 c -4.824913,-2.549977 -3.631684,-11.098984 1.799316,-12.891376 4.683146,-1.545577 11.115126,3.325895 11.115126,8.4184 0,3.704279 -2.55555,5.437819 -7.96437,5.402572 -2.226964,-0.01451 -3.765187,-0.303382 -4.950072,-0.929596 z"
     id="path3072"
     inkscape:connector-curvature="0" />
  <path
     style="fill:#f6f6f6;fill-opacity:1;stroke:none;stroke-width:5.31231689;stroke-linecap:round;stroke-linejoin:round;stroke-miterlimit:4;stroke-dasharray:none;stroke-dashoffset:0;stroke-opacity:1;paint-order:normal"
     d="m 125.48212,51.371004 c -1.67207,-0.36277 -3.46265,-1.041954 -3.97905,-1.509297 -3.10478,-2.80978 -4.02742,-10.949114 -1.33792,-11.802729 1.25536,-0.398436 3.56929,0.675601 6.93453,3.218737 5.23874,3.958945 7.36782,8.351171 4.88957,10.087007 -1.26104,0.883266 -2.45961,0.884422 -6.50713,0.0063 z"
     id="path3074"
     inkscape:connector-curvature="0" />
  <path
     style="fill:#f6f6f6;fill-opacity:1;stroke:none;stroke-width:5.31231689;stroke-linecap:round;stroke-linejoin:round;stroke-miterlimit:4;stroke-dasharray:none;stroke-dashoffset:0;stroke-opacity:1;paint-order:normal"
     d="m 151.15118,48.497162 c -4.25877,-1.979489 -6.19318,-4.330189 -6.19318,-7.525978 0,-1.9959 1.9777,-4.587839 3.49623,-4.582105 3.28558,0.01241 11.74851,7.601642 11.74851,10.535611 0,2.933476 -4.45743,3.707838 -9.05156,1.572472 z"
     id="path3076"
     inkscape:connector-curvature="0" />
  <path
     style="fill:#f6f6f6;fill-opacity:1;stroke:none;stroke-width:5.31231689;stroke-linecap:round;stroke-linejoin:round;stroke-miterlimit:4;stroke-dasharray:none;stroke-dashoffset:0;stroke-opacity:1;paint-order:normal"
     d="m 78.086239,61.604437 c -4.229508,-0.464279 -5.603361,-1.155778 -6.474451,-3.258776 -2.688102,-6.489651 9.441608,-10.92561 16.109872,-5.891546 3.102051,2.341827 3.595597,6.42496 1.000318,8.275678 -1.481911,1.056765 -5.766673,1.409128 -10.635739,0.874644 z"
     id="path3078"
     inkscape:connector-curvature="0" />
  <path
     style="fill:#f6f6f6;fill-opacity:1;stroke:none;stroke-width:5.31231689;stroke-linecap:round;stroke-linejoin:round;stroke-miterlimit:4;stroke-dasharray:none;stroke-dashoffset:0;stroke-opacity:1;paint-order:normal"
     d="m 101.66787,61.641341 c -3.327266,-0.511499 -4.002862,-1.25132 -4.248905,-4.652824 -0.391809,-5.416707 1.815134,-7.918642 5.961065,-6.757854 4.11483,1.152083 12.99408,8.097545 12.99408,10.164143 0,0.378064 -0.58955,0.800424 -1.3101,0.938578 -2.61471,0.501329 -10.89939,0.691781 -13.39614,0.307957 z"
     id="path3080"
     inkscape:connector-curvature="0" />
  <path
     style="fill:#f6f6f6;fill-opacity:1;stroke:none;stroke-width:5.31231689;stroke-linecap:round;stroke-linejoin:round;stroke-miterlimit:4;stroke-dasharray:none;stroke-dashoffset:0;stroke-opacity:1;paint-order:normal"
     d="m 125.61137,63.246583 c -2.605,-0.92393 -4.01808,-2.523532 -4.3383,-4.910937 -0.27482,-2.049003 0.698,-3.847322 2.08127,-3.847322 1.16577,0 4.24408,3.235777 5.37465,5.649587 1.74495,3.725555 0.9255,4.542663 -3.11762,3.108672 z"
     id="path3082"
     inkscape:connector-curvature="0" />
  <path
     style="fill:#f6f6f6;fill-opacity:1;stroke:none;stroke-width:5.31231689;stroke-linecap:round;stroke-linejoin:round;stroke-miterlimit:4;stroke-dasharray:none;stroke-dashoffset:0;stroke-opacity:1;paint-order:normal"
     d="m 139.41007,68.894953 c -2.68134,-0.440472 -3.93366,-3.873359 -3.9521,-10.833642 -0.0183,-6.915051 0.31357,-7.576508 3.89604,-7.764706 3.69102,-0.1939 6.43168,0.636544 8.3145,2.51937 2.84909,2.849088 1.94627,5.514789 -2.65427,7.837138 -3.67992,1.857617 -4.03005,2.354422 -3.64295,5.169026 0.35057,2.548904 -0.17147,3.366822 -1.96122,3.072814 z"
     id="path3084"
     inkscape:connector-curvature="0" />
  <path
     style="fill:#f6f6f6;fill-opacity:1;stroke:none;stroke-width:5.31231689;stroke-linecap:round;stroke-linejoin:round;stroke-miterlimit:4;stroke-dasharray:none;stroke-dashoffset:0;stroke-opacity:1;paint-order:normal"
     d="m 156.59231,65.494871 c -2.21998,-1.008265 -4.019,-3.042937 -3.99679,-4.520318 0.0323,-2.148862 2.98231,-4.390035 4.84587,-3.681509 2.28249,0.867801 6.07678,6.750655 5.43414,8.425352 -0.37448,0.975885 -3.9201,0.84975 -6.28322,-0.223525 z"
     id="path3086"
     inkscape:connector-curvature="0" />
  <path
     style="fill:#f6f6f6;fill-opacity:1;stroke:none;stroke-width:5.31231689;stroke-linecap:round;stroke-linejoin:round;stroke-miterlimit:4;stroke-dasharray:none;stroke-dashoffset:0;stroke-opacity:1;paint-order:normal"
     d="m 169.17149,77.35432 c -0.0951,-2.332182 0.0299,-3.81187 0.32184,-3.811186 0.26246,6.2e-4 0.99291,-0.970978 1.6232,-2.159097 0.6303,-1.188119 1.89697,-2.819582 2.81483,-3.625472 1.43182,-1.257157 1.93662,-1.429339 3.55432,-1.21236 2.3271,0.31213 4.95413,2.365644 6.24243,4.879642 0.52994,1.034114 1.11163,1.94402 1.29265,2.022014 0.45658,0.196718 -5.76184,6.551297 -7.04086,7.195037 -0.57232,0.28805 -2.75338,0.523727 -4.84681,0.523727 h -3.80623 z"
     id="path3088"
     inkscape:connector-curvature="0" />
  <path
     style="fill:#f6f6f6;fill-opacity:1;stroke:none;stroke-width:5.31231689;stroke-linecap:round;stroke-linejoin:round;stroke-miterlimit:4;stroke-dasharray:none;stroke-dashoffset:0;stroke-opacity:1;paint-order:normal"
     d="m 206.52199,83.322826 c -2.80524,-1.306004 -7.43307,-5.43105 -8.55806,-7.628289 -0.90757,-1.772605 -1.43207,-2.133698 -3.11274,-2.142989 -1.72084,-0.0095 -9.30141,-3.836334 -10.81259,-5.458411 -1.52309,-1.634848 -0.93519,-2.680693 1.9354,-3.443011 4.25052,-1.128775 13.76875,-0.478129 17.06362,1.166432 3.27943,1.636858 3.00462,3.087617 -1.07594,5.680086 -1.00733,0.639976 -1.69037,1.30473 -1.51787,1.477231 0.1725,0.172502 2.92609,0.425 6.11909,0.561108 l 5.80545,0.24747 0.13574,4.594214 c 0.19075,6.456179 -0.8645,7.328693 -5.9821,4.946159 z"
     id="path3090"
     inkscape:connector-curvature="0" />
  <path
     style="fill:#f6f6f6;fill-opacity:1;stroke:none;stroke-width:5.31231689;stroke-linecap:round;stroke-linejoin:round;stroke-miterlimit:4;stroke-dasharray:none;stroke-dashoffset:0;stroke-opacity:1;paint-order:normal"
     d="m 219.75592,70.403368 c -5.54642,-2.405238 -6.90279,-8.051707 -2.95058,-12.283031 2.71149,-2.90298 6.47026,-3.770247 10.75352,-2.481177 4.60371,1.385513 7.24916,4.546908 6.84029,8.174362 -0.30882,2.739806 -1.78443,4.644402 -4.73905,6.116752 -2.89044,1.440363 -7.19908,1.646175 -9.90418,0.473094 z"
     id="path3092"
     inkscape:connector-curvature="0" />
  <path
     style="fill:#f6f6f6;fill-opacity:1;stroke:none;stroke-width:5.31231689;stroke-linecap:round;stroke-linejoin:round;stroke-miterlimit:4;stroke-dasharray:none;stroke-dashoffset:0;stroke-opacity:1;paint-order:normal"
     d="m 236.05606,72.802642 c -0.58234,-0.407886 -1.0588,-1.009374 -1.0588,-1.33664 0,-1.049233 2.36487,-3.842152 4.18774,-4.945734 1.92777,-1.167087 5.64186,-1.456799 7.29995,-0.56942 2.12358,1.136509 2.04534,4.157778 -0.1689,6.521509 -0.8906,0.950725 -1.46742,1.071896 -5.10265,1.071896 -2.93846,0 -4.39823,-0.20991 -5.15734,-0.741611 z"
     id="path3094"
     inkscape:connector-curvature="0" />
  <path
     style="fill:#f6f6f6;fill-opacity:1;stroke:none;stroke-width:5.31231689;stroke-linecap:round;stroke-linejoin:round;stroke-miterlimit:4;stroke-dasharray:none;stroke-dashoffset:0;stroke-opacity:1;paint-order:normal"
     d="m 247.12993,76.853971 c -0.6003,-0.971298 -0.5232,-3.309791 0.10912,-3.309752 0.31352,1.9e-5 1.35288,-1.179363 2.30968,-2.62085 3.20172,-4.823591 8.4548,-8.665848 12.43533,-9.095557 2.84311,-0.306923 5.42484,0.864105 6.0817,2.758553 0.63168,1.821846 -0.37579,4.814517 -2.36024,7.011075 -0.89696,0.992826 -1.53579,1.900191 -1.41961,2.016365 0.11617,0.116174 -0.52342,0.125461 -1.42131,0.02064 -1.23397,-0.144059 -2.41956,0.24954 -4.85621,1.612193 -2.75252,1.539299 -3.75522,1.833553 -6.86056,2.013318 -2.64892,0.153344 -3.74038,0.04306 -4.0179,-0.405982 z"
     id="path3096"
     inkscape:connector-curvature="0" />
  <path
     style="fill:#f6f6f6;fill-opacity:1;stroke:none;stroke-width:5.31231689;stroke-linecap:round;stroke-linejoin:round;stroke-miterlimit:4;stroke-dasharray:none;stroke-dashoffset:0;stroke-opacity:1;paint-order:normal"
     d="m 271.20018,65.67965 c -0.72487,-0.873423 -0.35258,-3.669376 0.70314,-5.280609 1.15169,-1.757694 4.14044,-3.052327 7.04652,-3.052327 3.17772,0 3.89597,0.596497 2.94126,2.442693 -1.07768,2.083995 -7.52353,6.608873 -9.41458,6.608873 -0.37396,0 -0.94831,-0.323383 -1.27634,-0.71863 z"
     id="path3098"
     inkscape:connector-curvature="0" />
  <path
     style="fill:#f6f6f6;fill-opacity:1;stroke:none;stroke-width:5.31231689;stroke-linecap:round;stroke-linejoin:round;stroke-miterlimit:4;stroke-dasharray:none;stroke-dashoffset:0;stroke-opacity:1;paint-order:normal"
     d="m 266.91595,81.391097 c -4.96342,-1.367952 -6.26527,-3.316619 -4.10656,-6.146844 0.66383,-0.870323 1.10433,-1.685037 0.97889,-1.810476 -0.12544,-0.125439 0.84048,-0.125397 2.14649,9.4e-5 1.60975,0.154677 3.03245,-0.03834 4.41716,-0.599264 2.61389,-1.058851 8.42364,-1.083569 11.27316,-0.04796 1.14652,0.416685 2.59358,0.757608 3.21569,0.757608 2.98769,0 -0.27581,3.520544 -5.77668,6.231649 -4.55194,2.243425 -8.13849,2.720286 -12.14815,1.615195 z"
     id="path3100"
     inkscape:connector-curvature="0" />
  <path
     style="fill:#f6f6f6;fill-opacity:1;stroke:none;stroke-width:5.31231689;stroke-linecap:round;stroke-linejoin:round;stroke-miterlimit:4;stroke-dasharray:none;stroke-dashoffset:0;stroke-opacity:1;paint-order:normal"
     d="m 238.09385,87.859391 c -1.13701,-0.468761 -6.98869,-6.474312 -7.8047,-8.009929 -0.47981,-0.902929 -0.44583,-1.127899 0.20825,-1.378895 1.79063,-0.68713 15.48075,0.831698 16.76712,1.8602 1.75496,1.403161 -0.4272,4.779656 -4.32128,6.686402 -2.80614,1.374031 -3.33617,1.466084 -4.84939,0.842222 z"
     id="path3102"
     inkscape:connector-curvature="0" />
  <path
     style="fill:#f6f6f6;fill-opacity:1;stroke:none;stroke-width:5.31231689;stroke-linecap:round;stroke-linejoin:round;stroke-miterlimit:4;stroke-dasharray:none;stroke-dashoffset:0;stroke-opacity:1;paint-order:normal"
     d="m 252.01302,112.57335 c -2.13514,-0.51233 -4.6294,-1.7384 -4.6294,-2.27562 0,-0.20962 0.53595,-0.88462 1.19099,-1.50001 0.65505,-0.61538 1.191,-1.36924 1.191,-1.67524 0,-0.306 -1.17713,-3.10916 -2.61585,-6.22924 -1.43871,-3.120075 -2.6178,-6.08139 -2.62019,-6.580696 -0.002,-0.499306 0.57219,-1.678391 1.27684,-2.62019 2.24584,-3.001693 8.86434,-9.572946 9.64138,-9.572557 1.13919,5.72e-4 6.37266,2.594393 7.1643,3.550783 0.62982,0.760886 0.55601,0.970821 -0.75229,2.139789 -0.79785,0.712873 -3.8659,2.751365 -6.8179,4.529981 l -5.36728,3.23385 6.38642,6.25446 c 6.46144,6.32793 8.14615,8.72643 7.19339,10.24108 -0.3892,0.61873 -1.40222,0.79355 -4.96421,0.85668 -2.46137,0.0436 -5.28611,-0.11526 -6.2772,-0.35307 z"
     id="path3104"
     inkscape:connector-curvature="0" />
  <path
     style="fill:#f6f6f6;fill-opacity:1;stroke:none;stroke-width:5.31231689;stroke-linecap:round;stroke-linejoin:round;stroke-miterlimit:4;stroke-dasharray:none;stroke-dashoffset:0;stroke-opacity:1;paint-order:normal"
     d="m 274.42226,94.170397 c -1.90131,-1.721752 -3.82733,-3.583326 -4.28003,-4.13683 -1.7316,-2.117144 -0.57309,-4.579358 2.15465,-4.579358 1.69491,0 15.8164,6.647757 15.23144,7.170267 -0.201,0.179536 -2.45428,1.305167 -5.00729,2.501404 l -4.64185,2.174976 z"
     id="path3106"
     inkscape:connector-curvature="0" />
  <path
     style="fill:#f6f6f6;fill-opacity:1;stroke:none;stroke-width:5.31231689;stroke-linecap:round;stroke-linejoin:round;stroke-miterlimit:4;stroke-dasharray:none;stroke-dashoffset:0;stroke-opacity:1;paint-order:normal"
     d="m 262.11557,100.09273 c -0.88358,-0.595436 -1.92083,-1.642629 -2.30501,-2.327092 -0.62423,-1.112148 -0.61216,-1.376251 0.11349,-2.483734 0.44659,-0.681591 1.32862,-1.577764 1.96005,-1.991495 1.0344,-0.677764 1.28749,-0.680134 2.55644,-0.02393 2.24464,1.160747 4.381,3.15554 4.381,4.090687 0,1.064177 -3.05372,3.818184 -4.23371,3.818184 -0.47617,0 -1.58869,-0.48718 -2.47226,-1.08262 z"
     id="path3108"
     inkscape:connector-curvature="0" />
  <path
     style="fill:#f6f6f6;fill-opacity:1;stroke:none;stroke-width:5.31231689;stroke-linecap:round;stroke-linejoin:round;stroke-miterlimit:4;stroke-dasharray:none;stroke-dashoffset:0;stroke-opacity:1;paint-order:normal"
     d="m 276.20571,115.7301 c -4.12095,-1.51226 -5.87179,-5.32448 -4.10653,-8.94141 1.50876,-3.09137 3.81302,-4.42307 7.64648,-4.41913 3.6419,0.004 6.03463,1.1855 7.6314,3.76912 1.95988,3.17115 0.68861,7.69429 -2.61396,9.30043 -2.00566,0.97541 -6.29487,1.12126 -8.55739,0.29099 z"
     id="path3110"
     inkscape:connector-curvature="0" />
  <path
     style="fill:#f6f6f6;fill-opacity:1;stroke:none;stroke-width:5.31231689;stroke-linecap:round;stroke-linejoin:round;stroke-miterlimit:4;stroke-dasharray:none;stroke-dashoffset:0;stroke-opacity:1;paint-order:normal"
     d="m 271.5082,137.64077 c -2.0596,-0.89915 -3.88182,-1.7713 -4.04939,-1.93813 -0.40006,-0.39829 -0.69546,-14.32212 -0.33437,-15.76083 0.44143,-1.75878 1.66612,-2.13164 5.09396,-1.55086 1.66898,0.28277 3.54153,0.83363 4.16121,1.22412 1.12616,0.70965 1.12659,0.71367 0.88662,8.40457 -0.22104,7.08452 -0.84576,11.27621 -1.67841,11.26175 -0.1842,-0.003 -2.02003,-0.74148 -4.07962,-1.64062 z"
     id="path3112"
     inkscape:connector-curvature="0" />
  <path
     style="fill:#f6f6f6;fill-opacity:1;stroke:none;stroke-width:5.31231689;stroke-linecap:round;stroke-linejoin:round;stroke-miterlimit:4;stroke-dasharray:none;stroke-dashoffset:0;stroke-opacity:1;paint-order:normal"
     d="m 290.49766,128.95053 c -0.78606,-0.10426 -2.56641,-0.51029 -3.95635,-0.9023 l -2.52714,-0.71274 0.31765,-2.24201 c 0.59768,-4.21834 0.97477,-4.60494 4.64824,-4.76546 3.04673,-0.13314 3.31293,-0.0598 4.52126,1.24469 1.61009,1.73829 4.06953,6.58067 3.67036,7.22654 -0.28813,0.4662 -3.71412,0.54386 -6.67402,0.15128 z"
     id="path3114"
     inkscape:connector-curvature="0" />
  <path
     style="fill:#f6f6f6;fill-opacity:1;stroke:none;stroke-width:5.31231689;stroke-linecap:round;stroke-linejoin:round;stroke-miterlimit:4;stroke-dasharray:none;stroke-dashoffset:0;stroke-opacity:1;paint-order:normal"
     d="m 256.02317,124.51284 c -3.26717,-1.54562 -10.58566,-6.14499 -12.33164,-7.74992 -2.60888,-2.39814 -1.13168,-2.33263 10.05502,0.44592 l 8.98313,2.23122 -0.3162,2.38361 c -0.61371,4.62641 -1.50368,5.00092 -6.39031,2.68917 z"
     id="path3116"
     inkscape:connector-curvature="0" />
  <path
     style="fill:#f6f6f6;fill-opacity:1;stroke:none;stroke-width:5.31231689;stroke-linecap:round;stroke-linejoin:round;stroke-miterlimit:4;stroke-dasharray:none;stroke-dashoffset:0;stroke-opacity:1;paint-order:normal"
     d="m 248.44236,137.54309 c -2.19184,-1.08033 -7.84105,-6.41757 -9.59423,-9.06438 -1.70894,-2.58005 -1.85839,-4.31489 -0.49752,-5.77561 1.44848,-1.55476 2.62294,-1.2936 6.23949,1.38746 6.03754,4.47581 7.55829,7.16349 6.82397,12.06029 -0.35883,2.39285 -0.65763,2.53283 -2.97171,1.39224 z"
     id="path3118"
     inkscape:connector-curvature="0" />
  <path
     style="fill:#f6f6f6;fill-opacity:1;stroke:none;stroke-width:5.31231689;stroke-linecap:round;stroke-linejoin:round;stroke-miterlimit:4;stroke-dasharray:none;stroke-dashoffset:0;stroke-opacity:1;paint-order:normal"
     d="m 229.47132,110.21753 c -2.07701,-1.33089 -3.23177,-4.11641 -2.94476,-7.10341 0.27755,-2.88847 2.13498,-5.917987 4.03272,-6.577469 2.20311,-0.7656 5.52824,0.497773 8.27288,3.143254 2.90084,2.796035 3.12974,4.575115 0.9719,7.553925 -2.55093,3.52145 -7.33677,4.90342 -10.33274,2.9837 z"
     id="path3120"
     inkscape:connector-curvature="0" />
  <path
     style="fill:#f6f6f6;fill-opacity:1;stroke:none;stroke-width:5.31231689;stroke-linecap:round;stroke-linejoin:round;stroke-miterlimit:4;stroke-dasharray:none;stroke-dashoffset:0;stroke-opacity:1;paint-order:normal"
     d="m 219.08719,93.026296 c -0.37186,-1.166142 -0.8289,-13.765264 -0.49934,-13.765264 0.17419,0 1.57081,0.668432 3.10361,1.485405 3.53611,1.884725 8.1878,6.077799 9.8062,8.839393 1.85558,3.166305 1.28102,3.522635 -6.20101,3.845761 -4.87736,0.210638 -6.03718,0.134935 -6.20946,-0.405295 z"
     id="path3122"
     inkscape:connector-curvature="0" />
  <path
     style="fill:#f6f6f6;fill-opacity:1;stroke:none;stroke-width:5.31231689;stroke-linecap:round;stroke-linejoin:round;stroke-miterlimit:4;stroke-dasharray:none;stroke-dashoffset:0;stroke-opacity:1;paint-order:normal"
     d="m 226.17073,123.55561 c -3.48633,-2.77059 -6.73442,-8.43906 -5.52734,-9.64614 0.66255,-0.66254 9.79988,0.84547 11.43269,1.88684 0.94184,0.60068 1.08945,1.00843 0.89362,2.46846 -0.12902,0.96191 -0.7439,2.81619 -1.3664,4.12061 -1.43852,3.01437 -2.75514,3.29798 -5.43257,1.17023 z"
     id="path3124"
     inkscape:connector-curvature="0" />
  <path
     style="fill:#f6f6f6;fill-opacity:1;stroke:none;stroke-width:5.31231689;stroke-linecap:round;stroke-linejoin:round;stroke-miterlimit:4;stroke-dasharray:none;stroke-dashoffset:0;stroke-opacity:1;paint-order:normal"
     d="m 209.65664,107.88929 c -4.01348,-2.54528 -7.05446,-8.309498 -7.05446,-13.371863 0,-3.170958 0.5742,-3.822837 3.3673,-3.822837 6.08737,0 10.92465,5.317915 10.92465,12.01012 0,3.97421 -1.64456,6.56941 -4.16299,6.56941 -0.48997,0 -1.87349,-0.62317 -3.0745,-1.38483 z"
     id="path3126"
     inkscape:connector-curvature="0" />
  <path
     style="fill:#f6f6f6;fill-opacity:1;stroke:none;stroke-width:5.31231689;stroke-linecap:round;stroke-linejoin:round;stroke-miterlimit:4;stroke-dasharray:none;stroke-dashoffset:0;stroke-opacity:1;paint-order:normal"
     d="m 224.34569,141.63709 c -4.61857,-3.63296 -10.60883,-15.07282 -11.57193,-22.09939 -0.27852,-2.03205 -0.22894,-2.16481 0.80862,-2.16481 2.05139,0 5.25238,1.97815 7.22811,4.46684 1.06581,1.34251 3.10872,4.19534 4.5398,6.33962 1.43108,2.14428 2.88714,4.00812 3.23568,4.14187 0.34854,0.13375 1.16355,-0.1736 1.81115,-0.683 2.69446,-2.11946 2.775,-0.6489 0.2617,4.77841 -1.65355,3.57074 -3.53649,6.20537 -4.43492,6.20537 -0.34436,0 -1.18955,-0.44321 -1.87821,-0.98491 z"
     id="path3128"
     inkscape:connector-curvature="0" />
  <path
     style="fill:#f6f6f6;fill-opacity:1;stroke:none;stroke-width:5.31231689;stroke-linecap:round;stroke-linejoin:round;stroke-miterlimit:4;stroke-dasharray:none;stroke-dashoffset:0;stroke-opacity:1;paint-order:normal"
     d="m 201.51777,120.58858 c -1.01906,-0.76804 -2.25112,-3.76269 -2.24772,-5.46328 0.004,-2.18935 0.91196,-4.7799 2.21861,-6.33276 0.67751,-0.80519 1.39705,-1.40139 1.59897,-1.32489 0.47555,0.18015 6.6674,7.57814 6.98857,8.34991 0.28772,0.69138 -1.82195,3.34081 -3.60686,4.52968 -1.46027,0.97263 -3.82814,1.08804 -4.95157,0.24134 z"
     id="path3130"
     inkscape:connector-curvature="0" />
  <path
     style="fill:#f6f6f6;fill-opacity:1;stroke:none;stroke-width:5.31231689;stroke-linecap:round;stroke-linejoin:round;stroke-miterlimit:4;stroke-dasharray:none;stroke-dashoffset:0;stroke-opacity:1;paint-order:normal"
     d="m 182.11222,110.10782 c -3.39726,-2.31216 -4.70164,-5.97955 -3.73305,-10.495889 0.98369,-4.586795 4.81226,-6.908486 10.5436,-6.393758 4.88212,0.43846 6.53344,2.52816 6.53344,8.267867 0,6.27792 -3.13745,9.69367 -8.90387,9.69367 -2.18705,0 -3.23794,-0.25369 -4.44012,-1.07189 z"
     id="path3132"
     inkscape:connector-curvature="0" />
  <path
     style="fill:#f6f6f6;fill-opacity:1;stroke:none;stroke-width:5.31231689;stroke-linecap:round;stroke-linejoin:round;stroke-miterlimit:4;stroke-dasharray:none;stroke-dashoffset:0;stroke-opacity:1;paint-order:normal"
     d="m 190.3425,126.31738 c -0.26749,-0.33414 -0.88135,-2.16054 -1.36412,-4.05868 -0.79983,-3.14472 -0.81096,-3.51796 -0.12539,-4.20353 0.83918,-0.83919 3.66406,-1.60639 5.97853,-1.62371 1.42764,-0.0107 1.53764,0.11223 1.82693,2.04134 0.55863,3.72519 0.20802,4.74939 -1.98816,5.80787 -1.0873,0.52403 -2.39644,1.33336 -2.90918,1.79851 -0.74126,0.67244 -1.03191,0.72124 -1.41861,0.2382 z"
     id="path3134"
     inkscape:connector-curvature="0" />
  <path
     style="fill:#f6f6f6;fill-opacity:1;stroke:none;stroke-width:5.31231689;stroke-linecap:round;stroke-linejoin:round;stroke-miterlimit:4;stroke-dasharray:none;stroke-dashoffset:0;stroke-opacity:1;paint-order:normal"
     d="m 194.74161,87.839693 c -1.04807,-0.202682 -3.74192,-0.624489 -5.98632,-0.93735 -5.46058,-0.761181 -5.80084,-1.008647 -4.00967,-2.916128 3.68766,-3.92712 6.83921,-5.143503 9.14392,-3.52922 1.22182,0.855793 4.42506,5.983973 4.42506,7.084225 0,0.830764 -0.57297,0.878629 -3.57299,0.298473 z"
     id="path3138"
     inkscape:connector-curvature="0" />
  <path
     style="fill:#f6f6f6;fill-opacity:1;stroke:none;stroke-width:5.31231689;stroke-linecap:round;stroke-linejoin:round;stroke-miterlimit:4;stroke-dasharray:none;stroke-dashoffset:0;stroke-opacity:1;paint-order:normal"
     d="m 171.42664,115.97523 c -0.45855,-0.50669 -1.12551,-1.73937 -1.48212,-2.73929 -0.75606,-2.11992 -0.90377,-6.34381 -0.22184,-6.34381 1.15582,0 4.11344,7.73049 3.53467,9.23875 -0.38474,1.00262 -0.81565,0.96598 -1.83071,-0.15565 z"
     id="path3140"
     inkscape:connector-curvature="0" />
  <path
     style="fill:#f6f6f6;fill-opacity:1;stroke:none;stroke-width:5.31231689;stroke-linecap:round;stroke-linejoin:round;stroke-miterlimit:4;stroke-dasharray:none;stroke-dashoffset:0;stroke-opacity:1;paint-order:normal"
     d="m 173.26223,129.04904 c -0.57875,-2.3059 0.22817,-5.31957 1.84849,-6.90373 3.28358,-3.21031 7.48274,-5.14596 7.48274,-3.44925 0,1.46341 -6.37126,10.13865 -8.14201,11.08633 -0.73575,0.39376 -0.93757,0.2693 -1.18922,-0.73335 z"
     id="path3142"
     inkscape:connector-curvature="0" />
  <path
     style="fill:#f6f6f6;fill-opacity:1;stroke:none;stroke-width:5.31231689;stroke-linecap:round;stroke-linejoin:round;stroke-miterlimit:4;stroke-dasharray:none;stroke-dashoffset:0;stroke-opacity:1;paint-order:normal"
     d="m 156.42125,127.90913 c -1.01789,-1.90194 -1.52234,-7.39509 -0.98691,-10.74677 0.83594,-5.23275 2.70633,-7.88824 5.55607,-7.88824 2.04334,0 2.40106,0.74293 3.0639,6.36324 0.50241,4.26001 0.47266,4.69349 -0.45303,6.60136 -1.22028,2.51502 -4.87712,6.56773 -5.9262,6.56773 -0.42548,0 -0.98971,-0.4038 -1.25383,-0.89732 z"
     id="path3144"
     inkscape:connector-curvature="0" />
  <path
     style="fill:#f6f6f6;fill-opacity:1;stroke:none;stroke-width:5.31231689;stroke-linecap:round;stroke-linejoin:round;stroke-miterlimit:4;stroke-dasharray:none;stroke-dashoffset:0;stroke-opacity:1;paint-order:normal"
     d="m 155.73903,103.91464 c -0.37587,-1.40255 -0.38501,-12.444908 -0.0111,-13.419286 0.36725,-0.95705 2.04908,-0.969385 3.3975,-0.02492 1.28021,0.896696 2.02394,3.430333 2.02745,6.906827 0.003,2.713649 -0.47624,3.799089 -2.77972,6.299179 -1.46525,1.59031 -2.2527,1.66152 -2.63413,0.2382 z"
     id="path3146"
     inkscape:connector-curvature="0" />
  <path
     style="fill:#f6f6f6;fill-opacity:1;stroke:none;stroke-width:5.31231689;stroke-linecap:round;stroke-linejoin:round;stroke-miterlimit:4;stroke-dasharray:none;stroke-dashoffset:0;stroke-opacity:1;paint-order:normal"
     d="m 166.87232,95.599021 c -1.14732,-0.454875 -1.43308,-1.219731 -1.12042,-2.998838 0.52862,-3.007929 0.89601,-3.334788 3.74829,-3.334788 2.36331,0 2.62072,0.105052 2.89041,1.17958 0.16283,0.648769 0.006,2.095829 -0.34822,3.215688 -0.60843,1.922815 -0.75031,2.041271 -2.54987,2.128891 -1.04808,0.05103 -2.22716,-0.03471 -2.62019,-0.190533 z"
     id="path3148"
     inkscape:connector-curvature="0" />
  <path
     style="fill:#f6f6f6;fill-opacity:1;stroke:none;stroke-width:5.31231689;stroke-linecap:round;stroke-linejoin:round;stroke-miterlimit:4;stroke-dasharray:none;stroke-dashoffset:0;stroke-opacity:1;paint-order:normal"
     d="m 154.41394,83.300792 c -1.74752,-0.949253 -3.26276,-4.284958 -3.26276,-7.182754 v -2.365775 l 2.11975,-0.625887 c 2.01667,-0.595454 3.64645,-0.558676 9.44937,0.213234 1.80761,0.240452 2.23493,0.465546 2.06473,1.08762 -0.11804,0.431429 -0.35281,1.801699 -0.52171,3.045044 -0.67151,4.943222 -5.84411,8.004184 -9.84938,5.828518 z"
     id="path3150"
     inkscape:connector-curvature="0" />
  <path
     style="fill:#f6f6f6;fill-opacity:1;stroke:none;stroke-width:5.31231689;stroke-linecap:round;stroke-linejoin:round;stroke-miterlimit:4;stroke-dasharray:none;stroke-dashoffset:0;stroke-opacity:1;paint-order:normal"
     d="m 134.6629,89.538469 c -0.14346,-0.373847 0.72079,-3.544515 1.92054,-7.045929 1.19976,-3.501413 2.18138,-6.947174 2.18138,-7.657246 0,-1.28382 0.0191,-1.291041 3.41783,-1.291041 h 3.41783 l -1.00507,1.071896 c -0.97972,1.044867 -3.925,8.312739 -3.925,9.685481 0,0.378409 1.20122,1.456425 2.66938,2.395592 1.81924,1.163759 2.51419,1.862754 2.18211,2.194835 -1.29548,1.295481 -10.40191,1.837566 -10.859,0.646412 z"
     id="path3152"
     inkscape:connector-curvature="0" />
  <path
     style="fill:#f6f6f6;fill-opacity:1;stroke:none;stroke-width:5.31231689;stroke-linecap:round;stroke-linejoin:round;stroke-miterlimit:4;stroke-dasharray:none;stroke-dashoffset:0;stroke-opacity:1;paint-order:normal"
     d="m 122.56003,82.000322 c -2.44198,-1.237763 -3.82732,-3.328548 -4.30995,-6.504647 -0.37226,-2.449745 0.0874,-3.438586 2.26628,-4.87522 2.67885,-1.766301 8.78456,-0.579775 10.15052,1.972558 0.32654,0.610142 0.99741,0.95124 1.87089,0.95124 1.35496,0 1.35954,0.01015 0.91263,2.024693 -0.66213,2.98477 -2.53612,5.531167 -4.84055,6.577412 -2.58445,1.173378 -3.48988,1.151523 -6.04982,-0.146036 z"
     id="path3154"
     inkscape:connector-curvature="0" />
  <path
     style="fill:#f6f6f6;fill-opacity:1;stroke:none;stroke-width:5.31231689;stroke-linecap:round;stroke-linejoin:round;stroke-miterlimit:4;stroke-dasharray:none;stroke-dashoffset:0;stroke-opacity:1;paint-order:normal"
     d="m 105.12545,70.695359 c -1.2983,-0.524569 -3.04329,-2.745857 -3.04329,-3.873945 0,-1.635904 2.2553,-2.566926 6.2181,-2.566926 3.96315,0 5.21546,0.570359 5.21546,2.37536 0,1.439072 -2.10986,3.459049 -4.2273,4.047205 -2.03275,0.564633 -2.80245,0.568018 -4.16297,0.01831 z"
     id="path3156"
     inkscape:connector-curvature="0" />
  <path
     style="fill:#f6f6f6;fill-opacity:1;stroke:none;stroke-width:5.31231689;stroke-linecap:round;stroke-linejoin:round;stroke-miterlimit:4;stroke-dasharray:none;stroke-dashoffset:0;stroke-opacity:1;paint-order:normal"
     d="m 94.772646,75.394612 c -1.007012,-0.531257 -3.19875,-1.252106 -4.870528,-1.601887 -1.671778,-0.349782 -3.541455,-1.031134 -4.154838,-1.514115 -2.194356,-1.72785 -5.579441,-4.814502 -5.579441,-5.087552 0,-0.46454 6.188488,-2.221973 7.824286,-2.221973 2.118294,0 6.311664,1.302598 8.710767,2.705849 2.367366,1.384687 4.909088,4.135761 4.887808,5.290398 -0.0132,0.714274 -3.775657,3.473001 -4.659265,3.416256 -0.180321,-0.01158 -1.151776,-0.455719 -2.158789,-0.986976 z"
     id="path3158"
     inkscape:connector-curvature="0" />
  <path
     style="fill:#f6f6f6;fill-opacity:1;stroke:none;stroke-width:5.31231689;stroke-linecap:round;stroke-linejoin:round;stroke-miterlimit:4;stroke-dasharray:none;stroke-dashoffset:0;stroke-opacity:1;paint-order:normal"
     d="m 67.905789,79.900054 c -0.566101,-0.228777 -4.888286,-5.642617 -4.888286,-6.122921 0,-0.128084 0.283839,-0.23288 0.630753,-0.23288 0.346914,0 2.287863,-0.857516 4.313219,-1.905593 5.043481,-2.609886 6.526864,-2.53067 10.290216,0.549521 0.911262,0.74584 2.097721,1.356072 2.636575,1.356072 0.927129,0 2.998774,2.632776 2.479917,3.151633 -0.350219,0.350219 -13.187304,3.522907 -14.081853,3.480332 -0.434636,-0.02069 -1.055879,-0.144959 -1.380541,-0.276164 z"
     id="path3160"
     inkscape:connector-curvature="0" />
  <path
     style="fill:#f6f6f6;fill-opacity:1;stroke:none;stroke-width:5.31231689;stroke-linecap:round;stroke-linejoin:round;stroke-miterlimit:4;stroke-dasharray:none;stroke-dashoffset:0;stroke-opacity:1;paint-order:normal"
     d="m 97.585678,87.883614 c -0.50442,-0.81617 1.416719,-4.259802 3.702772,-6.637203 2.52964,-2.63072 5.02609,-3.915077 7.71475,-3.969044 2.43724,-0.04892 3.55972,0.664527 3.55972,2.26256 0,0.613265 0.41623,2.171016 0.92496,3.461669 1.05607,2.67928 0.76205,3.465989 -1.63956,4.386993 -2.08686,0.800299 -13.822241,1.207608 -14.262642,0.495025 z"
     id="path3162"
     inkscape:connector-curvature="0" />
  <path
     style="fill:#f6f6f6;fill-opacity:1;stroke:none;stroke-width:5.31231689;stroke-linecap:round;stroke-linejoin:round;stroke-miterlimit:4;stroke-dasharray:none;stroke-dashoffset:0;stroke-opacity:1;paint-order:normal"
     d="m 78.319231,95.887354 c -3.800012,-1.15202 -5.29841,-3.187522 -5.295584,-7.193799 0.0023,-3.262957 1.266274,-5.37839 3.938347,-6.591369 2.682751,-1.217827 5.395295,-1.171508 7.984138,0.136335 2.586981,1.306903 4.273274,3.691785 4.273274,6.043585 0,2.159001 -1.729028,5.62768 -3.418399,6.857799 -1.49149,1.086032 -5.157017,1.452228 -7.481776,0.747449 z"
     id="path3164"
     inkscape:connector-curvature="0" />
  <path
     style="fill:#f6f6f6;fill-opacity:1;stroke:none;stroke-width:5.31231689;stroke-linecap:round;stroke-linejoin:round;stroke-miterlimit:4;stroke-dasharray:none;stroke-dashoffset:0;stroke-opacity:1;paint-order:normal"
     d="m 60.520739,95.733486 c -2.245952,-0.801588 -4.147316,-2.036142 -4.482943,-2.91077 -0.659821,-1.719468 3.802773,-6.166334 7.471642,-7.445309 1.809171,-0.63068 2.960926,0.155087 2.561281,1.747397 -0.31219,1.243865 0.502659,3.006089 2.617166,5.659985 0.811575,1.0186 1.475592,2.005484 1.475592,2.193075 0,0.317462 -5.849892,1.459189 -7.237742,1.412594 -0.342556,-0.0115 -1.424805,-0.307138 -2.404996,-0.656972 z"
     id="path3166"
     inkscape:connector-curvature="0" />
  <path
     style="fill:#f6f6f6;fill-opacity:1;stroke:none;stroke-width:5.31231689;stroke-linecap:round;stroke-linejoin:round;stroke-miterlimit:4;stroke-dasharray:none;stroke-dashoffset:0;stroke-opacity:1;paint-order:normal"
     d="m 55.620383,110.68237 c -0.772917,-1.25061 4.039315,-5.67595 9.586694,-8.81596 4.303257,-2.435786 6.385594,-2.109516 6.385594,1.00052 0,2.43301 -0.933176,4.41258 -2.543228,5.39502 -3.616217,2.20658 -12.564448,3.81939 -13.42906,2.42042 z"
     id="path3170"
     inkscape:connector-curvature="0" />
  <path
     style="fill:#f6f6f6;fill-opacity:1;stroke:none;stroke-width:5.31231689;stroke-linecap:round;stroke-linejoin:round;stroke-miterlimit:4;stroke-dasharray:none;stroke-dashoffset:0;stroke-opacity:1;paint-order:normal"
     d="m 74.451061,105.74779 c 0,-1.95177 1.256981,-4.5144 2.489865,-5.07614 1.241315,-0.56558 7.757958,0.54855 8.674391,1.48303 1.097579,1.1192 -4.787269,4.0921 -9.139564,4.61712 -1.936126,0.23356 -2.024692,0.18877 -2.024692,-1.02401 z"
     id="path3172"
     inkscape:connector-curvature="0" />
  <path
     style="fill:#f6f6f6;fill-opacity:1;stroke:none;stroke-width:5.31231689;stroke-linecap:round;stroke-linejoin:round;stroke-miterlimit:4;stroke-dasharray:none;stroke-dashoffset:0;stroke-opacity:1;paint-order:normal"
     d="m 93.824589,111.33851 c -0.589219,-0.58922 -0.323178,-5.20744 0.450128,-7.8138 1.052039,-3.545808 2.812066,-6.89724 4.093477,-7.794776 1.368323,-0.95841 3.435666,-0.958003 4.394536,8.67e-4 0.9279,0.927906 1.02957,7.010549 0.1461,8.740969 -0.58043,1.13687 -7.636421,7.18434 -8.382452,7.18434 -0.211305,0 -0.52711,-0.14292 -0.701789,-0.3176 z"
     id="path3174"
     inkscape:connector-curvature="0" />
  <path
     style="fill:#f6f6f6;fill-opacity:1;stroke:none;stroke-width:5.31231689;stroke-linecap:round;stroke-linejoin:round;stroke-miterlimit:4;stroke-dasharray:none;stroke-dashoffset:0;stroke-opacity:1;paint-order:normal"
     d="m 110.70278,100.30749 c -0.69529,-1.299158 -0.6499,-3.85341 0.0946,-5.325316 1.03075,-2.037746 6.99645,-4.331997 9.33468,-3.589872 1.13237,0.359401 1.69675,2.536074 1.26051,4.861463 -0.28126,1.499244 -0.62962,1.816636 -3.34548,3.048065 -1.66734,0.75601 -3.88449,1.51096 -4.92701,1.67766 -1.60039,0.25591 -1.97671,0.1513 -2.41733,-0.672 z"
     id="path3176"
     inkscape:connector-curvature="0" />
  <path
     style="fill:#f6f6f6;fill-opacity:1;stroke:none;stroke-width:5.31231689;stroke-linecap:round;stroke-linejoin:round;stroke-miterlimit:4;stroke-dasharray:none;stroke-dashoffset:0;stroke-opacity:1;paint-order:normal"
     d="m 125.76097,99.922654 c -0.54712,-0.54712 -0.38149,-3.274536 0.23638,-3.892404 0.33196,-0.331962 1.92304,-0.571678 3.79442,-0.571678 3.56861,0 4.41624,0.666534 4.11934,3.239248 -0.14606,1.265698 -0.21055,1.288751 -3.98166,1.42333 -2.10825,0.0752 -3.98407,-0.0141 -4.16848,-0.198496 z"
     id="path3178"
     inkscape:connector-curvature="0" />
  <path
     style="fill:#f6f6f6;fill-opacity:1;stroke:none;stroke-width:5.31231689;stroke-linecap:round;stroke-linejoin:round;stroke-miterlimit:4;stroke-dasharray:none;stroke-dashoffset:0;stroke-opacity:1;paint-order:normal"
     d="m 140.68939,104.7712 c -1.60883,-1.93851 4.96134,-12.089805 7.50745,-11.599467 1.31167,0.252603 1.75721,2.40374 1.10318,5.326266 -0.7166,3.202081 -1.99102,4.902581 -4.54278,6.061531 -2.35818,1.07103 -3.3134,1.12073 -4.06785,0.21167 z"
     id="path3180"
     inkscape:connector-curvature="0" />
  <path
     style="fill:#f6f6f6;fill-opacity:1;stroke:none;stroke-width:5.31231689;stroke-linecap:round;stroke-linejoin:round;stroke-miterlimit:4;stroke-dasharray:none;stroke-dashoffset:0;stroke-opacity:1;paint-order:normal"
     d="m 143.57066,120.51992 c -0.30316,-0.36529 -0.67689,-1.72547 -0.83052,-3.02263 -0.27898,-2.35554 -0.27581,-2.36222 2.55444,-5.37334 2.10602,-2.24062 3.04814,-2.93261 3.66852,-2.69454 0.6624,0.25418 0.76705,0.64009 0.50682,1.86901 -0.69519,3.28307 -3.9919,9.88566 -4.93596,9.88566 -0.22665,0 -0.66013,-0.29887 -0.9633,-0.66416 z"
     id="path3182"
     inkscape:connector-curvature="0" />
  <path
     style="fill:#f6f6f6;fill-opacity:1;stroke:none;stroke-width:5.31231689;stroke-linecap:round;stroke-linejoin:round;stroke-miterlimit:4;stroke-dasharray:none;stroke-dashoffset:0;stroke-opacity:1;paint-order:normal"
     d="m 129.47506,118.56286 c -1.04808,-0.37059 -2.62642,-1.45621 -3.50743,-2.4125 -1.52056,-1.65049 -1.59128,-1.88463 -1.3938,-4.61471 0.18587,-2.56969 0.39026,-3.04301 1.91899,-4.44399 2.19522,-2.01176 5.89359,-3.1638 8.15351,-2.53981 2.07569,0.57313 4.8678,3.62657 5.51542,6.03164 0.86075,3.19657 -0.60846,6.55702 -3.45794,7.90918 -2.00439,0.95115 -4.66425,0.97698 -7.22875,0.0702 z"
     id="path3184"
     inkscape:connector-curvature="0" />
  <path
     style="fill:#f6f6f6;fill-opacity:1;stroke:none;stroke-width:5.31231689;stroke-linecap:round;stroke-linejoin:round;stroke-miterlimit:4;stroke-dasharray:none;stroke-dashoffset:0;stroke-opacity:1;paint-order:normal"
     d="m 114.206,115.2444 c -1.02776,-2.45978 -0.89491,-2.93395 1.55622,-5.5544 3.95479,-4.22799 8.56579,-6.08783 6.76884,-2.73019 -0.72669,1.35783 -7.14166,9.93668 -7.43031,9.93668 -0.11245,0 -0.51509,-0.74344 -0.89475,-1.65209 z"
     id="path3186"
     inkscape:connector-curvature="0" />
  <path
     style="fill:#f6f6f6;fill-opacity:1;stroke:none;stroke-width:5.31231689;stroke-linecap:round;stroke-linejoin:round;stroke-miterlimit:4;stroke-dasharray:none;stroke-dashoffset:0;stroke-opacity:1;paint-order:normal"
     d="m 113.87301,128.05434 c -0.90202,-0.90754 -0.12589,-2.4259 2.66828,-5.22008 1.66407,-1.66407 3.59301,-3.168 4.28652,-3.34206 1.37841,-0.34595 2.69227,-0.0191 2.69227,0.66984 0,0.81474 -3.91864,6.31086 -5.00884,7.02518 -1.28768,0.84372 -4.13281,1.37562 -4.63823,0.86712 z"
     id="path3188"
     inkscape:connector-curvature="0" />
  <path
     style="fill:#f6f6f6;fill-opacity:1;stroke:none;stroke-width:5.31231689;stroke-linecap:round;stroke-linejoin:round;stroke-miterlimit:4;stroke-dasharray:none;stroke-dashoffset:0;stroke-opacity:1;paint-order:normal"
     d="m 91.546516,128.44915 c -0.600662,-1.54999 -0.172536,-6.1787 0.664851,-7.1881 0.319564,-0.38521 2.586985,-2.32874 5.038713,-4.31896 2.451729,-1.99022 5.08253,-4.13201 5.84624,-4.75952 0.7637,-0.62752 1.52096,-1.00852 1.6828,-0.84668 0.16185,0.16184 0.58167,1.40221 0.93293,2.75638 0.54859,2.11486 0.539,2.67215 -0.068,3.95128 -0.99842,2.10403 -11.830882,11.70073 -13.220757,11.71256 -0.203,0.002 -0.597554,-0.58641 -0.876787,-1.30696 z"
     id="path3190"
     inkscape:connector-curvature="0" />
  <path
     style="fill:#f6f6f6;fill-opacity:1;stroke:none;stroke-width:5.31231689;stroke-linecap:round;stroke-linejoin:round;stroke-miterlimit:4;stroke-dasharray:none;stroke-dashoffset:0;stroke-opacity:1;paint-order:normal"
     d="m 70.41931,126.48002 c -0.966873,-3.04635 4.217364,-14.14787 7.797211,-16.69694 0.88057,-0.62702 2.514966,-1.16154 4.029636,-1.31787 3.565898,-0.36803 4.114859,0.48078 4.114859,6.36248 0,2.41382 -0.191354,4.89207 -0.425233,5.50721 -0.522012,1.373 -3.598004,3.06531 -9.677426,5.32421 -5.363392,1.99285 -5.462659,2.0068 -5.839047,0.82091 z"
     id="path3192"
     inkscape:connector-curvature="0" />
  <path
     style="fill:#f6f6f6;fill-opacity:1;stroke:none;stroke-width:5.31231689;stroke-linecap:round;stroke-linejoin:round;stroke-miterlimit:4;stroke-dasharray:none;stroke-dashoffset:0;stroke-opacity:1;paint-order:normal"
     d="m 60.575796,120.05227 c -0.796648,-1.74846 -0.156532,-4.41572 1.143351,-4.76417 1.766495,-0.47353 3.926339,-0.33252 4.810611,0.31408 0.644541,0.4713 0.801756,1.15312 0.686552,2.97749 l -0.149422,2.36621 -2.977346,0.14183 c -2.768605,0.13188 -3.014954,0.0593 -3.513746,-1.03544 z"
     id="path3194"
     inkscape:connector-curvature="0" />
</svg>
