<?xml version="1.0" encoding="UTF-8" standalone="no"?>
<svg
   xmlns:dc="http://purl.org/dc/elements/1.1/"
   xmlns:cc="http://creativecommons.org/ns#"
   xmlns:rdf="http://www.w3.org/1999/02/22-rdf-syntax-ns#"
   xmlns:svg="http://www.w3.org/2000/svg"
   xmlns="http://www.w3.org/2000/svg"
   version="1.1"
   id="svg941"
   width="70.548691"
   height="66.098076"
   viewBox="0 0 70.54869 66.098075">
  <metadata
     id="metadata947">
    <rdf:RDF>
      <cc:Work
         rdf:about="">
        <dc:format>image/svg+xml</dc:format>
        <dc:type
           rdf:resource="http://purl.org/dc/dcmitype/StillImage" />
        <dc:title></dc:title>
      </cc:Work>
    </rdf:RDF>
  </metadata>
  <defs
     id="defs945">
    <filter
       style="color-interpolation-filters:sRGB"
       id="filter953">
      <feConvolveMatrix
         order="3 3"
         kernelMatrix="0 -0.15 0 -0.15 1.6 -0.15 0 -0.15 0"
         divisor="1"
         in="SourceGraphic"
         targetX="1"
         targetY="1"
         id="feConvolveMatrix951" />
    </filter>
  </defs>
  <path
     style="fill:#000000;stroke-width:0.6370188"
     d="m 54.109186,65.855069 c 0,-0.539923 -0.492249,-0.692772 -1.433291,-0.445058 -0.788312,0.207512 -2.940386,0.20123 -4.782386,-0.01396 -2.729943,-0.318934 -3.216036,-0.551607 -2.629332,-1.258535 0.902325,-1.087232 -0.199026,-1.185693 -2.068903,-0.18497 -1.802157,0.96449 -4.169613,-0.732161 -5.687962,-4.076303 -1.677178,-3.693957 -1.537824,-5.564275 0.738081,-9.906071 1.454598,-2.774964 1.966309,-4.592519 1.948279,-6.920135 -0.0234,-3.020985 0.08351,-3.217398 2.486401,-4.567898 2.645354,-1.486773 2.819647,-1.767222 1.950489,-3.138492 -0.438086,-0.691186 -1.041413,-0.597949 -3.175336,0.490698 -1.448969,0.739208 -2.634488,1.051531 -2.634488,0.69405 0,-0.941843 -1.63261,-0.797505 -2.476163,0.218914 -1.048267,1.263085 -5.770277,0.268642 -7.218851,-1.520271 -0.987846,-1.219939 -1.283581,-1.292411 -2.197024,-0.538405 -0.823648,0.679884 -1.114397,0.696363 -1.323525,0.07501 -0.28413,-0.844196 -2.715403,-1.130786 -2.702057,-0.31851 0.0044,0.262771 2.013302,1.289606 4.464409,2.281857 2.451107,0.992251 4.293938,2.067219 4.095178,2.38882 -0.19876,0.321601 0.211935,0.584728 0.912655,0.584728 0.700721,0 1.451202,0.286659 1.667737,0.637019 0.216534,0.35036 -0.196535,0.637019 -0.917933,0.637019 -0.721398,0 -1.311632,0.286658 -1.311632,0.637018 0,0.350361 0.556398,0.637019 1.236443,0.637019 0.680043,0 1.443714,0.335373 1.697046,0.745274 0.299923,0.485285 0.126217,0.616956 -0.497936,0.377446 -0.527198,-0.202304 -1.355632,-0.12241 -1.840968,0.177543 -0.68163,0.421271 -0.523532,0.688578 0.694787,1.174722 l 1.577212,0.629352 -1.751802,0.04038 c -1.889395,0.04356 -2.483192,1.295563 -0.637019,1.343143 0.681707,0.01758 0.372366,0.346407 -0.796273,0.846459 l -1.911057,0.817722 1.911057,0.695802 1.911056,0.695801 -1.714206,0.05029 c -2.399312,0.07039 -2.772686,1.091968 -0.678583,1.856653 l 1.755771,0.641135 -2.070311,0.05029 c -2.507223,0.0609 -2.792986,1.300627 -0.31851,1.381779 1.640432,0.0538 1.610058,0.09891 -0.477764,0.70948 l -2.229566,0.652024 1.592548,0.650724 1.592546,0.650724 -1.592546,0.442875 c -1.531239,0.425821 -1.506715,0.463897 0.637018,0.988951 l 2.229566,0.546085 -1.858504,0.358174 c -2.81248,0.542026 -2.77178,1.826447 0.06722,2.121336 2.203104,0.228846 2.132921,0.265341 -0.756791,0.393575 l -3.185094,0.141344 3.513862,1.124743 c 1.932623,0.618606 4.082563,1.484813 4.777641,1.924897 1.25572,0.795053 1.255654,0.797211 -0.01026,0.337968 -2.108482,-0.764918 -13.635224,-1.11123 -14.496671,-0.435549 -0.839872,0.658755 -2.63957,0.572233 -7.798986,-0.374939 l -3.1850952,-0.584725 3.3067542,-0.07493 c 1.818714,-0.04124 3.495995,-0.381125 3.727293,-0.755374 0.231297,-0.374249 0.852229,-0.514791 1.379849,-0.312325 1.595179,0.612128 5.719108,-0.836404 6.711549,-2.357432 0.512251,-0.785094 1.07185,-2.86073 1.243551,-4.612534 0.1717,-1.751799 1.103775,-5.048376 2.071275,-7.32572 2.681797,-6.312516 2.714824,-7.150648 0.359861,-9.132218 -2.218839,-1.86703 -5.10423,-2.286235 -5.10423,-0.741571 0,1.266799 -1.839749,1.21752 -3.282241,-0.08792 -0.951172,-0.860798 -1.325826,-0.900005 -2.14038,-0.223984 -0.821143,0.681486 -1.131834,0.621917 -1.845297,-0.353804 -0.812885,-1.111684 -0.915681,-1.115491 -1.958637,-0.07254 -0.813603,0.813605 -1.317575,0.920758 -1.932051,0.410787 -0.576353,-0.478331 -0.95794,-0.485076 -1.244143,-0.02199 -0.6070592,0.982242 -1.6116652,0.812913 -1.6116652,-0.27165 0,-0.693893 -0.47611,-0.84438 -1.820665,-0.57547 -1.478326,0.295666 -1.886336,0.113004 -2.169927,-0.971454 -0.214331,-0.819598 -0.864513,-1.335586 -1.682939,-1.335586 -0.997908,0 -1.3336756,-0.400942 -1.3336756,-1.592547 0,-0.990918 -0.3609774,-1.592547 -0.9555281,-1.592547 -1.2241548,0 -1.2241548,-0.895097 0,-1.911057 1.1622607,-0.964577 1.2424027,-2.338224 0.1592588,-2.729656 -0.5307297,-0.191798 -0.1930365,-0.931413 1.0126233,-2.217847 1.5069216,-1.607881 1.6930216,-2.146598 1.1147826,-3.227048 -0.995481,-1.860073 -0.932273,-1.983239 1.55003,-3.020412 1.987353,-0.830369 2.16397,-1.087468 1.543494,-2.246838 -1.020037,-1.905956 -0.368459,-2.903297 2.213182,-3.387615 1.7923792,-0.336253 2.2825122,-0.72838 2.2901792,-1.832238 0.01655,-2.3825026 0.939616,-3.2211616 3.07525,-2.7940346 1.575415,0.315083 2.016114,0.147924 2.34542,-0.889627 0.272362,-0.858135 0.77184,-1.161338 1.521279,-0.923475 0.66474,0.210981 1.588453,-0.16816 2.285069,-0.937912 0.765774,-0.8461706 1.599511,-1.1555002 2.415974,-0.8963648 0.685678,0.2176253 1.449677,0.067241 1.697775,-0.334192 0.32363,-0.5236436 0.93651,-0.5453176 2.16905,-0.076707 1.52908,0.5813555 1.784176,0.4790137 2.320201,-0.9308404 0.675204,-1.7759215 1.063823,-1.8733588 3.610284,-0.905196 1.539594,0.5853525 1.943561,0.483508 2.934058,-0.7397048 L 36.324673,0 38.873446,1.4324906 c 2.419248,1.3596937 2.630962,1.3786385 4.166081,0.3727897 2.089479,-1.3690797 3.198307,-0.8990921 3.744362,1.5870856 0.33873,1.5422306 0.679988,1.8972685 1.493362,1.5536717 2.214986,-0.9356823 3.920881,-1.0596376 3.920881,-0.2849004 0,0.5489053 0.664929,0.6574332 2.229567,0.3639054 2.159375,-0.4051004 2.229571,-0.355967 2.229571,1.5606858 v 1.978953 l 2.968348,-0.445131 c 3.152712,-0.472778 3.047875,-0.621346 1.77326,2.5129146 -0.216729,0.532943 0.176882,1.010779 1.012644,1.229336 1.042388,0.27259 1.267751,0.670814 0.948628,1.676265 -0.369881,1.165414 -0.154335,1.318739 1.853945,1.318739 2.56246,0 2.747727,0.330088 1.166177,2.077687 -1.052265,1.162728 -1.047861,1.265241 0.09033,2.097497 0.658167,0.481261 1.514331,0.998957 1.902605,1.150436 0.39638,0.154645 0.05705,0.753507 -0.773862,1.365706 l -1.479803,1.09029 1.341763,1.428241 c 1.191386,1.268172 1.232297,1.519092 0.36502,2.23887 -1.36352,1.131611 -1.243636,1.453656 1.020952,2.742735 1.872071,1.065639 1.9276,1.201156 0.939542,2.292945 -0.948914,1.048537 -0.957258,1.338439 -0.08655,3.008045 1.379905,2.646036 1.277819,2.803206 -1.820879,2.803206 -2.256547,0 -2.856213,0.24444 -3.125458,1.274038 -0.416984,1.594532 -2.466299,1.659548 -5.019845,0.159254 -1.817295,-1.067726 -1.933739,-1.065288 -2.758834,0.05778 -0.599594,0.816148 -1.277141,1.040622 -2.229042,0.738499 -0.936805,-0.29733 -1.623232,-0.08447 -2.179111,0.675746 -0.591481,0.808894 -0.939614,0.902532 -1.283971,0.345352 -0.366359,-0.592781 -0.683609,-0.589214 -1.41271,0.01588 -1.022621,0.848698 -3.976694,1.213614 -4.998001,0.617403 -0.350363,-0.204542 -1.306595,-0.387457 -2.124962,-0.406489 -1.339162,-0.03115 -1.458688,0.191362 -1.195408,2.225328 0.20596,1.59114 -0.270056,3.5645 -1.608525,6.668237 -1.472991,3.415688 -1.830396,5.035189 -1.587256,7.19232 0.408089,3.620561 2.065692,5.501599 4.431199,5.028497 0.971541,-0.194306 1.766437,-0.08089 1.766437,0.252041 0,0.373827 0.578114,0.385528 1.511664,0.03061 0.907676,-0.345105 1.74555,-0.34085 2.097036,0.01064 0.321955,0.321958 3.439935,0.742306 6.928837,0.934104 3.488909,0.191804 7.920082,0.726575 9.84707,1.188385 l 3.5036,0.839643 -5.573917,-0.02526 c -3.244844,-0.01474 -5.573917,-0.289356 -5.573917,-0.657276 0,-0.347607 -0.716645,0.04118 -1.592539,0.864104 -0.953037,0.895333 -1.592553,1.165897 -1.592553,0.673767 z M 50.159674,38.299112 c 0.847028,-0.847031 1.061176,-2.679265 0.254901,-2.180961 -0.280233,0.173194 -0.836426,-0.20856 -1.235976,-0.848343 -0.613941,-0.983073 -0.548612,-1.116734 0.421794,-0.862968 0.798181,0.20873 1.264393,-0.143867 1.529218,-1.156555 0.451539,-1.726688 0.625264,-1.550306 -2.024521,-2.055498 -1.667826,-0.317978 -2.063229,-0.213954 -1.79946,0.473417 0.23677,0.617017 -0.02938,0.78486 -0.888331,0.560236 -0.674507,-0.176388 -1.226372,-0.0141 -1.226372,0.360638 0,1.753341 2.766139,6.474456 3.793437,6.474456 0.225987,0 0.754877,-0.343989 1.17531,-0.764422 z m 12.867773,-2.739181 c 0,-1.576622 -0.263213,-2.866584 -0.584916,-2.866584 -0.321708,0 -0.984635,-0.153386 -1.473176,-0.340857 -1.28,-0.491181 -1.141675,4.636299 0.147037,5.450685 1.636628,1.034238 1.911055,0.712096 1.911055,-2.243244 z m -7.007205,1.164943 c 0,-1.319772 -1.812412,-3.394508 -2.965313,-3.394508 -1.372392,0 -0.988098,2.383866 0.558979,3.467482 1.813288,1.270073 2.406334,1.252088 2.406334,-0.07297 z M 16.506499,32.728065 c 0.311688,-0.582392 0.370681,-1.376065 0.131098,-1.763718 -0.637885,-1.032121 -3.93463,2.00451 -3.93463,3.624187 0,1.266433 0.06482,1.276801 1.618415,0.258851 0.890128,-0.583234 1.873431,-1.536928 2.185117,-2.11932 z m 15.923792,-1.149501 c 0.02136,-2.183326 -0.499918,-2.569365 -1.763393,-1.305889 -0.806942,0.806942 -1.054377,4.466454 -0.349645,5.171185 0.738667,0.738666 2.092214,-1.737324 2.113038,-3.865296 z m 5.116409,1.021798 c 0,-0.329472 -0.561201,-0.288513 -1.274037,0.09298 -0.70072,0.375013 -1.264501,1.31674 -1.252845,2.092724 l 0.0212,1.410879 1.252844,-1.503864 c 0.689064,-0.827125 1.252845,-1.768851 1.252845,-2.092724 z m 31.193667,2.800315 c -0.04314,-1.018297 -1.763383,-2.70733 -2.757301,-2.70733 -1.227578,0 -1.432903,2.285204 -0.248285,2.763209 1.248919,0.503948 3.027919,0.470872 3.005586,-0.05588 z M 9.5495078,34.269536 C 10.99163,33.523785 11.42893,32.856794 11.42893,31.402951 c 0,-1.064257 -0.349004,-1.91674 -0.796273,-1.944989 -0.6370192,-0.04023 -0.6370192,-0.114552 0,-0.371595 1.370262,-0.552912 0.869635,-1.48917 -0.7962742,-1.48917 -0.8759,0 -1.596937,0.358322 -1.602302,0.796274 -0.0072,0.585801 -0.154532,0.567783 -0.557489,-0.06817 -0.695975,-1.098397 -2.700055,-0.494278 -4.285639,1.291884 -1.188301,1.338621 -1.184853,1.347435 0.393752,1.006703 4.603312,-0.993592 5.984693,-1.172114 5.350769,-0.691504 -1.484361,1.125373 -2.915049,5.309038 -1.815532,5.309038 0.19258,0 1.195885,-0.437349 2.229566,-0.971886 z M 20.984212,33.967384 c 0.523598,-0.978351 0.484446,-1.274037 -0.168693,-1.274037 -0.936314,0 -2.379382,1.236303 -2.379382,2.03846 0,1.034791 1.88835,0.468285 2.548075,-0.764423 z m 20.264741,-0.803589 c 0.147214,-0.764422 -0.195832,-1.107467 -1.107469,-1.107467 -0.911637,0 -1.320746,0.409109 -1.320746,1.320746 0,1.632452 2.108423,1.447262 2.428215,-0.213279 z m 17.956383,0.509633 c 0,-0.882717 -4.869078,-2.693527 -5.512507,-2.0501 -0.504284,0.504284 3.088581,2.981075 4.324378,2.981075 0.653472,0 1.188129,-0.418939 1.188129,-0.930975 z m -52.8725562,-1.3453 c 0,-0.593216 -0.433409,-0.918181 -1.061996,-0.796273 -1.598132,0.309942 -1.817569,1.798511 -0.265126,1.798511 0.782473,0 1.327122,-0.411316 1.327122,-1.002238 z M 28.628437,30.660536 c 0,-0.776215 -1.135057,-0.618479 -1.659857,0.230665 -0.30383,0.491608 -0.640827,0.259837 -0.988416,-0.679785 -0.402297,-1.087511 -0.94408,-1.377793 -2.283915,-1.223693 -1.395058,0.160449 -1.756509,0.529732 -1.756509,1.794567 0,1.428515 0.246048,1.585064 2.388821,1.519887 1.363858,-0.04148 2.397513,0.231839 2.40908,0.637019 0.02254,0.789551 1.890796,-1.461945 1.890796,-2.27866 z m 15.845223,1.810996 c 0.542018,-0.653096 0.429983,-1.11475 -0.467684,-1.927128 -1.002988,-0.907692 -1.291599,-0.934366 -1.919797,-0.177436 -0.865698,1.043103 -0.304957,2.963398 0.865336,2.963398 0.445156,0 1.13012,-0.386476 1.522145,-0.858834 z M 20.614929,30.661468 c 0.537349,-0.767172 0.864813,-1.507044 0.727698,-1.644158 -0.51784,-0.517841 -2.90649,1.21286 -2.90649,2.105903 0,1.363833 1.05701,1.139824 2.178792,-0.461745 z m 14.383697,0.476927 c 0,-0.504864 -0.286659,-1.095099 -0.637019,-1.311633 -0.35036,-0.216535 -0.637019,0.196536 -0.637019,0.917933 0,0.721398 0.286659,1.311633 0.637019,1.311633 0.35036,0 0.637019,-0.413069 0.637019,-0.917933 z m 31.093318,-0.790767 c 0.261865,-1.83942 -1.903431,-3.075717 -3.701507,-2.113413 -0.700724,0.375015 -1.274045,1.044414 -1.274045,1.487556 0,2.549122 4.619043,3.130133 4.975552,0.625857 z m -6.249585,0.553843 c 0,-0.284811 -0.864116,-1.345712 -1.920255,-2.357557 l -1.920255,-1.839721 1.760999,-1.449497 c 1.486857,-1.223849 1.612251,-1.549489 0.805472,-2.091819 -1.34045,-0.901072 -1.50928,-0.853109 -3.151964,0.895449 -1.162445,1.237366 -1.360082,1.924398 -0.962076,3.344348 0.275507,0.982888 0.438758,2.047459 0.362797,2.365711 -0.07597,0.318254 0.235329,0.815516 0.691779,1.105028 1.073505,0.680903 4.333503,0.70201 4.333503,0.02806 z M 15.888062,27.893293 c 0,-0.887372 -0.371042,-1.570134 -0.853277,-1.570134 -0.988714,0 -2.523424,2.996728 -1.982741,3.871571 0.671963,1.087259 2.836018,-0.668876 2.836018,-2.301437 z m 24.85661,1.590898 c 1.095898,-2.047705 0.199793,-3.798051 -1.944448,-3.798051 -2.290079,0 -3.551907,1.908105 -2.527561,3.822113 0.898673,1.679186 3.568146,1.664824 4.472009,-0.02406 z m 11.963075,0.533677 c 0.420432,-0.420432 0.764423,-1.126993 0.764423,-1.570134 0,-1.093879 -2.222459,-2.209541 -3.45746,-1.735627 -0.997308,0.382705 -1.385731,2.836768 -0.576996,3.645504 0.676089,0.676087 2.437171,0.493118 3.270033,-0.339743 z m -5.7165,-1.3606 c 0.27953,-1.451485 -1.617088,-3.608146 -3.173089,-3.608146 -1.512081,0 -1.570805,2.329245 -0.09971,3.954792 1.291598,1.427201 2.965324,1.249924 3.272794,-0.346646 z m -18.36281,-1.719503 c 0,-0.688394 -0.270403,-1.251625 -0.600897,-1.251625 -0.83809,0 -2.603005,2.639302 -2.200462,3.29063 0.56349,0.911745 2.801359,-0.717116 2.801359,-2.039005 z m 2.866585,-0.296097 c 0,-0.992687 -0.358323,-1.924327 -0.796273,-2.07031 -0.540502,-0.180168 -0.796274,0.484841 -0.796274,2.07031 0,1.58547 0.255772,2.250479 0.796274,2.070311 0.43795,-0.145983 0.796273,-1.077623 0.796273,-2.070311 z m -11.742969,0.933116 c 1.75031,-0.936737 1.605919,-2.667355 -0.201133,-2.410713 -0.921102,0.130818 -1.506034,0.715751 -1.636852,1.636852 -0.22801,1.605445 0.05864,1.726136 1.837985,0.773861 z m 41.364339,-0.645165 c 0,-0.861149 -1.257233,-1.386233 -2.331813,-0.973879 -0.78611,0.301659 -0.837135,0.57484 -0.241433,1.29262 0.755011,0.90973 2.573246,0.684511 2.573246,-0.318741 z m -36.947087,0.03056 c 0,-0.35036 -0.573316,-0.637018 -1.274036,-0.637018 -0.700721,0 -1.274038,0.286658 -1.274038,0.637018 0,0.35036 0.573317,0.637019 1.274038,0.637019 0.70072,0 1.274036,-0.286659 1.274036,-0.637019 z M 6.4297458,25.033419 c -0.289558,-2.060956 -0.387587,-2.125566 -1.953465,-1.287534 -2.257442,1.208147 -1.383325,3.35593 1.21948,2.996376 0.628656,-0.08684 0.879742,-0.671413 0.733985,-1.708842 z m 4.8956642,1.3672 c 0.468604,-0.297028 0.755262,-1.224278 0.637018,-2.060556 -0.171824,-1.215229 -0.596927,-1.520507 -2.1173212,-1.520507 -2.114048,0 -2.905061,1.614123 -1.575874,3.215695 0.866544,1.044122 1.8078132,1.156651 3.0561772,0.365368 z m 23.56067,-0.926518 c 0.119166,-0.614451 -0.200555,-1.061995 -0.758679,-1.061995 -1.183412,0 -1.897652,1.038433 -1.337559,1.944681 0.576203,0.932317 1.848105,0.396743 2.096238,-0.882686 z m 29.681817,1.099416 c 1.568,-0.601696 1.195659,-1.506836 -0.99954,-2.429847 l -2.007169,-0.843952 1.800876,-0.877098 c 2.512498,-1.223685 2.629773,-2.27698 0.310256,-2.78643 -1.347599,-0.295983 -2.466031,-0.108274 -3.537343,0.593678 -1.919031,1.257397 -1.988793,2.012197 -0.228525,2.472518 0.840231,0.219725 1.161684,0.635431 0.863913,1.117233 -0.283383,0.458516 0.139448,1.23914 1.05069,1.939767 1.795183,1.380271 1.499712,1.292699 2.746842,0.814131 z M 50.924096,25.02106 c 0,-0.284068 -0.788311,-1.139477 -1.751803,-1.900909 l -1.751804,-1.384421 -0.210264,1.746829 c -0.115647,0.960757 0.131079,1.957793 0.548283,2.215637 0.894526,0.55285 3.165588,0.06706 3.165588,-0.677136 z M 27.3544,24.412103 c 0,-0.350361 -0.317328,-0.637019 -0.705172,-0.637019 -0.387846,0 -0.531175,-0.429987 -0.318511,-0.955529 0.212666,-0.52554 0.560663,-1.385515 0.773327,-1.911056 0.241295,-0.59629 0.02777,-0.955528 -0.567961,-0.955528 -0.525043,0 -1.127806,0.690016 -1.339474,1.533367 -0.211668,0.843353 -0.560072,1.989986 -0.774231,2.548075 -0.294845,0.768354 0.01382,1.014709 1.271321,1.014709 0.913386,0 1.660701,-0.286659 1.660701,-0.637019 z M 18.718438,22.97881 c -0.242314,-0.788311 -0.526688,-1.531131 -0.63194,-1.65071 -0.476744,-0.541642 -2.902028,0.744076 -3.495563,1.853107 -0.601301,1.123543 -0.430825,1.230896 1.95466,1.230896 2.416069,0 2.580146,-0.108233 2.172843,-1.433293 z m 22.650375,0.159255 c -0.771974,-1.442446 -1.93159,-1.635715 -3.05769,-0.509615 -1.284211,1.284211 -0.867679,1.783653 1.487556,1.783653 2.054581,0 2.192211,-0.111677 1.570134,-1.274038 z m 13.500525,0.09486 c 0.457817,-0.648548 1.7293,-1.64125 2.825512,-2.206006 3.024811,-1.558345 3.80997,-4.259043 1.238216,-4.259043 -1.623792,0 -4.186858,2.630018 -4.186858,4.296224 0,0.698402 -0.571836,0.872556 -2.229567,0.679025 -2.303463,-0.268917 -2.88399,0.485711 -1.465144,1.904554 1.12188,1.12188 2.866937,0.932304 3.817841,-0.414754 z m -23.159327,-0.0174 c 0.468605,-0.297027 0.755262,-1.224278 0.637019,-2.060556 -0.160809,-1.137314 -0.614138,-1.520505 -1.798812,-1.520505 -1.801182,0 -2.481712,1.740448 -1.257365,3.215696 0.880921,1.061444 1.236315,1.115119 2.419158,0.365367 z M 45.827944,21.86403 c 0,-1.727411 -0.198951,-1.912918 -2.070311,-1.930427 -1.799872,-0.01684 -1.914706,-0.109774 -0.879099,-0.711444 1.628841,-0.946329 0.247871,-1.794476 -2.943013,-1.807506 -2.878644,-0.01176 -3.08409,0.84974 -0.477764,2.003412 1.051081,0.465254 1.911056,1.189672 1.911056,1.609819 0,0.891989 2.461738,2.747203 3.645341,2.747203 0.479532,0 0.81379,-0.784956 0.81379,-1.911057 z M 23.873341,21.793 c 0.857092,-2.700458 -2.917366,-4.167701 -3.930372,-1.527851 -0.478634,1.247298 0.851299,2.872921 2.350354,2.872921 0.63421,0 1.345219,-0.605281 1.580018,-1.34507 z m 13.924411,-0.733529 c 0.72498,-1.14933 -0.473171,-3.017551 -1.935255,-3.017551 -1.121394,0 -2.430731,2.777223 -1.927547,4.088501 0.452032,1.177976 2.866458,0.508586 3.862802,-1.07095 z m -27.468553,0.212777 c 0.271049,-0.251655 -0.06343,-0.960948 -0.7432812,-1.576208 -1.03351,-0.935312 -1.479691,-0.991786 -2.722383,-0.344574 -1.969994,1.026003 -1.891593,0.908126 -1.420509,2.135751 0.320067,0.834081 0.866698,0.984412 2.403815,0.661082 1.094249,-0.230172 2.2113092,-0.624395 2.4823582,-0.876051 z m 5.386372,-1.119422 c 0.400797,-1.203813 -2.736533,-2.921406 -4.382165,-2.399103 l -1.4319432,0.454482 1.7926542,1.541976 c 1.833651,1.57724 3.572422,1.751332 4.021454,0.402645 z m 39.259668,-1.151918 c 0.49597,-1.292469 -1.590133,-1.781999 -2.730952,-0.640854 -0.850143,0.85039 -0.865866,1.085942 -0.103923,1.557017 1.084205,0.670315 2.387745,0.249043 2.834875,-0.916163 z m -36.06104,-0.799739 c 0.166462,-0.499948 -0.347278,-0.796273 -1.380506,-0.796273 -1.607739,0 -2.094688,0.612641 -1.198931,1.508399 0.655349,0.655349 2.272804,0.208805 2.579437,-0.712126 z m 32.054209,0.105858 c 1.1291,-1.360483 0.03306,-3.068751 -2.13603,-3.32913 -2.049785,-0.246059 -3.551105,1.956267 -2.33362,3.423246 1.008216,1.21483 3.425568,1.163929 4.46965,-0.09412 z M 26.332809,17.780955 c -0.208799,-0.544121 0.189892,-1.067616 1.011748,-1.328463 1.915895,-0.608082 1.370747,-2.503153 -0.791878,-2.752767 -1.600872,-0.184775 -1.746354,-0.02115 -1.746354,1.964142 0,2.156066 0.387529,3.015066 1.360215,3.015066 0.280971,0 0.355792,-0.404089 0.166269,-0.897978 z m 5.480723,-1.013078 c -0.760409,-1.420838 -1.613875,-1.633229 -2.273583,-0.565798 -0.465411,0.75305 0.773124,1.813834 2.13674,1.830081 0.621542,0.0074 0.654495,-0.29704 0.136843,-1.264283 z m 31.373171,0.387279 c 1.525925,-1.158341 1.398398,-1.790391 -0.311992,-1.546367 -0.784743,0.111957 -1.522401,0.705212 -1.639261,1.318343 -0.251209,1.318039 0.413079,1.395668 1.951253,0.228024 z M 22.895269,16.130859 c -0.375015,-0.700721 -0.958417,-1.274039 -1.296451,-1.274039 -0.900333,0 -0.750814,1.749926 0.181667,2.12619 1.526772,0.616067 1.792031,0.413299 1.114784,-0.852151 z M 12.702967,15.536767 c 0,-1.404195 -1.938009,-2.233466 -3.8221122,-1.635475 -1.255932,0.398618 -1.67831,1.612955 -0.849359,2.441905 0.233574,0.233574 1.380208,0.42468 2.5480762,0.42468 1.674036,0 2.123395,-0.260531 2.123395,-1.23111 z m 7.007207,0.937416 c 0,-0.753757 -2.914533,-2.891401 -3.942229,-2.891401 -0.80617,0 -1.153921,0.479939 -1.153921,1.592548 0,1.433293 0.254807,1.592547 2.548075,1.592547 1.401441,0 2.548075,-0.132162 2.548075,-0.293694 z m 15.507481,-1.32326 c -0.09103,-1.143506 -0.01681,-1.127909 0.873972,0.183662 0.973138,1.43283 2.988796,1.922172 3.631841,0.881703 0.187494,-0.303373 1.064388,-0.413284 1.948651,-0.244247 1.440818,0.275429 1.607751,0.101205 1.607751,-1.677977 0,-2.3015 -0.981025,-2.63802 -1.639772,-0.562488 l -0.451589,1.42283 -0.526339,-1.42283 c -0.559353,-1.512076 -3.312942,-2.012372 -4.096644,-0.744314 -0.273926,0.44322 -0.8461,0.292308 -1.649972,-0.435185 -1.144706,-1.035946 -1.304169,-1.040155 -2.284028,-0.06029 -0.919476,0.919476 -0.942161,1.261261 -0.178433,2.688302 1.00162,1.871541 2.914267,1.851367 2.764562,-0.02916 z m 20.802587,-1.249631 c 0,-2.812614 -1.643775,-3.065414 -2.047467,-0.314884 -0.306591,2.088938 -0.0921,2.544451 1.198113,2.544451 0.546014,0 0.849354,-0.796274 0.849354,-2.229567 z m 4.712582,0.758964 c 0.541546,-0.88866 0.482468,-1.325633 -0.258369,-1.911056 -0.528246,-0.41743 -0.866636,-1.403945 -0.751969,-2.192256 0.157128,-1.0802466 -0.106994,-1.4332916 -1.072268,-1.4332916 -1.558831,0 -2.380122,1.1416766 -1.473492,2.0483096 0.459671,0.459671 0.450881,1.00334 -0.02864,1.771168 -0.380542,0.609348 -0.50461,1.595971 -0.275699,2.192495 0.528869,1.378216 2.90952,1.085067 3.860431,-0.475369 z m -14.395263,0.06916 c 0.846392,-0.846397 1.067497,-7.5168216 0.249154,-7.5168216 -0.283396,0 -0.997706,0.358323 -1.587357,0.796274 -0.868652,0.645172 -0.995797,1.430896 -0.67004,4.1406216 0.417599,3.473705 0.722618,3.86555 2.008243,2.579926 z M 24.169305,13.300395 c 0,-0.886461 -2.310847,-2.902706 -3.326833,-2.902706 -1.039794,0 -0.472549,3.097616 0.619504,3.382999 2.095126,0.547514 2.707329,0.438907 2.707329,-0.480293 z m 28.544577,-0.195376 c -0.239255,-1.242344 -2.499534,-1.533621 -2.886738,-0.372007 -0.214525,0.64357 0.708487,1.14964 2.57695,1.412895 0.28846,0.04064 0.427867,-0.427757 0.309788,-1.040888 z m -21.276088,-0.06666 c 0.486995,-0.787975 -2.586943,-3.4903406 -3.399218,-2.988327 -1.04086,0.643288 -0.817685,2.117642 0.430607,2.844705 1.380264,0.803931 2.526252,0.859374 2.968611,0.143622 z m -13.865926,-1.05624 c 0.482171,-1.256518 -0.873391,-2.8584716 -2.418818,-2.8584716 -1.359846,0 -2.140289,1.4135326 -1.582701,2.8665836 0.477553,1.244485 3.523222,1.23831 4.001519,-0.0081 z M 37.368573,10.613558 C 37.489578,10.250542 37.045085,9.2823394 36.380809,8.4619934 l -1.207772,-1.491536 -0.774579,1.447313 c -0.655185,1.224226 -0.594986,1.5832236 0.390559,2.3290666 1.265009,0.957336 2.232683,0.907338 2.579556,-0.133279 z m 4.617,-0.6936376 c -0.01906,-1.648764 -1.248166,-3.981368 -2.097866,-3.981368 -0.211818,0 -0.706429,0.600363 -1.099135,1.33414 -0.590721,1.103772 -0.465421,1.598749 0.725647,2.8665846 1.870016,1.990539 2.496268,1.934954 2.471354,-0.2193566 z m 9.215048,-1.038306 c -0.523844,-2.447733 -0.6189,-2.555417 -1.841599,-2.086222 -0.569447,0.218517 -0.983004,1.144954 -0.983004,2.202092 0,2.2399176 0.350463,2.6298986 1.980375,2.2036666 1.052605,-0.275261 1.19689,-0.671691 0.844228,-2.3195366 z m 4.704467,-0.334873 c 0.18138,-1.847604 0.04374,-2.048725 -1.27404,-1.861999 -1.698121,0.240615 -2.441991,2.911853 -1.055356,3.7898006 1.385914,0.877491 2.113071,0.275698 2.329396,-1.9278016 z m -28.506373,0.204999 c 1.131629,-1.363529 -0.0067,-3.131697 -2.016073,-3.131697 -1.559684,0 -2.284255,1.454052 -1.605713,3.222304 0.469007,1.2222116 2.57599,1.1695006 3.621786,-0.09061 z m 5.16093,-0.04533 c 1.478109,-1.337669 1.479656,-2.875076 0.0047,-4.6965405 L 31.404148,2.5770604 30.581151,4.5639532 c -0.773223,1.8667252 -0.518136,5.1967172 0.398084,5.1967172 0.228508,0 0.939692,-0.474416 1.58041,-1.05426 z m -9.96765,-0.904807 c 0.503934,-1.587753 0.06915,-2.153964 -1.261801,-1.64323 -1.239022,0.475458 -1.298134,2.965274 -0.0704,2.965274 0.50193,0 1.101421,-0.594919 1.332201,-1.322044 z M 38.820738,5.0752203 c 0.849358,-1.5259722 0.849358,-1.7846381 0,-2.3279927 -1.542623,-0.9868518 -2.295606,-0.7360587 -3.101671,1.0330618 -0.58259,1.2786452 -0.584128,1.873465 -0.0067,2.569291 0.99728,1.201649 1.946855,0.812338 3.108315,-1.2743601 z m 6.688695,0.2263191 c 0,-1.1674825 -0.38332,-1.6469793 -1.43614,-1.7964803 -0.861425,-0.1223234 -1.589733,0.1963281 -1.819954,0.7962733 -0.634259,1.652854 0.254733,3.01895 1.819954,2.796687 1.05282,-0.149502 1.43614,-0.628998 1.43614,-1.79648 z"
     id="path955" />
</svg>
